<?xml version="1.0" encoding="utf-8"?>
<!-- Generator: Adobe Illustrator 21.0.2, SVG Export Plug-In . SVG Version: 6.00 Build 0)  -->
<svg version="1.1" id="Layer_1" xmlns="http://www.w3.org/2000/svg" xmlns:xlink="http://www.w3.org/1999/xlink" x="0px" y="0px"
	 viewBox="0 0 500 500" style="enable-background:new 0 0 500 500;" xml:space="preserve">
<style type="text/css">
	.st0{display:none;}
	.st1{display:inline;fill:#4AACDD;}
	.st2{fill:#BCBCBC;}
	.st3{fill:#D3D3D3;}
	.st4{fill:#0B4656;}
	.st5{fill:#063444;}
	.st6{fill:#4DE4E8;}
	.st7{fill:#0FB1B5;}
	.st8{fill:#1CC6C6;}
	.st9{fill:#FFDC79;}
	.st10{fill:#FE5C99;}
	.st11{fill:#FFFFFF;}
	.st12{fill:#EAEAEA;}
	.st13{opacity:0.6;}
	.st14{opacity:0.4;}
	.st15{opacity:0.5;fill:#076D6D;}
	.st16{fill:#EDEDED;}
	.st17{fill:#190B05;}
	.st18{fill:#442312;}
	.st19{opacity:0.5;fill:#DEFFFE;}
	.st20{opacity:0.75;fill:#DEFFFE;}
	.st21{fill:#DEFFFE;}
	.st22{fill:#F4D0AE;}
	.st23{fill:#FFE1BD;}
	.st24{opacity:0.5;fill:#E9C69E;}
	.st25{fill:#232323;}
	.st26{fill:#E9C69E;}
	.st27{fill:#EFEFEF;}
	.st28{fill:#3A3A3A;}
	.st29{fill:#2D2D2D;}
	.st30{fill:#353535;}
	.st31{fill:#CCCCCC;}
	.st32{fill:#713E23;}
	.st33{fill:none;stroke:#381E1E;stroke-width:0.6975;stroke-miterlimit:10;}
	.st34{fill:#474747;}
	.st35{fill:#141414;}
	.st36{fill:#022636;}
	.st37{fill:#82441D;}
	.st38{fill:#F7AA57;}
	.st39{fill:#F4B77A;}
	.st40{fill:#ECA140;}
	.st41{fill:#9B5934;}
	.st42{fill:#7F391B;}
	.st43{fill:#934B32;}
	.st44{fill:#682C17;}
	.st45{opacity:0.5;fill:#595959;}
	.st46{fill:#845424;}
	.st47{opacity:0.39;fill:#E2E2E2;}
	.st48{fill:#EDCDAB;}
	.st49{opacity:0.39;fill:#EFEFEF;}
	.st50{fill:#DBDBDB;}
	.st51{fill:#81C5E8;}
	.st52{fill:#394356;}
	.st53{fill:#485366;}
	.st54{fill:#6A7384;}
	.st55{opacity:0.2;fill:#FFFFFF;}
	.st56{opacity:0.4;fill:#FFFFFF;}
	.st57{fill:#FFD05A;}
	.st58{fill:#73AAE0;}
	.st59{fill:#ACD3FF;}
	.st60{fill:#779A0A;}
	.st61{fill:#C3D600;}
	.st62{opacity:0.3;fill:#C3D600;}
	.st63{fill:#8BA6FC;}
	.st64{fill:#C9D4FE;}
	.st65{opacity:0.3;fill:#C9D4FE;}
	.st66{opacity:0.1;fill:#FFFFFF;}
	.st67{fill:#00E0C1;}
	.st68{fill:#02F5D0;}
	.st69{fill:#EFC356;}
	.st70{fill:#E83D83;}
</style>
<g id="BACKGROUND" class="st0">
	<rect class="st1" width="500" height="500"/>
</g>
<g id="DESIGNED_BY_FREEPIK">
</g>
<g>
	<g>
		<g>
			<g>
				<path class="st2" d="M215.6,77.2l-1.5,0.9c-2.3,1.4-3.9,0.2-3.3-2.4l0,0l0,0c0.3-1.3,0.1-2.4-1.7-2.8c-0.5-0.1-1.2,0.1-1.9,0.5
					c-1.9,1.2-3.5,3.7-3.5,5.7c0,0.3,0,0.5,0.1,0.8l0,0l0,0c0.6,1.8-1,5-3.3,6.3l-1.5,0.9c-1.7,1-3.2,3.3-3.2,5.1v0.6L218.8,79v-0.6
					C218.8,76.7,217.4,76.1,215.6,77.2z M207.3,78.8c-1,0.6-1.9,0.3-1.9-0.7c0-1,0.8-2.4,1.9-3c1-0.6,1.9-0.3,1.9,0.7
					C209.2,76.9,208.4,78.2,207.3,78.8z"/>
				<path class="st3" d="M235.2,77l-55.7,33.5V109c0-4.2,3.4-9.8,7.7-12.3l40.3-24.2c4.2-2.6,7.7-1.2,7.7,3.1V77z"/>
			</g>
			<g>
				<path class="st4" d="M273,56.8l-3.4-1.4l0,0c-0.8-0.3-1.8-0.3-2.7,0.2l-125.3,77c-2.5,1.5-4,4.2-4,7.1v204.1
					c0,1.4,0.7,2.5,1.8,3h0l0,0c0.2,0.1,0.5,0.2,0.8,0.3l2.6,1.1l1-2l124.3-76.4c2-1.2,3.3-3.5,3.3-5.8V58.2c0-0.4-0.1-0.7-0.2-1
					l1.3,0.4L273,56.8z"/>
				<path class="st5" d="M274.8,59.5v205.8c0,2.4-1.2,4.6-3.3,5.8l-125.2,77c-2.3,1.4-5.3-0.2-5.3-3V141c0-2.9,1.5-5.6,4-7.1
					l125.3-77C272.2,55.7,274.8,57.1,274.8,59.5z"/>
				<path class="st6" d="M270.2,64.7v199.5c0,0.9-0.5,1.7-1.2,2.2l-121.7,74.8c-0.8,0.5-1.8-0.1-1.8-1V140.9c0-1.3,0.7-2.5,1.8-3.2
					l120.8-74.3C269,62.9,270.2,63.6,270.2,64.7z"/>
			</g>
			<g>
				<path class="st7" d="M201.1,117.3v74.4c0,0.3-0.2,0.6-0.5,0.8l-45.4,27.9c-0.3,0.2-0.7,0-0.7-0.4v-74.3c0-0.5,0.3-0.9,0.7-1.2
					l45.1-27.7C200.7,116.7,201.1,116.9,201.1,117.3z"/>
				<path class="st7" d="M201.1,205.8v7.1c0,0.3-0.2,0.6-0.5,0.8l-45.4,27.9c-0.3,0.2-0.7,0-0.7-0.4v-7c0-0.5,0.3-0.9,0.7-1.2
					l45.1-27.7C200.7,205.1,201.1,205.4,201.1,205.8z"/>
				<path class="st8" d="M196.4,182.3v5.7c0,0.3-0.1,0.5-0.4,0.6l-36.1,22.2c-0.2,0.1-0.5,0-0.5-0.3v-5.6c0-0.4,0.2-0.7,0.5-0.9
					l35.9-22C196,181.8,196.4,182,196.4,182.3z"/>
				<path class="st7" d="M201.1,220.6v7.1c0,0.3-0.2,0.6-0.5,0.8l-45.4,27.9c-0.3,0.2-0.7,0-0.7-0.4v-7c0-0.5,0.3-0.9,0.7-1.2
					l45.1-27.7C200.7,219.9,201.1,220.2,201.1,220.6z"/>
				<path class="st7" d="M190.8,241.7v7.1c0,0.3-0.2,0.6-0.5,0.8l-35.1,21.6c-0.3,0.2-0.7,0-0.7-0.4v-7c0-0.5,0.3-0.9,0.7-1.2
					l34.7-21.4C190.4,241.1,190.8,241.3,190.8,241.7z"/>
				<path class="st7" d="M250.6,196.6v7.1c0,0.3-0.2,0.6-0.5,0.8l-35.1,21.6c-0.3,0.2-0.7,0-0.7-0.4v-7c0-0.5,0.3-0.9,0.7-1.2
					l34.7-21.4C250.2,195.9,250.6,196.2,250.6,196.6z"/>
				<path class="st7" d="M250.6,217.6v7.1c0,0.3-0.2,0.6-0.5,0.8l-35.1,21.6c-0.3,0.2-0.7,0-0.7-0.4v-7c0-0.5,0.3-0.9,0.7-1.2
					l34.7-21.4C250.2,217,250.6,217.2,250.6,217.6z"/>
				<path class="st7" d="M201.1,250.2v7.1c0,0.3-0.2,0.6-0.5,0.8L155.3,286c-0.3,0.2-0.7,0-0.7-0.4v-7c0-0.5,0.3-0.9,0.7-1.2
					l45.1-27.7C200.7,249.5,201.1,249.8,201.1,250.2z"/>
				<path class="st7" d="M169.3,295.2v10.3c0,0.5-0.3,0.9-0.7,1.2l-9.6,5.8c-0.4,0.3-1,0-1-0.5v-10.2c0-0.7,0.4-1.4,1-1.7l9.2-5.6
					C168.6,294.2,169.3,294.6,169.3,295.2z"/>
				<path class="st9" d="M185.2,285.4v10.3c0,0.5-0.3,0.9-0.7,1.2l-9.6,5.8c-0.4,0.3-1,0-1-0.5v-10.2c0-0.7,0.4-1.4,1-1.7l9.2-5.6
					C184.6,284.5,185.2,284.9,185.2,285.4z"/>
				<path class="st10" d="M201.1,275.7V286c0,0.5-0.3,0.9-0.7,1.2l-9.6,5.8c-0.4,0.3-1,0-1-0.5v-10.2c0-0.7,0.4-1.4,1-1.7l9.2-5.6
					C200.5,274.8,201.1,275.1,201.1,275.7z"/>
				<path class="st7" d="M242.7,92.4v2.7c0,0.3-0.2,0.6-0.5,0.8l-30.4,18.7c-0.3,0.2-0.7,0-0.7-0.4v-2.6c0-0.5,0.3-0.9,0.7-1.2
					L241.9,92C242.2,91.8,242.7,92,242.7,92.4z"/>
				<path class="st7" d="M231.5,107.2v2.7c0,0.3-0.2,0.6-0.5,0.8l-19.2,11.9c-0.3,0.2-0.7,0-0.7-0.4v-2.6c0-0.5,0.3-0.9,0.7-1.2
					l18.9-11.7C231.1,106.5,231.5,106.8,231.5,107.2z"/>
				<path class="st7" d="M257.7,99.1v2.7c0,0.3-0.2,0.6-0.5,0.8l-45.4,27.9c-0.3,0.2-0.7,0-0.7-0.4v-2.6c0-0.5,0.3-0.9,0.7-1.2
					l45.1-27.7C257.2,98.5,257.7,98.7,257.7,99.1z"/>
				<path class="st7" d="M253.6,109.5v2.7c0,0.3-0.2,0.6-0.5,0.8l-41.3,25.5c-0.3,0.2-0.7,0-0.7-0.4v-2.6c0-0.5,0.3-0.9,0.7-1.2
					l41-25.3C253.2,108.8,253.6,109.1,253.6,109.5z"/>
				<path class="st7" d="M235.6,128.5v2.7c0,0.3-0.2,0.6-0.5,0.8l-23.3,14.3c-0.3,0.2-0.7,0-0.7-0.4v-2.6c0-0.5,0.3-0.9,0.7-1.2
					l23-14.1C235.1,127.9,235.6,128.1,235.6,128.5z"/>
				<path class="st7" d="M257.7,122.9v2.7c0,0.3-0.2,0.6-0.5,0.8l-45.4,27.9c-0.3,0.2-0.7,0-0.7-0.4v-2.6c0-0.5,0.3-0.9,0.7-1.2
					l45.1-27.7C257.2,122.3,257.7,122.5,257.7,122.9z"/>
				<path class="st7" d="M257.7,130.8v2.7c0,0.3-0.2,0.6-0.5,0.8l-45.4,27.9c-0.3,0.2-0.7,0-0.7-0.4v-2.6c0-0.5,0.3-0.9,0.7-1.2
					l45.1-27.7C257.2,130.2,257.7,130.4,257.7,130.8z"/>
				<path class="st7" d="M246.8,145.5v2.7c0,0.3-0.2,0.6-0.5,0.8l-34.5,21.2c-0.3,0.2-0.7,0-0.7-0.4v-2.6c0-0.5,0.3-0.9,0.7-1.2
					l34.2-21C246.3,144.9,246.8,145.1,246.8,145.5z"/>
				<path class="st7" d="M257.7,146.7v2.7c0,0.3-0.2,0.6-0.5,0.8l-45.4,27.9c-0.3,0.2-0.7,0-0.7-0.4v-2.6c0-0.5,0.3-0.9,0.7-1.2
					l45.1-27.7C257.2,146.1,257.7,146.3,257.7,146.7z"/>
				<path class="st7" d="M257.7,154.6v2.7c0,0.3-0.2,0.6-0.5,0.8l-45.4,27.9c-0.3,0.2-0.7,0-0.7-0.4v-2.6c0-0.5,0.3-0.9,0.7-1.2
					l45.1-27.7C257.2,154,257.7,154.2,257.7,154.6z"/>
				<g>
					<path class="st11" d="M185.5,150c0,4.2-3.4,12.9-7.6,15.5c-4.2,2.6-7.6-1.7-7.6-5.9c0-4.2,3.4-9.8,7.6-12.4
						S185.5,145.8,185.5,150z"/>
					<path class="st11" d="M196.4,173.7v1.2l-37,23.1v-1.2c0-10.2,8.3-23.7,18.5-30.1c5.1-3.2,9.7-4,13.1-2.8
						C194.3,165.2,196.4,168.6,196.4,173.7z"/>
				</g>
				<g>
					<path class="st11" d="M239,78.8l-55.7,33.5v-1.4c0-4.2,3.4-9.8,7.7-12.3l40.3-24.2c4.2-2.6,7.7-1.2,7.7,3.1V78.8z"/>
					<path class="st12" d="M219.5,79l-1.5,0.9c-2.3,1.4-3.9,0.2-3.3-2.4l0,0l0,0c0.3-1.3,0.1-2.4-1.7-2.8c-0.5-0.1-1.2,0.1-1.9,0.5
						c-1.9,1.2-3.5,3.7-3.5,5.7c0,0.3,0,0.5,0.1,0.8l0,0l0,0c0.6,1.8-1,5-3.3,6.3l-1.5,0.9c-1.7,1-3.2,3.3-3.2,5.1v0.6l22.9-13.8
						v-0.6C222.6,78.5,221.2,78,219.5,79z M211.2,80.7c-1,0.6-1.9,0.3-1.9-0.7c0-1,0.8-2.4,1.9-3c1-0.6,1.9-0.3,1.9,0.7
						C213,78.7,212.2,80,211.2,80.7z"/>
				</g>
				<path class="st7" d="M257.7,114.9v2.7c0,0.3-0.2,0.6-0.5,0.8L238.6,130c-0.3,0.2-0.7,0-0.7-0.4V127c0-0.5,0.3-0.9,0.7-1.2
					l18.3-11.4C257.2,114.2,257.7,114.5,257.7,114.9z"/>
			</g>
		</g>
		<g class="st13">
			<g>
				<path class="st2" d="M344.6,38.6l-1.1,0.6c-1.6,0.9-2.7,0.1-2.3-1.6l0,0l0,0c0.2-0.9,0.1-1.7-1.2-1.9c-0.4-0.1-0.8,0-1.3,0.3
					c-1.3,0.8-2.4,2.6-2.4,3.9c0,0.2,0,0.4,0.1,0.5l0,0l0,0c0.4,1.2-0.7,3.4-2.3,4.4l-1.1,0.6c-1.2,0.7-2.2,2.3-2.2,3.5v0.4
					l15.8-9.5v-0.4C346.8,38.3,345.8,37.9,344.6,38.6z M338.8,39.8c-0.7,0.4-1.3,0.2-1.3-0.5c0-0.7,0.6-1.6,1.3-2.1
					c0.7-0.4,1.3-0.2,1.3,0.5C340.1,38.4,339.6,39.4,338.8,39.8z"/>
				<path class="st3" d="M358.1,38.5l-38.5,23.2v-1c0-2.9,2.4-6.7,5.3-8.5l27.9-16.8c2.9-1.8,5.3-0.8,5.3,2.1V38.5z"/>
			</g>
			<g>
				<path class="st4" d="M384.3,24.5l-2.4-1l0,0c-0.6-0.2-1.2-0.2-1.8,0.1L293.4,77c-1.7,1.1-2.8,2.9-2.8,4.9v141.2
					c0,0.9,0.5,1.7,1.2,2.1h0l0,0c0.2,0.1,0.3,0.2,0.5,0.2l1.8,0.7l0.7-1.4l86-52.9c1.4-0.9,2.3-2.4,2.3-4V25.5
					c0-0.3-0.1-0.5-0.1-0.7L384,25L384.3,24.5z"/>
				<path class="st5" d="M385.5,26.4v142.4c0,1.6-0.9,3.2-2.3,4l-86.6,53.2c-1.6,1-3.7-0.2-3.7-2.1V82.8c0-2,1-3.9,2.8-4.9
					l86.6-53.2C383.7,23.8,385.5,24.8,385.5,26.4z"/>
				<path class="st6" d="M382.3,30v138c0,0.6-0.3,1.2-0.8,1.5l-84.2,51.7c-0.5,0.3-1.2-0.1-1.2-0.7V82.7c0-0.9,0.5-1.7,1.2-2.2
					l83.6-51.4C381.5,28.8,382.3,29.3,382.3,30z"/>
			</g>
			<g>
				<path class="st7" d="M334.5,66.4v51.5c0,0.2-0.1,0.4-0.3,0.6l-31.4,19.3c-0.2,0.1-0.5,0-0.5-0.3V86.1c0-0.3,0.2-0.6,0.5-0.8
					L334,66.1C334.2,66,334.5,66.1,334.5,66.4z"/>
				<path class="st7" d="M334.5,127.6v4.9c0,0.2-0.1,0.4-0.3,0.6l-31.4,19.3c-0.2,0.1-0.5,0-0.5-0.3v-4.9c0-0.3,0.2-0.6,0.5-0.8
					l31.2-19.2C334.2,127.2,334.5,127.3,334.5,127.6z"/>
				<path class="st8" d="M331.2,111.4v3.9c0,0.2-0.1,0.4-0.3,0.4l-25,15.3c-0.2,0.1-0.4,0-0.4-0.2V127c0-0.3,0.1-0.5,0.4-0.7
					l24.8-15.2C331,111,331.2,111.1,331.2,111.4z"/>
				<path class="st7" d="M334.5,137.8v4.9c0,0.2-0.1,0.4-0.3,0.6l-31.4,19.3c-0.2,0.1-0.5,0-0.5-0.3v-4.9c0-0.3,0.2-0.6,0.5-0.8
					l31.2-19.2C334.2,137.4,334.5,137.6,334.5,137.8z"/>
				<path class="st7" d="M327.4,152.5v4.9c0,0.2-0.1,0.4-0.3,0.6l-24.2,14.9c-0.2,0.1-0.5,0-0.5-0.3v-4.9c0-0.3,0.2-0.6,0.5-0.8
					l24-14.8C327.1,152,327.4,152.2,327.4,152.5z"/>
				<path class="st7" d="M368.8,121.2v4.9c0,0.2-0.1,0.4-0.3,0.6l-24.2,14.9c-0.2,0.1-0.5,0-0.5-0.3v-4.9c0-0.3,0.2-0.6,0.5-0.8
					l24-14.8C368.5,120.8,368.8,121,368.8,121.2z"/>
				<path class="st7" d="M368.8,135.8v4.9c0,0.2-0.1,0.4-0.3,0.6l-24.2,14.9c-0.2,0.1-0.5,0-0.5-0.3v-4.9c0-0.3,0.2-0.6,0.5-0.8
					l24-14.8C368.5,135.3,368.8,135.5,368.8,135.8z"/>
				<path class="st7" d="M334.5,158.3v4.9c0,0.2-0.1,0.4-0.3,0.6l-31.4,19.3c-0.2,0.1-0.5,0-0.5-0.3V178c0-0.3,0.2-0.6,0.5-0.8
					L334,158C334.2,157.9,334.5,158,334.5,158.3z"/>
				<path class="st7" d="M312.5,189.4v7.2c0,0.3-0.2,0.6-0.5,0.8l-6.7,4c-0.3,0.2-0.7,0-0.7-0.4v-7c0-0.5,0.3-0.9,0.7-1.2l6.3-3.8
					C312.1,188.8,312.5,189,312.5,189.4z"/>
				<path class="st9" d="M323.5,182.7v7.2c0,0.3-0.2,0.6-0.5,0.8l-6.7,4c-0.3,0.2-0.7,0-0.7-0.4v-7c0-0.5,0.3-0.9,0.7-1.2l6.3-3.8
					C323.1,182,323.5,182.3,323.5,182.7z"/>
				<path class="st10" d="M334.5,176v7.2c0,0.3-0.2,0.6-0.5,0.8l-6.7,4c-0.3,0.2-0.7,0-0.7-0.4v-7c0-0.5,0.3-0.9,0.7-1.2l6.3-3.8
					C334.1,175.3,334.5,175.6,334.5,176z"/>
				<path class="st7" d="M363.3,49.2v1.9c0,0.2-0.1,0.4-0.3,0.6l-21,12.9c-0.2,0.1-0.5,0-0.5-0.3v-1.8c0-0.3,0.2-0.6,0.5-0.8
					l20.8-12.8C363,48.8,363.3,48.9,363.3,49.2z"/>
				<path class="st7" d="M355.6,59.4v1.9c0,0.2-0.1,0.4-0.3,0.6l-13.3,8.2c-0.2,0.1-0.5,0-0.5-0.3V68c0-0.3,0.2-0.6,0.5-0.8
					l13.1-8.1C355.3,59,355.6,59.1,355.6,59.4z"/>
				<path class="st7" d="M373.6,53.8v1.9c0,0.2-0.1,0.4-0.3,0.6l-31.4,19.3c-0.2,0.1-0.5,0-0.5-0.3v-1.8c0-0.3,0.2-0.6,0.5-0.8
					l31.2-19.2C373.3,53.4,373.6,53.5,373.6,53.8z"/>
				<path class="st7" d="M370.8,61v1.9c0,0.2-0.1,0.4-0.3,0.6L341.9,81c-0.2,0.1-0.5,0-0.5-0.3V79c0-0.3,0.2-0.6,0.5-0.8l28.4-17.5
					C370.5,60.5,370.8,60.7,370.8,61z"/>
				<path class="st7" d="M358.4,74.2V76c0,0.2-0.1,0.4-0.3,0.6l-16.1,9.9c-0.2,0.1-0.5,0-0.5-0.3v-1.8c0-0.3,0.2-0.6,0.5-0.8
					l15.9-9.8C358.1,73.7,358.4,73.9,358.4,74.2z"/>
				<path class="st7" d="M373.6,70.3v1.9c0,0.2-0.1,0.4-0.3,0.6L341.9,92c-0.2,0.1-0.5,0-0.5-0.3V90c0-0.3,0.2-0.6,0.5-0.8L373.1,70
					C373.3,69.8,373.6,70,373.6,70.3z"/>
				<path class="st7" d="M373.6,75.8v1.9c0,0.2-0.1,0.4-0.3,0.6l-31.4,19.3c-0.2,0.1-0.5,0-0.5-0.3v-1.8c0-0.3,0.2-0.6,0.5-0.8
					l31.2-19.2C373.3,75.3,373.6,75.5,373.6,75.8z"/>
				<path class="st7" d="M366.1,85.9v1.9c0,0.2-0.1,0.4-0.3,0.6L341.9,103c-0.2,0.1-0.5,0-0.5-0.3v-1.8c0-0.3,0.2-0.6,0.5-0.8
					l23.6-14.5C365.8,85.5,366.1,85.6,366.1,85.9z"/>
				<path class="st7" d="M373.6,86.7v1.9c0,0.2-0.1,0.4-0.3,0.6l-31.4,19.3c-0.2,0.1-0.5,0-0.5-0.3v-1.8c0-0.3,0.2-0.6,0.5-0.8
					l31.2-19.2C373.3,86.3,373.6,86.5,373.6,86.7z"/>
				<path class="st7" d="M373.6,92.2v1.9c0,0.2-0.1,0.4-0.3,0.6L341.9,114c-0.2,0.1-0.5,0-0.5-0.3v-1.8c0-0.3,0.2-0.6,0.5-0.8
					l31.2-19.2C373.3,91.8,373.6,91.9,373.6,92.2z"/>
				<g>
					<path class="st11" d="M323.7,89c0,2.9-2.4,8.9-5.3,10.7c-2.9,1.8-5.3-1.2-5.3-4.1c0-2.9,2.4-6.8,5.3-8.6
						C321.4,85.2,323.7,86.1,323.7,89z"/>
					<path class="st11" d="M331.2,105.4v0.9l-25.6,16v-0.9c0-7.1,5.7-16.4,12.8-20.8c3.5-2.2,6.7-2.8,9-1.9
						C329.8,99.6,331.2,101.9,331.2,105.4z"/>
				</g>
				<g>
					<path class="st11" d="M360.7,39.8l-38.5,23.2v-1c0-2.9,2.4-6.7,5.3-8.5l27.9-16.8c2.9-1.8,5.3-0.8,5.3,2.1V39.8z"/>
					<path class="st12" d="M347.2,39.9l-1.1,0.6c-1.6,0.9-2.7,0.1-2.3-1.6l0,0l0,0c0.2-0.9,0.1-1.7-1.2-1.9c-0.4-0.1-0.8,0-1.3,0.3
						c-1.3,0.8-2.4,2.6-2.4,3.9c0,0.2,0,0.4,0.1,0.5l0,0l0,0c0.4,1.2-0.7,3.4-2.3,4.4l-1.1,0.6c-1.2,0.7-2.2,2.3-2.2,3.5v0.4
						l15.8-9.5v-0.4C349.4,39.6,348.4,39.2,347.2,39.9z M341.5,41.1c-0.7,0.4-1.3,0.2-1.3-0.5c0-0.7,0.6-1.6,1.3-2.1
						c0.7-0.4,1.3-0.2,1.3,0.5C342.8,39.7,342.2,40.6,341.5,41.1z"/>
				</g>
				<path class="st7" d="M373.6,64.7v1.9c0,0.2-0.1,0.4-0.3,0.6l-12.9,8c-0.2,0.1-0.5,0-0.5-0.3v-1.8c0-0.3,0.2-0.6,0.5-0.8
					l12.7-7.9C373.3,64.3,373.6,64.4,373.6,64.7z"/>
			</g>
		</g>
		<g class="st14">
			<g>
				<path class="st2" d="M79.9,200.7l-1.1,0.6c-1.6,0.9-2.7,0.1-2.3-1.6l0,0l0,0c0.2-0.9,0.1-1.7-1.2-1.9c-0.4-0.1-0.8,0-1.3,0.3
					c-1.3,0.8-2.4,2.6-2.4,3.9c0,0.2,0,0.4,0.1,0.5l0,0l0,0c0.4,1.2-0.7,3.4-2.3,4.4l-1.1,0.6c-1.2,0.7-2.2,2.3-2.2,3.5v0.4
					l15.8-9.5v-0.4C82.1,200.4,81.1,200,79.9,200.7z M74.2,201.9c-0.7,0.4-1.3,0.2-1.3-0.5c0-0.7,0.6-1.6,1.3-2.1
					c0.7-0.4,1.3-0.2,1.3,0.5C75.5,200.5,74.9,201.4,74.2,201.9z"/>
				<path class="st3" d="M93.5,200.6l-38.5,23.2v-1c0-2.9,2.4-6.7,5.3-8.5l27.9-16.8c2.9-1.8,5.3-0.8,5.3,2.1V200.6z"/>
			</g>
			<g>
				<path class="st4" d="M119.6,186.6l-2.4-1l0,0c-0.6-0.2-1.2-0.2-1.8,0.1l-86.6,53.2C27,240.1,26,242,26,244v141.2
					c0,0.9,0.5,1.7,1.2,2.1l0,0l0,0c0.2,0.1,0.3,0.2,0.5,0.2l1.8,0.7l0.7-1.4l86-52.9c1.4-0.9,2.3-2.4,2.3-4V187.6
					c0-0.3-0.1-0.5-0.1-0.7l0.9,0.3L119.6,186.6z"/>
				<path class="st5" d="M120.8,188.5v142.4c0,1.6-0.9,3.2-2.3,4l-86.6,53.2c-1.6,1-3.7-0.2-3.7-2.1V244.9c0-2,1-3.9,2.8-4.9
					l86.6-53.2C119,185.9,120.8,186.9,120.8,188.5z"/>
				<path class="st6" d="M117.6,192.1v138c0,0.6-0.3,1.2-0.8,1.5l-84.2,51.7c-0.5,0.3-1.2-0.1-1.2-0.7V244.8c0-0.9,0.5-1.7,1.2-2.2
					l83.6-51.4C116.8,190.9,117.6,191.3,117.6,192.1z"/>
			</g>
			<g>
				<path class="st7" d="M69.9,228.5V280c0,0.2-0.1,0.4-0.3,0.6l-31.4,19.3c-0.2,0.1-0.5,0-0.5-0.3v-51.4c0-0.3,0.2-0.6,0.5-0.8
					l31.2-19.2C69.6,228.1,69.9,228.2,69.9,228.5z"/>
				<path class="st7" d="M69.9,289.7v4.9c0,0.2-0.1,0.4-0.3,0.6l-31.4,19.3c-0.2,0.1-0.5,0-0.5-0.3v-4.9c0-0.3,0.2-0.6,0.5-0.8
					l31.2-19.2C69.6,289.2,69.9,289.4,69.9,289.7z"/>
				<path class="st8" d="M66.6,273.4v3.9c0,0.2-0.1,0.4-0.3,0.4l-25,15.3c-0.2,0.1-0.4,0-0.4-0.2v-3.9c0-0.3,0.1-0.5,0.4-0.7
					l24.8-15.2C66.3,273.1,66.6,273.2,66.6,273.4z"/>
				<path class="st7" d="M69.9,299.9v4.9c0,0.2-0.1,0.4-0.3,0.6l-31.4,19.3c-0.2,0.1-0.5,0-0.5-0.3v-4.9c0-0.3,0.2-0.6,0.5-0.8
					l31.2-19.2C69.6,299.5,69.9,299.6,69.9,299.9z"/>
				<path class="st7" d="M62.7,314.5v4.9c0,0.2-0.1,0.4-0.3,0.6l-24.2,14.9c-0.2,0.1-0.5,0-0.5-0.3v-4.9c0-0.3,0.2-0.6,0.5-0.8
					l24-14.8C62.4,314.1,62.7,314.3,62.7,314.5z"/>
				<path class="st7" d="M104.1,283.3v4.9c0,0.2-0.1,0.4-0.3,0.6l-24.2,14.9c-0.2,0.1-0.5,0-0.5-0.3v-4.9c0-0.3,0.2-0.6,0.5-0.8
					l24-14.8C103.8,282.9,104.1,283,104.1,283.3z"/>
				<path class="st7" d="M104.1,297.9v4.9c0,0.2-0.1,0.4-0.3,0.6l-24.2,14.9c-0.2,0.1-0.5,0-0.5-0.3v-4.9c0-0.3,0.2-0.6,0.5-0.8
					l24-14.8C103.8,297.4,104.1,297.6,104.1,297.9z"/>
				<path class="st7" d="M69.9,320.4v4.9c0,0.2-0.1,0.4-0.3,0.6l-31.4,19.3c-0.2,0.1-0.5,0-0.5-0.3v-4.9c0-0.3,0.2-0.6,0.5-0.8
					l31.2-19.2C69.6,319.9,69.9,320.1,69.9,320.4z"/>
				<path class="st7" d="M47.8,351.5v7.2c0,0.3-0.2,0.6-0.5,0.8l-6.7,4c-0.3,0.2-0.7,0-0.7-0.4v-7c0-0.5,0.3-0.9,0.7-1.2l6.3-3.8
					C47.4,350.9,47.8,351.1,47.8,351.5z"/>
				<path class="st9" d="M58.9,344.8v7.2c0,0.3-0.2,0.6-0.5,0.8l-6.7,4c-0.3,0.2-0.7,0-0.7-0.4v-7c0-0.5,0.3-0.9,0.7-1.2l6.3-3.8
					C58.4,344.1,58.9,344.4,58.9,344.8z"/>
				<path class="st10" d="M69.9,338v7.2c0,0.3-0.2,0.6-0.5,0.8l-6.7,4c-0.3,0.2-0.7,0-0.7-0.4v-7c0-0.5,0.3-0.9,0.7-1.2l6.3-3.8
					C69.4,337.4,69.9,337.6,69.9,338z"/>
				<path class="st7" d="M98.6,211.3v1.9c0,0.2-0.1,0.4-0.3,0.6l-21,12.9c-0.2,0.1-0.5,0-0.5-0.3v-1.8c0-0.3,0.2-0.6,0.5-0.8
					L98.1,211C98.3,210.8,98.6,211,98.6,211.3z"/>
				<path class="st7" d="M90.9,221.5v1.9c0,0.2-0.1,0.4-0.3,0.6l-13.3,8.2c-0.2,0.1-0.5,0-0.5-0.3v-1.8c0-0.3,0.2-0.6,0.5-0.8
					l13.1-8.1C90.6,221,90.9,221.2,90.9,221.5z"/>
				<path class="st7" d="M109,215.9v1.9c0,0.2-0.1,0.4-0.3,0.6l-31.4,19.3c-0.2,0.1-0.5,0-0.5-0.3v-1.8c0-0.3,0.2-0.6,0.5-0.8
					l31.2-19.2C108.7,215.5,109,215.6,109,215.9z"/>
				<path class="st7" d="M106.2,223.1v1.9c0,0.2-0.1,0.4-0.3,0.6l-28.6,17.6c-0.2,0.1-0.5,0-0.5-0.3v-1.8c0-0.3,0.2-0.6,0.5-0.8
					l28.4-17.5C105.9,222.6,106.2,222.8,106.2,223.1z"/>
				<path class="st7" d="M93.7,236.2v1.9c0,0.2-0.1,0.4-0.3,0.6l-16.1,9.9c-0.2,0.1-0.5,0-0.5-0.3v-1.8c0-0.3,0.2-0.6,0.5-0.8
					l15.9-9.8C93.4,235.8,93.7,236,93.7,236.2z"/>
				<path class="st7" d="M109,232.4v1.9c0,0.2-0.1,0.4-0.3,0.6l-31.4,19.3c-0.2,0.1-0.5,0-0.5-0.3V252c0-0.3,0.2-0.6,0.5-0.8
					l31.2-19.2C108.7,231.9,109,232.1,109,232.4z"/>
				<path class="st7" d="M109,237.8v1.9c0,0.2-0.1,0.4-0.3,0.6l-31.4,19.3c-0.2,0.1-0.5,0-0.5-0.3v-1.8c0-0.3,0.2-0.6,0.5-0.8
					l31.2-19.2C108.7,237.4,109,237.6,109,237.8z"/>
				<path class="st7" d="M101.5,248v1.9c0,0.2-0.1,0.4-0.3,0.6l-23.9,14.6c-0.2,0.1-0.5,0-0.5-0.3V263c0-0.3,0.2-0.6,0.5-0.8
					l23.6-14.5C101.2,247.5,101.5,247.7,101.5,248z"/>
				<path class="st7" d="M109,248.8v1.9c0,0.2-0.1,0.4-0.3,0.6l-31.4,19.3c-0.2,0.1-0.5,0-0.5-0.3v-1.8c0-0.3,0.2-0.6,0.5-0.8
					l31.2-19.2C108.7,248.4,109,248.5,109,248.8z"/>
				<path class="st7" d="M109,254.3v1.9c0,0.2-0.1,0.4-0.3,0.6L77.3,276c-0.2,0.1-0.5,0-0.5-0.3V274c0-0.3,0.2-0.6,0.5-0.8
					l31.2-19.2C108.7,253.9,109,254,109,254.3z"/>
				<g>
					<path class="st11" d="M59.1,251.1c0,2.9-2.4,8.9-5.3,10.7c-2.9,1.8-5.3-1.2-5.3-4.1s2.4-6.8,5.3-8.6
						C56.7,247.3,59.1,248.2,59.1,251.1z"/>
					<path class="st11" d="M66.6,267.5v0.9l-25.6,16v-0.9c0-7.1,5.7-16.4,12.8-20.8c3.5-2.2,6.7-2.8,9-1.9
						C65.2,261.6,66.6,263.9,66.6,267.5z"/>
				</g>
				<g>
					<path class="st11" d="M96.1,201.9L57.6,225v-1c0-2.9,2.4-6.7,5.3-8.5l27.9-16.8c2.9-1.8,5.3-0.8,5.3,2.1V201.9z"/>
					<path class="st12" d="M82.6,202l-1.1,0.6c-1.6,0.9-2.7,0.1-2.3-1.6l0,0l0,0c0.2-0.9,0.1-1.7-1.2-1.9c-0.4-0.1-0.8,0-1.3,0.3
						c-1.3,0.8-2.4,2.6-2.4,3.9c0,0.2,0,0.4,0.1,0.5l0,0l0,0c0.4,1.2-0.7,3.4-2.3,4.4l-1.1,0.6c-1.2,0.7-2.2,2.3-2.2,3.5v0.4
						l15.8-9.5v-0.4C84.7,201.7,83.8,201.3,82.6,202z M76.8,203.1c-0.7,0.4-1.3,0.2-1.3-0.5c0-0.7,0.6-1.6,1.3-2.1
						c0.7-0.4,1.3-0.2,1.3,0.5C78.1,201.8,77.5,202.7,76.8,203.1z"/>
				</g>
				<path class="st7" d="M109,226.8v1.9c0,0.2-0.1,0.4-0.3,0.6l-12.9,8c-0.2,0.1-0.5,0-0.5-0.3v-1.8c0-0.3,0.2-0.6,0.5-0.8l12.7-7.9
					C108.7,226.4,109,226.5,109,226.8z"/>
			</g>
		</g>
	</g>
	<g>
		<path class="st15" d="M296.6,368.9l-51.2,30.9c-1.9,1.1-4.2,1.1-6.1,0l-51.5-31.5c-1.3-0.8-1.3-2.6,0-3.4l52.3-31.5
			c1.6-1,3.7-1,5.3,0l51.3,31.3C298.1,365.7,298.1,367.9,296.6,368.9z"/>
		<path class="st16" d="M297.7,352.9c0-0.7-0.4-1.5-1.1-1.9l-51.3-31.3c-1.6-1-3.7-1-5.3,0l-52.3,31.5c-0.6,0.4-1,1.1-0.9,1.7h0v8.6
			l0,0c0.1,0.5,0.4,1,0.9,1.3l51.5,31.5c1.9,1.1,4.2,1.2,6.1,0l51.2-30.9c0.8-0.5,1.2-1.4,1.2-2.2l0,0L297.7,352.9L297.7,352.9z"/>
		<path class="st11" d="M296.6,355.2L245.3,386c-1.9,1.1-4.2,1.1-6.1,0l-51.5-31.5c-1.3-0.8-1.3-2.6,0-3.4l52.3-31.5
			c1.6-1,3.7-1,5.3,0l51.3,31.3C298.1,352,298.1,354.2,296.6,355.2z"/>
	</g>
	<g>
		<path class="st15" d="M428,456.1L376.7,487c-1.9,1.1-4.2,1.1-6.1,0l-51.5-31.5c-1.3-0.8-1.3-2.6,0-3.4l52.3-31.5
			c1.6-1,3.7-1,5.3,0L428,452C429.5,452.9,429.5,455.2,428,456.1z"/>
		<path class="st16" d="M429.1,439.2c0-0.7-0.4-1.5-1.1-1.9L376.7,406c-1.6-1-3.7-1-5.3,0l-52.3,31.5c-0.6,0.4-1,1.1-0.9,1.7h0v8.6
			l0,0c0.1,0.5,0.4,1,0.9,1.3l51.5,31.5c1.9,1.1,4.2,1.2,6.1,0l51.2-30.9c0.8-0.5,1.2-1.4,1.2-2.2l0,0L429.1,439.2L429.1,439.2z"/>
		<path class="st11" d="M428,441.5l-51.2,30.9c-1.9,1.1-4.2,1.1-6.1,0l-51.5-31.5c-1.3-0.8-1.3-2.6,0-3.4l52.3-31.5
			c1.6-1,3.7-1,5.3,0l51.3,31.3C429.5,438.3,429.5,440.5,428,441.5z"/>
	</g>
	<g>
		<path class="st17" d="M397.8,441.3v0.1c0,0,0,0.1,0,0.1c0,0.1,0,0.1,0,0.2c-0.2,0.7-1,2.4-3.9,2.9c-0.2,0-0.4,0.1-0.5,0.1
			c-0.1,0-0.2,0-0.2,0c-0.6,0.1-1.4,0.1-2.2,0c-0.2,0-0.5,0-0.7-0.1c-3.2-0.6-6.1-3.1-6.9-3.7c-0.1-0.1-0.2-0.2-0.2-0.2v-0.6
			c0,0-2.1-1.4-2.9-1.9c-2.3-1.4-5.7-2.6-8.9-4.1c-1-0.5-1.7-1-2.2-1.5c-0.1-0.1-0.2-0.2-0.3-0.3c-0.1-0.1-0.1-0.1-0.2-0.2
			c-0.1-0.1-0.1-0.2-0.2-0.3c-0.1-0.2-0.3-0.4-0.4-0.5c-0.1-0.1-0.1-0.2-0.1-0.3c-0.1-0.1-0.1-0.2-0.1-0.2c0-0.1-0.1-0.2-0.1-0.3
			c0,0,0,0,0,0c-0.1-0.4-0.2-0.8-0.2-1.2v-2.1l19.5,8l10.7,4L397.8,441.3z"/>
		<path class="st18" d="M386.2,426.8c0,0-3.3-0.1-8.6-1.1c-5.3-0.9-9-1.2-9.7,0.5c-0.7,1.6-0.8,3.3,3.9,6.6
			c4.8,3.3,8.4,3.6,12.2,6.7c2.8,2.3,5.4,2.8,8.2,3c2.8,0.2,4.8-0.9,5.4-2c1.4-2.7-0.1-7.8-0.1-7.8"/>
		<path class="st17" d="M378.6,444.4l0,2.6c0,0.9-0.5,1.9-1.3,2.3c-0.3,0.2-0.7,0.3-1.2,0.3c-3.3,0.4-8.4-0.4-8.4-0.4v-1
			c0,0-1.8-0.2-7.1-0.9c-5.5-0.7-9.2-2.3-11-3.3c-0.8-0.4-1.3-1.2-1.3-2.1l0-1.9l20.9,3.7L378.6,444.4z"/>
		<path class="st18" d="M363.9,435.1c0,0-2.3,2.2-5.1,2.2s-8.1-0.1-9.5,0.9c-0.7,0.5-1,1.1-1.1,1.7c0,0.7,0.2,1.4,0.7,2.1
			c1,1.5,8,3.8,13.2,4.2c5.2,0.4,5.5,0.3,8,0.8c2.5,0.4,5,0.6,6.6-0.2c2.7-1.3,2.9-5.4,1.2-8.1C376.3,436.1,363.9,435.1,363.9,435.1
			z"/>
		<path class="st5" d="M376,256.3l-36.6,22l-12.7-30.9c-0.5-1.2,0-2.5,1-3.2l32.7-19.7c1-0.6,2.4-0.2,2.9,0.9L376,256.3z"/>
		<path class="st6" d="M374.3,255.7l-34,20.5l-11.8-28.5c-0.5-1.4-0.5-2.1,1-2.9l31.4-19c0.5-0.3,1.1-0.1,1.3,0.4L374.3,255.7z"/>
		<path class="st19" d="M342.1,249.7l-7.1,4.3c-0.2,0.1-0.4,0-0.5-0.2l-2.6-6.3c-0.1-0.2,0-0.4,0.1-0.5l7.1-4.3
			c0.2-0.1,0.4,0,0.5,0.2l2.6,6.3C342.3,249.4,342.2,249.6,342.1,249.7z"/>
		<path class="st20" d="M352.5,243.4l-7.1,4.3c-0.2,0.1-0.4,0-0.5-0.2l-2.6-6.3c-0.1-0.2,0-0.4,0.1-0.5l7.1-4.3
			c0.2-0.1,0.4,0,0.5,0.2l2.6,6.3C352.7,243.2,352.7,243.3,352.5,243.4z"/>
		<path class="st21" d="M357.2,258.7l-11.6,7c-0.3,0.2-0.7,0.1-0.9-0.3l-4.2-10.2c-0.1-0.3,0-0.6,0.2-0.7l11.6-7
			c0.3-0.2,0.7-0.1,0.9,0.3l4.2,10.2C357.6,258.3,357.5,258.6,357.2,258.7z"/>
		<path class="st21" d="M359.4,246.9l-3.9,2.3c-0.1,0.1-0.2,0-0.3-0.1l-0.1-0.2c0-0.1,0-0.2,0.1-0.2l3.9-2.3c0.1-0.1,0.2,0,0.3,0.1
			l0.1,0.2C359.5,246.7,359.5,246.8,359.4,246.9z"/>
		<path class="st21" d="M356.3,250.4c-0.2,0.1-0.4,0-0.5-0.2l-0.1-0.4c-0.1-0.2,0-0.3,0.1-0.4l6.8-4.1c0.2-0.1,0.4,0,0.5,0.2
			l0.1,0.4c0.1,0.2,0,0.3-0.1,0.4"/>
		<path class="st21" d="M363.7,247.5l-6.8,4.1c-0.2,0.1-0.4,0-0.5-0.2l-0.1-0.4c-0.1-0.2,0-0.3,0.1-0.4l6.8-4.1
			c0.2-0.1,0.4,0,0.5,0.2l0.1,0.4C363.9,247.3,363.8,247.5,363.7,247.5z"/>
		<path class="st21" d="M364.2,248.8l-6.8,4.1c-0.2,0.1-0.4,0-0.5-0.2l-0.1-0.4c-0.1-0.2,0-0.3,0.1-0.4l6.8-4.1
			c0.2-0.1,0.4,0,0.5,0.2l0.1,0.4C364.4,248.5,364.3,248.7,364.2,248.8z"/>
		<path class="st20" d="M364.7,250l-6.8,4.1c-0.2,0.1-0.4,0-0.5-0.2l-0.1-0.4c-0.1-0.2,0-0.3,0.1-0.4l6.8-4.1c0.2-0.1,0.4,0,0.5,0.2
			l0.1,0.4C364.9,249.7,364.9,249.9,364.7,250z"/>
		<path class="st19" d="M365.2,251.2l-6.8,4.1c-0.2,0.1-0.4,0-0.5-0.2l-0.1-0.4c-0.1-0.2,0-0.3,0.1-0.4l6.8-4.1
			c0.2-0.1,0.4,0,0.5,0.2l0.1,0.4C365.4,251,365.4,251.2,365.2,251.2z"/>
		<path class="st21" d="M363,237.1l-7.1,4.3c-0.2,0.1-0.4,0-0.5-0.2l-2.6-6.3c-0.1-0.2,0-0.4,0.1-0.5l7.1-4.3c0.2-0.1,0.4,0,0.5,0.2
			l2.6,6.3C363.2,236.9,363.1,237.1,363,237.1z"/>
		<path class="st22" d="M375.5,245.5c-0.8,0.9-2.2,1.7-2.7,2l-0.5-0.6c-0.3-0.4-0.7-0.6-1.2-0.7c-0.9-0.1-2.5-0.5-3.3-1.4
			c-0.6-0.7-1.3-2-1.9-3c0,0,0,0,0,0c0,0,0-0.1-0.1-0.2c-0.2-0.4-0.6-1.3-0.6-1.4c0-0.1,0.1-0.2,0.1-0.3c0,0,0,0,0,0
			c0.3-0.2,0.8-0.4,1.1-0.2c0.3,0.2,0.8,0.9,1.4,1.6c0.4,0.6,1,1,1.7,1.2c0.1,0,0.1,0.1,0.2,0.1c0,0,0.4-0.2,0.1-1l-2.3-5.7
			c2.4,0.1,4.3,3.1,5.3,5.6C373.2,241.8,374.8,244,375.5,245.5z"/>
		<path class="st23" d="M342.6,273.6l-3.6,3l-0.7,0.6c0,0-0.8-3.4-2.3-4.7c-0.5-0.4-1.9-1-2.8-1.2c-0.5-0.1-0.9-0.4-1.2-0.8
			c-0.7-1-1.7-3-1.2-6.7c0.1-0.7,0.3-1.2,0.5-1.5c0,0,0,0,0,0c0.4-0.8,1-0.7,1-0.7s2.4,1.7,3.1,2.2c0.6,0.4,1.3,1.3,1.9,0.6
			c0.3-0.3-1.5-2.5-1.9-3.6c-0.5-1,0.5-2.1,0.9-1.7c0.4,0.4,2.9,3.5,3.9,6.1C341.3,267.8,342.6,273.6,342.6,273.6z"/>
		<path class="st24" d="M339.9,274l-0.8,2.5l-0.7,0.6c0,0-0.8-3.4-2.3-4.7c-0.5-0.4-1.9-1-2.8-1.2c-0.5-0.1-0.9-0.4-1.2-0.8
			c-0.7-1-1.7-3-1.2-6.7c0.1-0.7,0.3-1.2,0.5-1.5c0,0,0,0,0,0s0,0.6,1,1.5c1,0.9,2.4,1.7,3.1,2.1c0.7,0.4,1.8,2,2.4,3.6
			C338.7,271,339.9,274,339.9,274z"/>
		<path class="st23" d="M392.3,241.2l0.4,1l-0.6,3.3l-10.4,5.2l-0.6-0.1l-1.7-0.2l-2.6-0.3v-3.6c0-1.9-1-3.7-2.7-4.4
			c-0.1,0-0.1-0.1-0.1-0.1c-0.6-0.2-1.2-0.6-1.8-1.2l-0.2-0.2c-2-2.1-3.8-6.9-3.3-17.4c0.1-1.8,0.5-5,1.3-6.6
			c1.5-2.9,4.7-4.8,11.4-3c11.1,3.1,15.9,8.1,16.5,12.4C398.5,230.5,392.3,241.2,392.3,241.2z"/>
		<path class="st11" d="M372.7,248.4l-0.5-1.3c0,0,2.5-1.5,3-2.2c0,0,0.4,0.5,0.8,1.1C376,246,375.3,247.3,372.7,248.4z"/>
		<path class="st25" d="M372.7,248.2c0,0,2.6-1.7,3.4-2.7c0,0,0.9,1.5,1.7,2.8c0.7,1.3,0.6,4.1,0.6,4.1l-3.5,1.2L372.7,248.2z"/>
		<path class="st26" d="M376.8,250.1v-3.6c0-1.9-1-3.7-2.7-4.4c0.5,0.2,2.2,1,4.5,2.2c0.9,0.5,0.9,3.4,0.9,6.1L376.8,250.1z"/>
		<path class="st27" d="M337.7,277l-0.6-2c-0.1-0.4-0.1-0.8,0.1-1.1c0.3-0.7,1-1.9,1.6-2.5c1-0.9,2.2-1,3-0.5c0.3,0.2,0.6,1,0.8,1.5
			c0.2,0.4,0.2,1.6,0.2,1.8c-0.1,0.1-1.3,1.9-1.5,2.1C341.1,276.4,337.7,277,337.7,277z"/>
		<path class="st28" d="M403,340.3c-2.5,13.5-4.2,30.2-4.2,30.2s4.1,33.5-0.5,62.6c-0.2,1.4-0.7,4.3-2.5,5.4c-1,0.6-3.7,1.1-5.7,0
			c-0.1-0.1-0.2-0.1-0.3-0.1c-6.9-3.8-6.2-8.7-7.2-11.9c0-13,1.4-44.9-1.4-51.9l-2.5-28.3l0.9-20.2h24.8v0.1l0.1-0.1
			C404.6,326,406.7,331.5,403,340.3z"/>
		<path class="st29" d="M395.5,340.8c-2.3,7.7-5.3,27.7-6,32.5c0,0,2.3,38.5,0.3,65c-6.9-3.8-6.2-8.7-7.2-11.9
			c0-13,1.4-44.9-1.4-51.9l-2.5-28.3l0.9-20.2h17C396.7,326,397.8,333.1,395.5,340.8z"/>
		<path class="st28" d="M393.9,332.7c-0.8,3.5-2.3,8.3-5.3,12.9c-0.5,0.7-0.9,1.4-1.3,2.2c-0.1,0.3-1.3,4.9-2.8,10.9
			c-1.5,6.1-3.3,13.7-4.6,20.2c0.7,8.1,2.7,36.6-1.1,61.3c-0.3,1.8-1.5,3.2-3.3,3.7c-0.8,0.2-1.7,0.4-2.7,0.3
			c-0.7-0.1-1.5-0.2-2.3-0.5c-4.1-1.7-7-8.2-7-8.2s-0.1-41-2.2-51.7c-0.4-2.1-0.6-4.1-0.7-6.2c-0.4-6.6-1.1-18.6-1.3-23.6
			c-0.4-9.8-0.5-18-0.2-21.6l20.3,0.3L393.9,332.7z"/>
		<path class="st29" d="M379.3,332.5c-0.1,1.2-0.2,2-0.2,2s-0.2,5.1-2.8,12.8c-2.6,7.7-5.2,25.8-5.4,32.6
			c-0.3,6.3,3.1,36.1,1.8,64.3c-0.7-0.1-1.5-0.2-2.3-0.5c-4.1-1.7-7-8.2-7-8.2s-0.1-41-2.2-51.7c-0.4-2.1-0.6-4.1-0.7-6.2
			c-0.4-6.6-1.1-18.6-1.3-23.6c-0.4-9.8-0.5-18-0.2-21.6L379.3,332.5z"/>
		<path class="st30" d="M407,275.5c-3.3,9.9-5.1,26.2-3.1,33c2,6.8,3.1,16.5,3.1,16.5c-1.9,5.1-19.2,16.2-28.8,17
			c-1.2,0.1-2.4,0.1-3.5-0.1c-8.5-1.3-16.5-8.8-16.5-8.8s1.8-28,3-45.8c0.8-11.9,2.5-19.3,3.6-22.9c0.5-1.8,0.9-2.7,0.9-2.7
			c1-1.3,4.1-3.6,7.9-6.2c0,0,0.1,0,0.1,0c2.6-1.7,5.6-3.6,8.5-5.3h0c4-2.3,8-4.5,11.2-6.1c0.4-0.2,0.7-0.4,1.1-0.5
			c2.3-1.1,4-1.8,4.9-2c4.5-0.9,10.6,1.5,12.5,9.8C413.8,259.5,410.2,265.6,407,275.5z"/>
		<path class="st25" d="M373.6,308.5c-0.6,7.6,0.6,26.7,1,33.5c-8.5-1.3-16.5-8.8-16.5-8.8s1.8-28,3-45.8
			c0.8-11.9,2.5-19.3,3.6-22.9c0.9-1.1,1.5-1.7,1.5-1.7h11.2c0,0,5.8,1.2,3.7,14.5C379.1,290.4,374.3,299.1,373.6,308.5z"/>
		<path class="st31" d="M322.4,222.4"/>
		<path class="st25" d="M394.6,247.7c-1.7,2.3-7.8,5.7-10.6,6.3c-2.8,0.6-5.1,0.3-6.4,0.3c-1.9,0-3.3,1-3.8,1.2c0,0-0.1,0-0.1,0
			c0,0,0,0,0,0l1.7-2.5l1.9-1.2c0,0,2.8-1,3.5-1.3c0.2-0.1,0.8-0.2,1.6-0.3h0c1.7-0.2,4.1-0.4,4.5-0.4c0.5-0.1,4.9-3.1,5.1-3.2
			c0.1-0.1,1-1.5,1.6-2.5c0.4-0.2,0.7-0.4,1.1-0.5C395.2,244.3,396,245.8,394.6,247.7z"/>
		<path class="st32" d="M400.9,226.5c-1,5.7-5.8,14.6-8.2,15.4c-1.5,0.5-2.9,0.7-4,0.8c-1.9,0.1-3.6-1.3-3.9-3.1
			c-0.3-1.6-0.8-3.6-1.7-5.1c-1.7-3.1-3.9-4.8-5.1-4.2c-1.1,0.6-1,2.6-1,2.6l-0.7,0c0,0-0.1-0.6-0.2-1.5c-0.1-0.9-0.2-1.9-0.2-2.8
			c0-2.1-0.7-4.2-2-5.9c-0.8-1-1.7-2.6-2.7-5c-0.7-1.6-0.8-3.1-0.7-4.5v0c0.5-4.4,2.2-6.2,3.9-7.4c5.5-4,17,3.5,21.3,7
			c2.3,2,3.9,4.2,4.8,6.8v0C401.1,221.7,401.3,224,400.9,226.5z"/>
		<path class="st11" d="M393.8,243.2l-1.1-1c-6.9,7.6-16,7.9-16,7.9s-2.5,2.5-3.2,5.4l1.4-0.9c0.8-0.5,1.6-0.8,2.5-1
			c0.6-0.1,1.8-0.2,1.8-0.2c5.7-0.1,11.3-4,14.3-6.5C394.9,246,394.9,244.3,393.8,243.2z"/>
		<path class="st33" d="M338.1,274.6"/>
		<path class="st33" d="M327.4,248.9"/>
		<path class="st34" d="M368.1,431.9c0.1,0.2,0.2,0.3,0.4,0.5C368.3,432.2,368.2,432,368.1,431.9z"/>
		<path class="st34" d="M368.6,432.7c-0.1-0.1-0.1-0.2-0.2-0.3c0.1,0.1,0.2,0.3,0.4,0.5C368.7,432.8,368.7,432.7,368.6,432.7z"/>
		<path class="st28" d="M378.7,271.9c-1.1,6.3-13,24.5-13.5,25.2c-2.1,3.4-4.2,6.4-6,8.5h0c-1.6,2-2.9,3.3-3.7,3.5
			c-0.2,0.1-0.3,0.1-0.5,0.1c-3.7,0.9-6.5-1.5-7.5-4.2c-1-2.1-3.9-7.1-6.2-13.6c-1.6-4.3-2.5-9.6-3.6-13.9c-0.2-1-0.1-2.1,0.4-3.1
			c0.1-0.1,0.1-0.2,0.1-0.2c0.7-1.1,1.6-2.3,2.4-2.5c1.5-0.2,1.8,0.2,1.8,0.2s2.7,4.4,4.9,7.8c1.7,2.6,3.6,7.3,4.3,9.2
			c0.2,0.6,0.3,0.9,0.3,0.9c3.9-9.2,9.1-20.4,11.2-25.2c2.5-5.7,10.2-6.9,14.2-2.1c0.1,0.1,0.1,0.1,0.2,0.2c0.3,0.3,0.4,0.7,0.6,1.1
			l0,0c0,0,0,0,0,0C378.5,264.3,379.7,266.1,378.7,271.9z"/>
		<path class="st18" d="M400.9,226.5c-1,5.7-5.8,14.6-8.2,15.4c-1.5,0.5-2.9,0.7-4,0.8c-1.9,0.1-3.6-1.3-3.9-3.1
			c-0.3-1.6-0.8-3.6-1.7-5.1c-1.7-3.1-3.9-4.8-5.1-4.2c-1.1,0.6-1,2.6-1,2.6l-0.7,0c0,0-0.1-0.6-0.2-1.5c-0.1-0.9-0.2-1.9-0.2-2.8
			c0-2.1-0.7-4.2-2-5.9c-0.8-1-1.7-2.6-2.7-5c-0.7-1.6-0.8-3.1-0.7-4.5c0.5,1.4,5.1,12.1,17.9,14.8c13.4,2.8,12.1-7.8,12-8.4
			C401.1,221.7,401.3,224,400.9,226.5z"/>
		<path class="st35" d="M351,295.5c0,0-0.7-4.6,0.7-6.5c0.2,0.6,0.3,0.9,0.3,0.9S350.8,292.6,351,295.5z"/>
		<path class="st29" d="M378.3,264L378.3,264c-0.1,0,0.4,5.2-4.6,13.9c-5,8.7-15.5,29.6-20.7,29c-2.7-0.3-3.7-4.7-4.8-5.4
			c-2.4-1.7-4-7.7-6.2-13.8c-1.8-4.8-3.2-11.1-3.6-13.4c-0.1,0.1-0.1,0.2-0.1,0.2c-0.5,0.9-0.7,2-0.4,3.1c1,4.3,2,9.5,3.6,13.9
			c2.4,6.5,5.3,11.5,6.2,13.6c1,2.7,3.8,5.1,7.5,4.2v0c0.2,0,0.3-0.1,0.5-0.1c0.8-0.2,2.1-1.5,3.7-3.5h0c1.7-2.1,3.8-5.1,6-8.5
			c0.5-0.7,12.4-19,13.5-25.2C379.7,266.1,378.5,264.3,378.3,264z"/>
	</g>
	<g>
		<polygon class="st15" points="175.8,384 209.3,404.5 216.3,400.2 182.8,379.8 		"/>
		<polygon class="st5" points="216.3,368.5 216.3,396.4 209.3,400.6 209.3,372.7 		"/>
		<polygon class="st36" points="182.8,348 182.8,375.9 175.8,380.1 175.8,352.3 		"/>
		<polygon class="st5" points="216.3,368.5 216.3,396.4 209.3,400.6 209.3,372.7 		"/>
		<polygon class="st4" points="175.8,352.3 209.3,372.7 216.3,368.5 182.8,348 		"/>
		<polygon class="st36" points="209.3,400.6 175.8,380.1 175.8,352.3 209.3,372.7 		"/>
		<polygon class="st5" points="175.8,352.3 192.5,376.4 209.3,372.7 		"/>
		<path class="st37" d="M202.9,358.4v5.5c0,0.4-0.3,0.7-0.6,0.9c-0.1,0-0.2,0.1-0.3,0.1c-0.5,0-0.9-0.4-0.9-0.9v-5.5
			c0-0.5-0.3-1-0.7-1.3L192,352c-0.2-0.1-0.4-0.1-0.6,0c0,0-0.1,0-0.1,0.1c0,0,0,0,0,0c-0.1,0.1-0.1,0.3-0.1,0.4v4.1
			c0,0.4-0.2,0.7-0.6,0.8c-0.1,0-0.2,0.1-0.3,0.1c-0.5,0-0.9-0.4-0.9-0.9v-4.1c0-0.9,0.5-1.7,1.2-2.1c0.2-0.1,0.4-0.2,0.6-0.2
			c0.6-0.2,1.3-0.1,1.9,0.3l8.4,5.1C202.3,356.1,202.9,357.2,202.9,358.4z"/>
		<polygon class="st38" points="194.4,375.4 194.4,378.3 193.8,378.7 193.8,375.8 		"/>
		<polygon class="st39" points="190.4,373.7 193.8,375.8 194.4,375.4 191,373.4 		"/>
		<polygon class="st40" points="193.8,378.7 190.4,376.6 190.4,373.7 193.8,375.8 		"/>
		<path class="st41" d="M202.9,358.4v5.5c0,0.4-0.3,0.7-0.6,0.9v-5.5c0-2-0.8-2.7-0.8-2.7l-10.4-6.3c0.6-0.2,1.3-0.1,1.9,0.3
			l8.4,5.1C202.3,356.1,202.9,357.2,202.9,358.4z"/>
		<path class="st41" d="M191.2,352.1c-0.1,0.1-0.1,0.3-0.1,0.4v4.1c0,0.4-0.2,0.7-0.6,0.8v-4.2C190.5,352.5,191.1,352.2,191.2,352.1
			z"/>
	</g>
	<g>
		<path class="st17" d="M219.5,355.4c0,0,0.5,2.1,0.8,3.9c0.3,1.8,0.4,4.1,0.6,5.9c0.2,1.9,2,6.4,2.8,7.5c0.8,1.1,2.2,2.4,3.9,2.8
			c2.5,0.6,5.3,0.1,6.1-0.1c1.1-0.4,1.6-1.5,1.6-1.5"/>
		<path class="st17" d="M266,348.5c0,1.2-1.7,2-3.5,2.1c-1.7,0.1-3.7-0.2-5.8-0.8c-2.1-0.6-3-1.1-4.5-1.7c-1.7-0.7-3.3-0.3-3.3-0.3
			s0,0.2,0,0.4c0,0-4.1,0.6-8.1-1.4c0,0,0,0,0,0c0,0,0-0.9,0-1.7c0-0.7,0.2-1.7,0.2-1.7l25.1,4.2V348.5z"/>
		<path class="st42" d="M236,371.9c0,0.2-0.1,0.4-0.1,0.6c-0.2,1.2-0.9,2.1-2.2,2.5c-2.4,0.8-6.7,0.4-8.9-2s-3.7-8.3-3.7-11.9
			c0-3.6-1.9-6.9-1.9-6.9h9.8c0.1,0.1,0.2,0.2,0.2,0.3c1.7,2.4,6.1,11.3,6.5,14.2C236,369.9,236.1,371,236,371.9z"/>
		<path class="st43" d="M236,371.9c0-0.1-0.1-0.1-0.1-0.2c-0.4-2.3-2.7-6.8-3.8-9.2c-1.2-2.4-3.4-6.7-3.4-6.7s0.3-0.5,0.7-1.2
			c1.7,2.4,6.1,11.3,6.5,14.2C236,369.9,236.1,371,236,371.9z"/>
		<path class="st44" d="M235.9,372.5c-0.2,1.2-0.9,2.1-2.2,2.5c-2.4,0.8-6.7,0.4-8.9-2s-3.7-8.3-3.7-11.9c0-3.6-1.9-6.9-1.9-6.9h4
			l0.3,2.1c0,0,0.1,8.3,2.1,12.5c2,4.1,5.6,5,7.2,4.9C234.5,373.6,235.5,373.3,235.9,372.5C235.9,372.5,235.9,372.5,235.9,372.5z"/>
		<path class="st42" d="M266,348.1c-0.1,0.6-0.4,1-0.9,1.3c-1.6,0.7-5.1,0.5-7.2,0c-2.1-0.5-6-2.3-8-2.6c-2.1-0.2-6-0.6-7-0.9
			c-1-0.3-2.1-0.8-2.3-2.8c-0.2-1.9,0.8-3.5,0.8-3.5l1.6,0.1l9.5,0.6l0.2,0c0,0,3.3,1.2,4.8,1.7c1.5,0.5,4.8,1,6.9,3
			c0.4,0.3,0.6,0.6,0.9,1l0,0C265.9,346.9,266,347.6,266,348.1z"/>
		<path class="st43" d="M265.3,346.1c-1.5-1.3-4.8-2.3-7.4-3c-2.7-0.7-5.3-1.5-5.3-1.5s-0.1-0.5-0.1-1.2l0.2,0c0,0,3.3,1.2,4.8,1.7
			c1.5,0.5,4.8,1,6.9,3C264.8,345.5,265.1,345.8,265.3,346.1z"/>
		<path class="st44" d="M266,348.1c-0.1,0.6-0.4,1-0.9,1.3c-1.6,0.7-5.1,0.5-7.2,0c-2.1-0.5-6-2.3-8-2.6c-2.1-0.2-6-0.6-7-0.9
			c-1-0.3-2.1-0.8-2.3-2.8c-0.2-1.9,0.8-3.5,0.8-3.5l1.6,0.1l0,0.5c0,0-1.5,2.1-0.5,3.6s4.7,1.3,6.9,1.6c2.2,0.3,5.5,2.1,8.6,2.6
			C261.1,348.7,264.9,349.1,266,348.1L266,348.1z"/>
		<path class="st28" d="M258.7,288.6c-0.4,1.6-0.7,3.1-1,4.6c0,0,0,0.1,0,0.1c-0.3,1.5-0.5,2.9-0.7,4.2c0,0,0,0.1,0,0.1
			c0,0.1-0.1,0.4-0.1,0.7c0,0.3-0.1,0.7-0.1,1c-0.4,2.7-1.2,8.3-1.8,15.8c0,0.1,0,0.1,0,0.2c-0.3,2.5-0.5,5.9-0.7,9.5
			c0,0.8-0.1,1.7-0.1,2.5c-0.2,4.7-0.4,9.5-0.5,13.1c0,0.9-0.5,1.7-1.3,2.1c-0.6,0.3-1.3,0.5-2.1,0.5c-2.1,0.1-3.8-0.2-5.1-0.7
			c-1.3-0.4-2.2-1-2.9-1.5c-0.7-0.5-1.1-1.4-1.1-2.3c0.1-3,0.3-10.9,0-18.8c-0.4-10-1.2-28.9-1.2-28.9l3.5-31.7l6.6-1.5
			c-0.3-1.8-0.7-4-1-5.4c-0.2-1.1-0.3-1.9-0.3-1.9h12.9c0,0,0,0.2,0,0.5C261.8,254.3,262.5,273.3,258.7,288.6z"/>
		<path class="st45" d="M258.7,288.6c-0.4,1.6-0.7,3.1-1,4.6c0.1-1.1,1.3-11.6,1.8-16.9c0.6-5.6-0.4-23.3-0.4-23.3s1.1-1,2.5-2.1
			C261.8,254.3,262.5,273.3,258.7,288.6z"/>
		<path class="st29" d="M253,255.3c0,0-0.3,18.2-4.7,37c-2.7,11.3-3.2,34-3.2,50.1c-1.3-0.4-2.2-1-2.9-1.5c-0.7-0.5-1.1-1.4-1.1-2.3
			c0.1-3,0.3-10.9,0-18.8c-0.4-10-1.2-28.9-1.2-28.9l3.5-31.7l6.6-1.5c-0.3-1.8-0.7-4-1-5.4L253,255.3z"/>
		<path class="st28" d="M247.5,256.9c0,0,1.1,23-7.6,48.2c0,0,0,0,0,0c-1.6,4-2.9,7.3-3.2,8.7c-0.7,2.8-4,31.4-4.8,38.3
			c-0.1,1.1-0.5,2.2-1.1,3.2c-1.2,1.9-2.9,3.5-6,3.2c-0.9-0.1-1.8-0.3-2.6-0.5c-1.3-0.4-2.5-0.9-3.3-1.3c-0.9-0.4-1.4-1.3-1.4-2.3
			c0.2-7.4,1.2-39.8,1.8-43.8c0.7-4.6,3.5-14.5,4.8-32.8c0.2-2.6,0-5.3-0.8-7.8c-2.3-6.8-0.2-12.7-0.2-12.7s0.8,0.3,1.9,0.7
			c0-1.7-0.1-2.5-0.1-2.5l0.6,0l22.5,0.5L247.5,256.9z"/>
		<path class="st29" d="M232.9,270.5c0.7,6.4-6.7,34.9-7.4,42.3c-0.8,7.3-3.1,45.1-3.1,45.1s0,0,0,0c-1.3-0.4-2.5-0.9-3.3-1.3
			c-0.9-0.4-1.4-1.3-1.4-2.3c0.2-7.4,1.2-39.8,1.8-43.8c0.7-4.6,3.5-14.5,4.8-32.8c0.2-2.6,0-5.3-0.8-7.8
			c-2.3-6.8-0.2-12.7-0.2-12.7s0.8,0.3,1.9,0.7c0-1.7-0.1-2.5-0.1-2.5l0.6,0c4.1,2.3,7.6,4.4,7.6,4.4S232.2,264.1,232.9,270.5z"/>
		<path class="st46" d="M223.1,256.5c0,0-0.2,0.7-0.4,1.8c0,0.3,0.1,0.7,0.4,0.8c0.6,0.4,2.1,1.3,4.9,2.3c3.2,1.2,7.3,1.4,10.4,1.1
			c1.3-0.1,13.7-2.9,21.2-7.6c1.9-1.2,2.8-3.4,2.5-5.6l0,0C261.7,247.8,223.1,256.5,223.1,256.5z"/>
		<path class="st11" d="M271,219.3c-0.5,0.4-1,0.8-1.6,1.1c0,0,0,0-0.1,0c-0.1,0-0.1,0.1-0.2,0.1c-2.6,1.5-5.8,2.4-9,2.9
			c0,1.4-0.1,2.8-0.1,4.1c-0.1,3.1,0.1,6.2,0.7,9.2c0.5,2.6,1,5.8,1.4,8.1c0.7,4.6-0.5,7.9-2.8,9.2c0,0,0,0,0,0c0,0,0,0,0,0
			c-7.3,4.5-15.7,6.6-20.3,7.4c-0.7,0.1-1.5,0.2-2.2,0.3c-1.6,0.1-3.1,0.1-4.7-0.2c-0.6-0.1-1.3-0.2-1.9-0.4l-0.6-0.2
			c-0.7-0.2-1.4-0.5-2-0.9c-3-1.9-3.2-3.3-3.4-5c-0.2-1.5,1.8-8.8,2.1-11.3c0.1-0.6,0.1-1,0.1-1c0-0.2,0-0.4,0.1-0.6
			c0.1-0.9,0.1-1.8,0.1-2.5c0,0,0,0,0-0.1c0-0.6-0.1-1.1-0.3-1.6c0-0.1-0.1-0.3-0.2-0.5c0,0,0,0,0,0c0,0,0-0.1,0-0.2
			c-3-1.3-5.5-4.8-8.4-11.4c-2.8-6.3-2.5-19.5-1.6-24.8c0.1-0.8,0.3-1.4,0.4-1.8c0.5-1.4,2-3.1,3.7-4.6c0,0,0,0,0,0
			c1.7-1.6,3.7-3,5-3.8c0.1,0,0.1-0.1,0.2-0.1c1.2-0.7,2.2-1.4,3.8-2.2c1.3-0.6,2.9-1.4,5.3-2.3c0.8-0.3,1.7-0.6,2.6-0.9
			c1.6-0.5,3.2-0.9,4.9-1.2c2.6-0.5,5.1-1,7.6-1.4c0.4,0,0.9,0,1.3,0c6.4,0.4,11.9,4.5,14.8,10.1c2.4,4.7,5.6,11.8,6.3,16.5
			C272.8,215.3,272.4,217.8,271,219.3z"/>
		<path class="st47" d="M255,223.5c-2.6,2.4-7.9,6.9-13.8,9.3c-5.1,2.1-9.7,2.3-12.3,2.2c-1.1,0.1-2,0-2.5-0.2
			c-1.7-0.8-4.3-3.7-6.7-11.3c-2-6.3-1.4-17-0.3-23.6c3.8-6.5,9.7-7.2,9.7-7.2l0,0c2.7,0.7,5,0.3,6.7-0.2c1.8-0.6,3.8-0.6,5.5,0.2
			c2.3,1,4.3,1.5,4.3,1.5l1.6,1.2l1.1,17.4l1.9-4.4l-1.4-14.8l-5.5-7.1l-6.1-0.7c-0.9,0.3-1.7,0.6-2.6,0.9c-3.7,1.5-5.7,2.5-7.3,3.4
			c-0.1,0-0.1,0.1-0.2,0.1c-0.2,0.1-0.4,0.2-0.6,0.4c-0.2,0.1-0.4,0.3-0.7,0.4c-0.1,0.1-0.3,0.2-0.4,0.3c-0.1,0-0.1,0.1-0.2,0.1
			c-1.3,0.8-3.3,2.2-5,3.8c0,0,0,0,0,0c-1.7,1.5-3.2,3.2-3.7,4.6c0,0.1-0.1,0.2-0.1,0.3c-0.1,0.4-0.2,0.9-0.3,1.5c0,0,0,0,0,0
			c-0.9,5.2-1.2,18.5,1.6,24.8c2.9,6.5,5.4,10,8.4,11.4c0,0,15.6,2.2,29.5-14C255.4,223.5,255.2,223.5,255,223.5z"/>
		<path class="st48" d="M235.7,177.4v6.9c0,0,7,5.1,10.7,4.3c1.6-0.3,2.4-2.4,2.1-5.3l-3.4-0.7L235.7,177.4z"/>
		<path class="st11" d="M247.3,188.2l2.8,3.7c0,0,1.4-4.7-1.3-7.5c-2.6-2.8-2.7-0.4-2.7-0.4S248.6,186.8,247.3,188.2z"/>
		<path class="st23" d="M255.1,168.3c0,0,0.6,5.7-0.6,11c-1.2,5.3-1.5,6.4-3.7,7.4c-2.1,0.9-4,1-7.6-1.3c-3.6-2.3-5.5-6-5.5-6
			s-0.5,0.3-1.8-1.1c-2-2.2-2.4-3.4-2.4-6.4c0-3,0.8-6.9,3.1-10.9c2.4-4,9.7-2.7,13-1C253,161.7,254.5,164.9,255.1,168.3z"/>
		<path class="st32" d="M258,168.5c-3.6,6.4-12.7,2.2-12.7,2.2c-0.7,2.8-2.6,3.1-3.6,3.6c-0.9,0.5-1.1,3.2-1.1,3.2h-0.9
			c0,0,0-2.7-0.5-4.1c-0.4-1.4-3-2.4-4.2-0.4c-1.1,1.8,0.2,3.8,0.9,5.2c0.2,2.3-0.2,3.3-0.2,3.3s-1.4-1.4-2.3-4.2
			c-0.9-2.8-1.6-8.6,0-14.9c0.2-0.7,0.4-1.3,0.7-1.8c2.8-4.7,10.7-5.6,13.8-4.6c2.7,0.9,9.3,3.9,10.6,8.2
			C259,165.7,258.8,167,258,168.5z"/>
		<path class="st28" d="M258.3,296.7c0,0.3-0.1,0.7-0.1,1C258.2,297.3,258.2,297,258.3,296.7z"/>
		<path class="st28" d="M258.4,295.9c0,0,0,0.1,0,0.1C258.4,295.9,258.4,295.9,258.4,295.9z"/>
		<path class="st49" d="M230.2,215.9c0,0-1.4-5.9-1.2-9.7c0.2-3.9,2.3-0.4,2.5,2.7c0.2,3.2,2.1,10,2.1,10"/>
		<path class="st11" d="M235.7,183.6c0,0-0.4,0.6-0.8,1.4c-0.3,0.7-0.5,1.6-0.5,1.6s3.7,4.4,11.6,6.9l0.1-4.8
			C246.1,188.6,239.2,187.7,235.7,183.6z"/>
		<path class="st23" d="M240.7,220.4c0,0-2.9-0.3-8.3,2c-1.2-2.9-1.9-5.1-2.1-6.5c0-0.1,0.1-0.1,0.1-0.2c1.5-2.4,9.7-0.9,9.7-0.9
			L240.7,220.4z"/>
		<path class="st23" d="M259.5,211.1c-1.6,0-3.8,0.3-5.7,0.5c0.1-0.5,0.3-6.3,4.7-6.8c0.4,1.9,0.6,3.6,0.8,4.8
			c0,0.3,0.1,0.5,0.1,0.7c0,0.2,0,0.4,0.1,0.5C259.5,211,259.5,211.1,259.5,211.1z"/>
		<path class="st16" d="M260.1,223.5c0,0-0.6,1-2,2.6v0c-1.9,2.3-5.1,5.7-9.8,9c-1.2,0.9-2.5,1.7-3.9,2.5c-0.1,0-0.2,0.1-0.2,0.1
			c-6.2,3.6-10.3,10-11,17.2c-0.2,2.2-0.3,4.1,0,4.8c0.6,1.5,2.5,2,3.6,2.2c-1.6,0.1-3.1,0.1-4.7-0.2c-0.6-0.1-1.3-0.2-1.9-0.4
			l-0.6-0.2c-0.7-0.2-1.4-0.5-2-0.9c-3-1.9-3.2-3.3-3.4-5c-0.2-1.5,1.8-8.8,2.1-11.3c0.1-0.6,0.1-1,0.1-1c0.1-1.1,0.2-2.2,0.1-3.1
			c0,0,0,0,0-0.1c0-0.6-0.1-1.1-0.3-1.6c0-0.1-0.1-0.3-0.2-0.5c0,0,0,0,0,0c0,0,0-0.1,0-0.2c0,0,9.7,1.3,20.6-6c3-2,6-4.6,8.9-8
			c0,0,0.2,0,0.4,0C256.9,223.6,259.2,223.6,260.1,223.5z"/>
		<path class="st16" d="M226.5,242c0,0-4.4,11.9-4.2,14.9c0.2,3.1,9.8,4.7,9.8,4.7l-4.1-11L226.5,242z"/>
		<path class="st49" d="M255.3,195.2c0,0,0.6-0.8,1.9,1s5.9,12.7,6,15s-14,1.1-14,1.1s6.6-1.1,10.3-1.2
			C259.5,211.1,258.2,199.2,255.3,195.2z"/>
		<path class="st47" d="M232.3,222.5c0,0-1.5,1.7-1.2,2.8c0.3,1,2-0.6,5.7-1.4c3.7-0.8,14.4-0.7,14.4-0.7s-8.6-1.9-10.4-1.8
			l-0.1-0.9C240.7,220.4,236.8,220.1,232.3,222.5z"/>
		<path class="st28" d="M246.1,188.6l-0.1,4.8l1.7,1.5l2.3-0.8v-2.3l-2.8-3.7C247.3,188.2,247.1,188.5,246.1,188.6z"/>
		<path class="st28" d="M248.2,212.6c-0.2-9.5-0.5-17.6-0.5-17.6l2.3-0.8c0.8,3.6,1.9,10.3,2.9,17.5
			C253,211.8,251.1,212.1,248.2,212.6z"/>
		<path class="st28" d="M256.5,238.1l-2.4,6.2c-0.1,0.3-0.5,0.5-0.8,0.2l-4.4-3.7c-0.5-0.4-0.7-0.9-0.7-1.5c0.1-1.2,0.1-2.7,0.2-4.4
			c0-1.5,0.1-3.1,0.1-4.8v0c0.3-0.2,0.6-0.4,0.9-0.7c0.3-0.2,0.5-0.4,0.8-0.7c0.5-0.5,1.2-1,1.8-1.6c0.3-0.3,0.7-0.6,1-1
			c0.2-0.2,0.4-0.4,0.6-0.6c0.3-0.3,0.6-0.7,1-1c0.1-0.1,0.3-0.3,0.4-0.4c0.2,1.6,0.5,3.2,0.6,4.6c0.5,3.9,0.9,6.9,1.1,8.1
			C256.6,237.4,256.6,237.8,256.5,238.1z"/>
		<path class="st16" d="M255.5,229c-1.8,1.9-4.2,4-7.2,6.1c0-1.5,0.1-3.1,0.1-4.8v0c0.3-0.2,0.6-0.4,0.9-0.7c1.2-1.1,2.4-2,3.6-3.2
			c0.2-0.2,0.4-0.4,0.6-0.6c0.3-0.3,0.6-0.7,1-1c0.1-0.1,0.3-0.3,0.4-0.4C255.1,226,255.3,227.6,255.5,229z"/>
		<path class="st18" d="M258,168.5c-3.6,6.4-12.7,2.2-12.7,2.2c-0.7,2.8-2.6,3.1-3.6,3.6c-0.9,0.5-1.1,3.2-1.1,3.2h-0.9
			c0,0,0-2.7-0.5-4.1c-0.4-1.4-3-2.4-4.2-0.4c-1.1,1.8,0.2,3.8,0.9,5.2c0.2,2.3-0.2,3.3-0.2,3.3s-1.4-1.4-2.3-4.2
			c-0.9-2.8-1.6-8.6,0-14.9c0.2-0.7,0.4-1.3,0.7-1.8c1.5,1.3,5.9,4.9,10.5,6.8c5.7,2.4,10.1,1.9,11.5,0.7c1.4-1.2,2.2-2.2,2.4-3.7
			l0,0C259,165.7,258.8,167,258,168.5z"/>
	</g>
	<g>
		<path class="st18" d="M132.3,255.8c0-0.3,0.1-0.6,0.1-1C132.4,255.1,132.4,255.4,132.3,255.8z"/>
		<path class="st18" d="M132.6,254.1c0,0,0-0.1,0-0.1C132.6,254,132.6,254,132.6,254.1z"/>
	</g>
	<g>
		<path class="st15" d="M350.5,493.8c0.2-0.1,0.2-0.4,0-0.5l-21.3-13.1c0,0,0,0,0,0c0,0,0,0,0,0L329,480c0,0-0.1,0-0.1-0.1
			c-0.2-0.1-0.4-0.2-0.7-0.2c-0.4,0-0.9,0-1.3,0.2l-3.2-2c1.7-1.4,2.8-3.1,2.8-5l0.1-2.7c0.1-5-6.6-9.2-15-9.4
			c-8.4-0.2-15.3,3.5-15.6,8.4l0,0v0.1c0,0,0,0,0,0l-0.1,2.7c0,0,0,0,0,0l0,0.4l0,0c0.2,4.8,6.8,8.8,15,9c3.5,0.1,6.8-0.5,9.4-1.6
			c0,0.1,0.1,0.1,0.2,0.2c0.1,0,0.1,0.1,0.2,0.1l4.3,2.7c0,0.5,0,0.9,0.2,1.3c0.2,0.4,0.4,0.7,0.7,1c0.1,0.1,0.2,0.2,0.4,0.2
			l18.3,11.2c0.4,0.2,0.8,0.2,1.2,0C346.9,495.9,349.5,494.4,350.5,493.8z M311,477.4c-7.1-0.2-12.8-3.8-12.7-7.9
			c0,0,0.3-1.2,1.5-2.6c-0.6,0.8-1,1.7-1,2.7c0,0.2,0,0.5,0,0.7c0,0.1,0,0.1,0,0.2c0,0.2,0.1,0.3,0.1,0.5c0,0.1,0,0.1,0.1,0.2
			c0,0.2,0.1,0.3,0.2,0.4c0,0.1,0.1,0.1,0.1,0.2c0.1,0.2,0.2,0.3,0.3,0.5c0,0.1,0.1,0.1,0.1,0.2c0.1,0.2,0.3,0.4,0.5,0.6
			c0,0.1,0.1,0.1,0.2,0.2c0.1,0.1,0.2,0.3,0.4,0.4c0.1,0.1,0.2,0.2,0.3,0.3c0.1,0.1,0.1,0.1,0.2,0.2c1.1,0.9,2.5,1.6,4.2,2.2
			c1.7,0.5,3.6,0.9,5.6,0.9c6.9,0.2,12.5-2.8,12.6-6.8c0.1-2.5-2.1-4.8-5.4-6.1c-0.1,0-0.1,0-0.2-0.1c-0.4-0.1-0.7-0.3-1.1-0.4
			c4,1.1,5.9,3.3,6.8,4.8c0.2,0.6,0.3,1.1,0.3,1.7C324,474.4,318.2,477.6,311,477.4z"/>
		<path class="st50" d="M326.9,463.1l-3.6-3.8l-10.4-2.6l-10.6,2l-3.8,3.5l-1,2.2l1.5,0.5c0,0,1.8-7.2,13.9-6.8
			c12.1,0.4,13.4,7.6,13.4,7.6l1.5-0.4L326.9,463.1z"/>
		<path class="st16" d="M327.7,466.2c-0.6-1.3-1.6-2.6-3-3.7c0.7,1,1.1,2.1,1,3.2c-0.1,4.3-6.2,7.7-13.7,7.5
			c-7.4-0.2-13.3-3.9-13.2-8.3c0-1.1,0.5-2.2,1.2-3.1c-1.6,1.1-2.8,2.4-3.4,3.8l-0.4-0.9l-0.1,2.9c0,0,0,0,0,0c0,0,0,0,0,0l0,0.4
			l0,0c0.2,5,7.1,9.1,15.7,9.4c8.8,0.3,16.1-3.7,16.2-8.9l0.1-2.8L327.7,466.2z"/>
		<path class="st51" d="M312.6,456c-8.8-0.3-16.1,3.7-16.2,8.9c0,0.5,0,0.9,0.1,1.4c1,4.5,7.5,8.2,15.5,8.4c8,0.2,14.7-3,16-7.5
			c0.1-0.5,0.2-0.9,0.2-1.4C328.4,460.7,321.4,456.3,312.6,456z M312.1,473.2c-7.4-0.2-13.3-3.9-13.2-8.3c0-1.1,0.5-2.2,1.2-3.1
			c2.2-2.7,6.9-4.5,12.4-4.3c5.5,0.2,10.1,2.2,12.1,5.1c0.7,1,1.1,2.1,1,3.2C325.6,470.1,319.5,473.5,312.1,473.2z"/>
		<path class="st11" d="M312.6,456c-8.8-0.3-16.1,3.7-16.2,8.9c0,0.5,0,0.9,0.1,1.4c1,4.5,7.5,8.2,15.5,8.4c8,0.2,14.7-3,16-7.5
			c0.1-0.5,0.2-0.9,0.2-1.4C328.4,460.7,321.4,456.3,312.6,456z M312.1,473.2c-7.4-0.2-13.3-3.9-13.2-8.3c0-1.1,0.5-2.2,1.2-3.1
			c2.2-2.7,6.9-4.5,12.4-4.3c5.5,0.2,10.1,2.2,12.1,5.1c0.7,1,1.1,2.1,1,3.2C325.6,470.1,319.5,473.5,312.1,473.2z"/>
		<path class="st16" d="M330.2,476.9l-0.3,0.5c0,0,0,0,0,0l-1.4,2l-0.4,0.5l-6-3.7l0,0c-0.1,0-0.2-0.1-0.2-0.1
			c-0.2-0.1-0.3-0.3-0.4-0.6c0-0.1-0.1-0.2-0.1-0.4l0,0c-0.1-0.4,0-0.8,0.2-1.2c0.2-0.5,0.6-0.8,1-1c0.2-0.1,0.5-0.1,0.7-0.1
			c0.1,0,0.3,0,0.4,0.1c0,0,0,0,0.1,0l0.1,0.1c0,0,0,0,0,0L330.2,476.9z"/>
		<path class="st11" d="M330.2,476.9l-0.3,0.5c0,0,0,0,0,0l-7.2-4.5c0.2-0.1,0.5-0.1,0.7-0.1c0.1,0,0.3,0,0.4,0.1c0,0,0,0,0.1,0
			l0.1,0.1c0,0,0,0,0,0L330.2,476.9z"/>
		<path class="st50" d="M328.5,479.4l-0.4,0.5l-6-3.7l0,0c-0.1,0-0.2-0.1-0.2-0.1c-0.2-0.1-0.3-0.3-0.4-0.6c0-0.1-0.1-0.2-0.1-0.4
			L328.5,479.4z"/>
		<path class="st52" d="M349.3,487.4l-0.9,1.5l-2.2,3.9l-18.2-11.3c0,0,0,0,0,0l0,0c-0.1-0.1-0.3-0.1-0.4-0.2
			c-0.3-0.3-0.6-0.6-0.7-1c-0.3-0.8-0.3-1.8,0.2-2.7c0.2-0.3,0.4-0.7,0.6-0.9c0,0,0,0,0,0c0.7-0.7,1.5-1.1,2.4-1
			c0.2,0,0.5,0.1,0.7,0.2c0,0,0.1,0,0.1,0.1l0.1,0.1c0,0,0,0,0.1,0c0,0,0,0,0,0L349.3,487.4z"/>
		<path class="st53" d="M349.3,487.4l-0.9,1.5l-2.2-0.7l-18.6-11.5c0,0,0,0,0,0c0,0,0,0,0,0c0.7-0.7,1.5-1.1,2.4-1
			c0.2,0,0.5,0.1,0.7,0.2c0,0,0.1,0,0.1,0.1l0.1,0.1c0,0,0,0,0.1,0c0,0,0,0,0,0L349.3,487.4z"/>
		<path class="st54" d="M350.2,491.3c-0.8,1.6-2.4,2.4-3.6,1.8l0,0c-0.1-0.1-0.3-0.1-0.4-0.2c-0.3-0.3-0.6-0.6-0.7-1
			c-0.3-0.8-0.3-1.8,0.2-2.7c0.6-1.3,1.9-2.1,3-2c0.2,0,0.5,0.1,0.7,0.2c0,0,0.1,0,0.1,0.1l0.1,0.1c0,0,0,0,0,0
			C350.6,488.3,350.9,489.9,350.2,491.3z"/>
		
			<ellipse transform="matrix(2.940626e-02 -0.9996 0.9996 2.940626e-02 -162.0254 764.0078)" class="st55" cx="312.4" cy="465.4" rx="7.4" ry="12.9"/>
		<path class="st55" d="M319.7,459.4c-12.9,0.3-16.6,6.6-17.7,10.2c-1.6-1.3-2.6-2.9-2.5-4.6c0.1-4.1,6-7.3,13.2-7
			C315.2,458.1,317.7,458.6,319.7,459.4z"/>
		<path class="st56" d="M324.7,465.8c-0.1,3.9-5.7,6.9-12.5,6.7c-6.8-0.2-12.2-3.5-12.1-7.4c0-0.1,0-0.2,0-0.3
			c0.4,3.7,5.6,6.7,12,6.9c6.6,0.2,12-2.6,12.4-6.3C324.7,465.4,324.7,465.6,324.7,465.8z"/>
	</g>
	<g>
		<g>
			<g>
				<path class="st57" d="M324.7,121.4v36.4c0,1-0.5,1.9-1.3,2.5c0,0-0.1,0.1-0.1,0.1l-11.9,7.3l-24.6,15.1c-0.4,0.3-0.9,0.2-1.3,0
					l-4.8-3c-0.4-0.3-0.7-0.7-0.7-1.2v-35.2c0-1.4,0.7-2.7,1.9-3.4l36.1-22.3c0.5-0.3,1.1-0.3,1.5,0l4.6,2.8c0.1,0,0.1,0.1,0.2,0.1
					C324.6,120.8,324.7,121.1,324.7,121.4z"/>
				<path class="st9" d="M324.7,121.4v36.4c0,1-0.5,1.9-1.3,2.5c0,0-0.1,0.1-0.1,0.1l-11.9,7.3l-24.6,15.1c-0.4,0.3-0.9,0.2-1.3,0
					c-0.3-0.2-0.5-0.6-0.5-1v-35.5c0-1.3,0.7-2.5,1.8-3.2l36.6-22.5c0.3-0.2,0.6-0.2,0.8-0.1c0.1,0,0.1,0.1,0.2,0.1
					C324.6,120.8,324.7,121.1,324.7,121.4z"/>
			</g>
			<path class="st11" d="M306.7,144l2.4,3.6c0.1,0.2,0.4,0.3,0.7,0.2l5.3-2c0.5-0.2,1,0.4,0.7,0.8l-4.2,6.3
				c-0.1,0.1-0.1,0.3-0.1,0.4l1.1,5.7c0.1,0.3-0.2,0.7-0.5,0.7l-5.6,0c-0.2,0-0.3,0.1-0.4,0.2l-5.2,5.4c-0.4,0.4-1,0.1-0.9-0.5
				l0.9-5.8c0-0.2-0.1-0.5-0.3-0.6l-4-1.8c-0.4-0.2-0.4-0.7-0.1-1l6.3-4.3c0.1-0.1,0.2-0.2,0.2-0.3l2.8-7.2
				C305.9,143.7,306.4,143.7,306.7,144z"/>
		</g>
		<g>
			<g>
				<path class="st58" d="M156,268.9v24.5c0,0.7-0.3,1.3-0.9,1.7c0,0,0,0-0.1,0l-8,4.9l-16.6,10.2c-0.3,0.2-0.6,0.2-0.9,0l-3.2-2
					c-0.3-0.2-0.5-0.5-0.5-0.8v-23.7c0-0.9,0.5-1.8,1.3-2.3l24.3-15c0.3-0.2,0.7-0.2,1,0l3.1,1.9c0,0,0.1,0,0.1,0.1
					C155.9,268.5,156,268.7,156,268.9z"/>
				<path class="st59" d="M156,268.9v24.5c0,0.7-0.3,1.3-0.9,1.7c0,0,0,0-0.1,0l-8,4.9l-16.6,10.2c-0.3,0.2-0.6,0.2-0.9,0
					c-0.2-0.1-0.4-0.4-0.4-0.7v-23.9c0-0.9,0.5-1.7,1.2-2.1l24.6-15.2c0.2-0.1,0.4-0.1,0.5,0c0,0,0.1,0,0.1,0.1
					C155.9,268.5,156,268.7,156,268.9z"/>
			</g>
			<g>
				<path class="st11" d="M146.4,282.8c0,1.9-1.6,4.5-3.5,5.6c-1.9,1.2-3.5,0.5-3.5-1.4c0-1.9,1.6-4.5,3.5-5.6
					C144.8,280.2,146.4,280.9,146.4,282.8z"/>
				<path class="st11" d="M150.8,292.4l-15.9,9.6c0-4.4,3.6-10.1,7.9-12.7c2.2-1.3,4.2-1.6,5.6-1
					C149.9,288.8,150.8,290.3,150.8,292.4z"/>
			</g>
		</g>
		<g>
			<g>
				<g>
					<path class="st60" d="M156,351.3v24.5c0,0.7-0.3,1.3-0.9,1.7c0,0,0,0-0.1,0l-8,4.9l-16.6,10.2c-0.3,0.2-0.6,0.2-0.9,0l-3.2-2
						c-0.3-0.2-0.5-0.5-0.5-0.8v-23.7c0-0.9,0.5-1.8,1.3-2.3l24.3-15c0.3-0.2,0.7-0.2,1,0l3.1,1.9c0,0,0.1,0,0.1,0.1
						C155.9,350.8,156,351,156,351.3z"/>
					<path class="st61" d="M156,351.3v24.5c0,0.7-0.3,1.3-0.9,1.7c0,0,0,0-0.1,0l-8,4.9l-16.6,10.2c-0.3,0.2-0.6,0.2-0.9,0
						c-0.2-0.1-0.4-0.4-0.4-0.7V368c0-0.9,0.5-1.7,1.2-2.1l24.6-15.2c0.2-0.1,0.4-0.1,0.5,0c0,0,0.1,0,0.1,0.1
						C155.9,350.8,156,351,156,351.3z"/>
					<path class="st62" d="M122.4,339.9v24.5c0,0.7-0.3,1.3-0.9,1.7c0,0,0,0-0.1,0l-8,4.9l-16.6,10.2c-0.3,0.2-0.6,0.2-0.9,0
						c-0.2-0.1-0.4-0.4-0.4-0.7v-23.9c0-0.9,0.5-1.7,1.2-2.1l24.6-15.2c0.2-0.1,0.4-0.1,0.5,0c0,0,0.1,0,0.1,0.1
						C122.3,339.5,122.4,339.7,122.4,339.9z"/>
				</g>
			</g>
			<g>
				<polygon class="st11" points="151.2,361 151.2,362.7 143.3,372.1 135.3,372.7 135.3,371 				"/>
				<polygon class="st11" points="143.3,373 151.2,363.7 151.2,372.4 135.3,382.4 135.3,373.7 				"/>
			</g>
		</g>
		<g>
			<g>
				<g>
					<g>
						<path class="st63" d="M108,151.7v24.5c0,0.7-0.3,1.3-0.9,1.7c0,0,0,0-0.1,0l-8,4.9l-16.6,10.2c-0.3,0.2-0.6,0.2-0.9,0l-3.2-2
							c-0.3-0.2-0.5-0.5-0.5-0.8v-23.7c0-0.9,0.5-1.8,1.3-2.3l24.3-15c0.3-0.2,0.7-0.2,1,0l3.1,1.9c0,0,0.1,0,0.1,0.1
							C107.8,151.3,108,151.5,108,151.7z"/>
						<path class="st64" d="M108,151.7v24.5c0,0.7-0.3,1.3-0.9,1.7c0,0,0,0-0.1,0l-8,4.9l-16.6,10.2c-0.3,0.2-0.6,0.2-0.9,0
							c-0.2-0.1-0.4-0.4-0.4-0.7v-23.9c0-0.9,0.5-1.7,1.2-2.1l24.6-15.2c0.2-0.1,0.4-0.1,0.5,0c0,0,0.1,0,0.1,0.1
							C107.8,151.3,108,151.5,108,151.7z"/>
						<path class="st65" d="M130.2,111.1v17.2c0,0.5-0.2,0.9-0.6,1.2c0,0,0,0-0.1,0l-5.6,3.5l-11.6,7.1c-0.2,0.1-0.4,0.1-0.6,0
							c-0.1-0.1-0.3-0.3-0.3-0.5v-16.7c0-0.6,0.3-1.2,0.8-1.5l17.2-10.6c0.1-0.1,0.3-0.1,0.4,0c0,0,0.1,0,0.1,0
							C130.1,110.8,130.2,110.9,130.2,111.1z"/>
						<path class="st65" d="M251.5,36.4v17.2c0,0.5-0.2,0.9-0.6,1.2c0,0,0,0-0.1,0l-5.6,3.5l-11.6,7.1c-0.2,0.1-0.4,0.1-0.6,0
							c-0.1-0.1-0.3-0.3-0.3-0.5V48.2c0-0.6,0.3-1.2,0.8-1.5L250.9,36c0.1-0.1,0.3-0.1,0.4,0c0,0,0.1,0,0.1,0
							C251.4,36.1,251.5,36.3,251.5,36.4z"/>
						<path class="st66" d="M287,3.9v25.7c0,0.7-0.3,1.3-0.9,1.7c0,0-0.1,0-0.1,0.1l-8.4,5.2l-17.3,10.7c-0.3,0.2-0.7,0.2-0.9,0
							c-0.2-0.1-0.4-0.4-0.4-0.7v-25c0-0.9,0.5-1.7,1.2-2.2l25.8-15.9c0.2-0.1,0.4-0.1,0.6-0.1c0,0,0.1,0,0.1,0.1
							C286.9,3.4,287,3.6,287,3.9z"/>
						<path class="st66" d="M109.6,365.5v25.7c0,0.7-0.3,1.3-0.9,1.7c0,0-0.1,0-0.1,0.1l-8.4,5.2l-17.3,10.7c-0.3,0.2-0.7,0.2-0.9,0
							c-0.2-0.1-0.4-0.4-0.4-0.7v-25c0-0.9,0.5-1.7,1.2-2.2l25.8-15.9c0.2-0.1,0.4-0.1,0.6-0.1c0,0,0.1,0,0.1,0.1
							C109.5,365.1,109.6,365.3,109.6,365.5z"/>
					</g>
				</g>
			</g>
			<g>
				<path class="st11" d="M93.8,182.5l-7.2-2.9c-0.7-0.3-0.7-1.4,0-2.4c0.7-1.1,1.8-1.7,2.4-1.5l4.1,1.6l8-17.7c0.5-1.1,1.6-2,2.4-2
					c0.8,0,1.1,0.9,0.6,2L93.8,182.5z"/>
			</g>
		</g>
		<g>
			<path class="st67" d="M446.3,174.6v24.5c0,0.7-0.3,1.3-0.9,1.7c0,0,0,0-0.1,0l-8,4.9L420.7,216c-0.3,0.2-0.6,0.2-0.9,0l-3.2-2
				c-0.3-0.2-0.5-0.5-0.5-0.8v-23.7c0-0.9,0.5-1.8,1.3-2.3l24.3-15c0.3-0.2,0.7-0.2,1,0l3.1,1.9c0,0,0.1,0,0.1,0.1
				C446.2,174.2,446.3,174.4,446.3,174.6z"/>
			<path class="st68" d="M446.3,174.6v24.5c0,0.7-0.3,1.3-0.9,1.7c0,0,0,0-0.1,0l-8,4.9L420.7,216c-0.3,0.2-0.6,0.2-0.9,0
				c-0.2-0.1-0.4-0.4-0.4-0.7v-23.9c0-0.9,0.5-1.7,1.2-2.1l24.6-15.2c0.2-0.1,0.4-0.1,0.5,0c0,0,0.1,0,0.1,0.1
				C446.2,174.2,446.3,174.4,446.3,174.6z"/>
			<path class="st55" d="M474,180.5v29.2c0,0.8-0.4,1.5-1,2c0,0-0.1,0-0.1,0.1l-9.6,5.9l-19.7,12.2c-0.3,0.2-0.7,0.2-1,0
				c-0.2-0.2-0.4-0.5-0.4-0.8v-28.5c0-1,0.5-2,1.4-2.5l29.4-18.1c0.2-0.1,0.5-0.1,0.7-0.1c0,0,0.1,0,0.1,0.1
				C473.9,180,474,180.2,474,180.5z"/>
			<path class="st55" d="M314.9,10.1v29.2c0,0.8-0.4,1.5-1,2c0,0-0.1,0-0.1,0.1l-9.6,5.9l-19.7,12.2c-0.3,0.2-0.7,0.2-1,0
				c-0.2-0.2-0.4-0.5-0.4-0.8V30.2c0-1,0.5-2,1.4-2.5l29.4-18.1c0.2-0.1,0.5-0.1,0.7-0.1c0,0,0.1,0,0.1,0.1
				C314.7,9.7,314.9,9.9,314.9,10.1z"/>
			<path class="st55" d="M298.9,232.2v29.2c0,0.8-0.4,1.5-1,2c0,0-0.1,0-0.1,0.1l-9.6,5.9l-19.7,12.2c-0.3,0.2-0.7,0.2-1,0
				c-0.2-0.2-0.4-0.5-0.4-0.8v-28.5c0-1,0.5-2,1.4-2.5l29.4-18.1c0.2-0.1,0.5-0.1,0.7-0.1c0,0,0.1,0,0.1,0.1
				C298.8,231.7,298.9,232,298.9,232.2z"/>
			<ellipse class="st11" cx="427.1" cy="199.9" rx="2" ry="2.3"/>
			<ellipse class="st11" cx="433.6" cy="195.9" rx="2" ry="2.3"/>
			<ellipse class="st11" cx="440.1" cy="191.8" rx="2" ry="2.3"/>
		</g>
	</g>
	<g>
		<g>
			<ellipse class="st15" cx="303.2" cy="411.3" rx="11.6" ry="5.9"/>
			<path class="st69" d="M291.6,401.6v5.9c0,3.3,5.2,5.9,11.6,5.9c6.4,0,11.6-2.6,11.6-5.9v-5.9H291.6z"/>
			<ellipse class="st9" cx="303.2" cy="401.6" rx="11.6" ry="5.9"/>
			<ellipse class="st11" cx="303.2" cy="401.6" rx="5.2" ry="2.7"/>
		</g>
		<g>
			<ellipse class="st15" cx="280" cy="425.3" rx="11.6" ry="5.9"/>
			<path class="st70" d="M268.4,415.5v5.9c0,3.3,5.2,5.9,11.6,5.9c6.4,0,11.6-2.6,11.6-5.9v-5.9H268.4z"/>
			<ellipse class="st10" cx="280" cy="415.5" rx="11.6" ry="5.9"/>
			<polygon class="st11" points="277.9,411 286.9,416.5 274.3,418.1 			"/>
		</g>
		<g>
			<ellipse class="st15" cx="326.5" cy="397.3" rx="11.6" ry="5.9"/>
			<path class="st67" d="M314.8,387.6v5.9c0,3.3,5.2,5.9,11.6,5.9c6.4,0,11.6-2.6,11.6-5.9v-5.9H314.8z"/>
			<ellipse class="st68" cx="326.5" cy="387.6" rx="11.6" ry="5.9"/>
			<polygon class="st11" points="319.3,385.9 328.3,391.4 331.9,384.2 			"/>
		</g>
	</g>
</g>
</svg>
