<?xml version="1.0" encoding="utf-8"?>
<!-- Generator: Adobe Illustrator 21.0.2, SVG Export Plug-In . SVG Version: 6.00 Build 0)  -->
<svg version="1.1" id="Layer_1" xmlns="http://www.w3.org/2000/svg" xmlns:xlink="http://www.w3.org/1999/xlink" x="0px" y="0px"
	 viewBox="0 0 600 600" style="enable-background:new 0 0 600 600;" xml:space="preserve">
<style type="text/css">
	.st0{display:none;}
	.st1{display:inline;fill:#4AACDD;}
	.st2{fill:#A5B2BE;}
	.st3{fill:#FFFFFF;}
	.st4{enable-background:new    ;}
	.st5{fill:#6FBEF2;}
	.st6{fill:#E0EFFF;}
	.st7{fill:#82D177;}
	.st8{fill:#9FA8B7;}
	.st9{fill:#7A8299;}
	.st10{fill:#DCDCDC;}
	.st11{fill:#BABCBE;}
	.st12{fill:#7DB8D8;}
	.st13{fill:#4192B5;}
	.st14{fill:#FCFCFC;}
	.st15{fill:#D63D1A;}
	.st16{fill:#AA220C;}
	.st17{fill:#E85E38;}
	.st18{fill:#F0BA32;}
	.st19{fill:#B27700;}
	.st20{fill:#E8A923;}
</style>
<g id="BACKGROUND" class="st0">
	<rect x="50" y="50" class="st1" width="500" height="500"/>
</g>
<g id="DESIGNED_BY_FREEPIK">
</g>
<g>
	<polygon class="st2" points="0,258.7 112.6,313.1 187.8,367 292.4,419.4 372.8,473.6 367.2,365.2 120,250 	"/>
	<g>
		<g>
			<path class="st3" d="M520.4,278.4l-2.4-1.9L517,276l-103-43.2l-73.3-58.2l-2.4-1.9l-1.1-0.5l-109.4-45.9L0,258.7l5.4,2.2l0.9,0.4
				L112.6,306l75.7,60.1l104.1,43.7l80.4,63.9l227.2-132L520.4,278.4z"/>
			<g>
				<g class="st4">
					<g>
						<path class="st5" d="M357.9,206c-0.2-0.1-0.3-0.2-0.5-0.3l-4.8-5.9c-3.1-1.2-7.1-0.9-9.9,0.6c-2.8,1.5-4,4.2-3,6.4
							c1.2,2.7,4.8,4.4,7.1,6.8c5.6,5.8,1.8,13.8,5.3,20.3c0.5,1,1.5,2,2.7,2.7c1.2,0.7,2.7,1.1,4.2,0.7c2.1-0.5,3.1-2.2,3-3.6
							c-0.1-1.5-0.9-2.9-1.3-4.4c-1.2-4,0.6-8.2,1.4-12.3C362.9,213.1,362.3,208.5,357.9,206z"/>
						<path class="st5" d="M52.7,255.3c-0.2-0.1-0.4-0.2-0.6-0.3c-3.4-1.9-7.5-3.9-12.6-3.8c-2.6,0.1-5,0.7-7.3,1.3
							c-4.7,1.3-9.4,2.5-14.1,3.8c-0.5,0.1-1,0.3-1.5,0.4l-2.3,1.4l22.4,9.4c2.6-1.3,6-2.2,9.6-2.6c2.8-0.3,5.7-0.3,8.2-0.9
							c2.6-0.6,4.7-2,3.8-3.3L52.7,255.3z"/>
						<path class="st5" d="M231.3,257.9c-0.3-0.2-0.7-0.4-1.1-0.5c-2.8-1-6.3-0.5-9.5,0c-6.2,0.9-12.5,1.3-18.8,1.1
							c-3.6-0.1-7.9-0.2-10.2,1.8c-2.1,1.8-1.3,4.5-0.1,6.7c0.3,0.6,0.7,1.3,1.4,1.7c0,0,0.1,0,0.1,0.1c1.5,0.9,3.9,0.6,5.9,0.8
							c2.8,0.3,5.1,1.8,7.7,2.6c6.3,2,13.7,0.1,20.1-1.7l7.1-4.5c0.4-1.6,0.6-3.2,0.2-4.7C233.7,259.9,232.8,258.7,231.3,257.9z"/>
					</g>
					<g>
						<polygon class="st3" points="36.6,267.4 45.8,271.3 14.2,258 						"/>
						<polygon class="st3" points="273.4,152.2 269,150.3 212.8,165.1 215.3,167.5 						"/>
						<polygon class="st3" points="191.1,173.8 188.7,171.5 151,181.4 149.1,179.6 145.4,181.8 148.8,185 						"/>
						<polygon class="st3" points="344.4,186.3 341.2,183.8 320.4,188.7 321.8,191.6 						"/>
						<polygon class="st3" points="266.1,178.4 261.4,179.6 286.9,203.7 289.7,202.1 286.9,203.7 296.9,223.9 301.2,222.9 
							290.6,201.5 290.6,201.5 						"/>
						<polygon class="st3" points="86.2,219.8 83.8,217.5 80.1,219.7 81.5,221 						"/>
						<polygon class="st3" points="384.9,232.4 373.6,209.6 365.9,203.5 365.7,203.2 381.8,235.8 						"/>
						<polygon class="st3" points="403.6,240 426.2,261.3 504.3,277.4 490.8,271.7 430,259.2 407.3,237.8 405.3,239 407.3,237.8 
							406.1,235.4 404.5,234.1 398.6,229.4 398.4,229.6 403.6,240 						"/>
						<polygon class="st3" points="216.3,242.8 196.2,223.9 233.8,214 231.4,211.7 193.8,221.6 173.7,202.7 168.9,204 189,222.8 
							151.4,232.7 153.9,235.1 191.5,225.2 211.5,244.1 						"/>
						<polygon class="st3" points="68,230.5 110.6,270.6 115.4,269.4 72.8,229.3 						"/>
						<polygon class="st3" points="156.5,279.5 144.1,267.8 139.3,269.1 152.7,281.7 						"/>
						<polygon class="st3" points="318.1,289.6 324.9,296 327.8,295.2 328.8,294 321.9,287.5 318.4,289.5 321.9,287.5 307.2,257.7 
							341,249.9 339.5,246.9 301.4,255.8 318.1,289.6 						"/>
						<polygon class="st3" points="277.9,288.7 276.5,285.8 226.4,297.4 219,282.4 255.1,274 240.1,243.6 235.8,244.6 249.3,272 
							213.2,280.5 194.6,284.8 196,287.7 214.6,283.4 232.1,318.6 236.4,317.6 227.9,300.4 						"/>
						<polygon class="st3" points="156.4,279.5 152.7,281.7 162,300.6 127.1,308.7 134.5,314.6 132.6,310.7 167.8,302.5 						"/>
						<path class="st3" d="M467.2,322.7l-6-12.1l-2.1,1.2l2.1-1.2l-23.1-21.7l-7.8-1.6l27.1,25.5l0,0l5.4,10.9l-37.2,8.7l-0.4-0.8
							l-1.7,1l1.7-1l-61.3-57.7l-5-1l-1,1.1l37.1,35l-59,15.5l2.5,2.3l30.5-8l29.8,28.1l3.8-2.2l-28.8-27.1l23.7-6.3l23.9,22.5l0,0
							l12.9,26.1l4.3-1L427,335.3l-2.2,0.5v0l2.2-0.5l37.2-8.7l11.6,23.5l4.3-1l-11.6-23.5l35.1-8.2l-1.5-2.9L467.2,322.7z
							 M423.4,332.9L423.4,332.9l0.9,1.8L423.4,332.9z"/>
						<polygon class="st3" points="398.9,346.8 407.4,364 411.9,365 412.6,364.9 402.6,344.7 						"/>
						<polygon class="st3" points="335.6,383.6 330,378.4 355.4,371.7 352.9,369.4 312.3,380 255.2,326.2 252.8,327.6 255.2,326.2 
							252.3,320.4 248,321.5 251.4,328.4 251.4,328.4 277.8,353.2 250.5,360.4 253,362.8 280.3,355.6 310.1,383.6 325.3,379.6 
							331.9,385.8 335.3,383.8 331.9,385.8 356.1,434.9 360.5,433.9 335.6,383.6 						"/>
						<polygon class="st3" points="478.8,356 497.4,393.7 501.2,391.5 483.1,355 						"/>
						<polygon class="st3" points="437.2,365.7 461.4,414.6 465.2,412.4 441.6,364.7 						"/>
					</g>
					<g>
						<path class="st6" d="M588.1,341l-20.4-16.2l7.3,19.7c0.6,1.6,0.2,3.2-0.8,4.5L588.1,341z"/>
						<path class="st6" d="M18,256.3l0.1-0.5l-1.6,0.9C17,256.5,17.5,256.4,18,256.3z"/>
						<path class="st6" d="M212.8,165.1l56.2-14.8l-6.4-2.7l-7.7,2l-10-9.5l-16.3-6.8l-30.7,17.9c0.4,0.3,0.7,0.5,1,0.8L212.8,165.1
							z M229.7,147l4.7,4.4l-15.7,4.1l-4.7-4.4L229.7,147z"/>
						<polygon class="st6" points="188.7,171.5 178.9,162.3 170.9,166.9 172.7,168.6 164.2,170.8 149.1,179.6 151,181.4 						"/>
						<path class="st6" d="M230.5,181.8l65.2-17.2l2,1.9l0.4,0.4l0.9-0.2l19.6,18.5l0,0l1.7,3.5l20.8-4.8l-4.8-3.8l-8.9,2.1
							l-0.8-1.6l0,0l-4.3-4.1l5.4-1.4l-54.4-22.8l-58.1,15.3L230.5,181.8z M286.3,158.1l3.1,2.9l-34.9,9.2l-3.1-2.9L286.3,158.1z"/>
						<path class="st6" d="M206.3,188.1l-15.2-14.3L148.8,185l-3.4-3.2l-9.4,5.4l10.4,9.8l-11.5,3l-8-7.6l-11.3,6.6l10.7,10.1
							L206.3,188.1z M185.5,183.2l6,5.6l-23.5,6.2l-6-5.6L185.5,183.2z"/>
						<path class="st6" d="M292,171.6l-25.9,6.8l24.5,23.1l0,0l10.6,21.4l23.7-5.5l-13.7-27.8l-3.8,2.2l3.8-2.2L292,171.6z
							 M277.7,181.1l11.8-3.1l10.5,9.9l-11.8,3.1L277.7,181.1z M311.5,205.1l-11.2,2.6l-3.8-7.6l11.2-2.6L311.5,205.1z"/>
						<path class="st6" d="M131.3,213.9l20.1,18.9l37.6-9.9L168.9,204L131.3,213.9z M157.7,225.3l-12.4-11.7l6.4-1.7l12.4,11.7
							L157.7,225.3z M174.6,216.4l-6,1.6l-5.4-5.1l6-1.6L174.6,216.4z"/>
						<path class="st6" d="M235.4,186.5l30.9,29.1l0.2-0.1l-0.2,0.1l6.8,13.8l23.7-5.5l-10-20.2l0,0l-25.5-24L235.4,186.5z
							 M279.8,207.8L279.8,207.8l2.1,4.2l-8,1.9l-1-2.1l0,0l-14-13.2l8.8-2.3L279.8,207.8z"/>
						<polygon class="st6" points="116.9,211.7 108.1,203.4 103.3,206.2 106.5,209.2 93.8,212.5 93.3,212 83.8,217.5 86.2,219.8 
													"/>
						<path class="st6" d="M173.7,202.7l20.1,18.9l37.6-9.9l-20.1-18.9L173.7,202.7z M203.4,213.3l-9.1-8.6l15.4-4.1l9.1,8.6
							L203.4,213.3z"/>
						<polygon class="st6" points="80.1,219.7 74.9,222.7 81.5,221 						"/>
						<polygon class="st6" points="392.4,224.5 373.6,209.6 384.9,232.4 						"/>
						<path class="st6" d="M164.4,256.5l-42.6-40.1l-49.1,12.9l42.6,40.1L164.4,256.5z M117.1,221l14.1,13.3l-8.7,2.3l-14.1-13.3
							L117.1,221z M101.9,242l-7.4-7l7.5-2l7.4,7L101.9,242z M133.6,241.9l7,6.6l-23,6l-7-6.6L133.6,241.9z"/>
						<path class="st6" d="M196.2,223.9l20.1,18.9l5.9-1.6l0,0l29-6.7l-3.9-7.8l0,0L233.8,214L196.2,223.9z M211.2,228.4l-5-4.7
							l21.9-5.8l5,4.7L211.2,228.4z M241.2,230.2L241.2,230.2l1.4,2.7l-10.1,2.4l0,0l-6.1,1.6l-3.9-3.6l17.2-4.5L241.2,230.2z"/>
						<polygon class="st6" points="408.4,237.2 406.1,235.4 407.3,237.8 						"/>
						<path class="st6" d="M356.9,262.5l24.9-26.7l-16.1-32.6l-21.3-16.9l-22.5,5.3L356.9,262.5z M342.7,200.4
							c2.8-1.5,6.8-1.7,9.9-0.6l4.8,5.9c0.2,0.1,0.3,0.2,0.5,0.3c4.4,2.5,5,7.1,4.3,11.1c-0.8,4.1-2.6,8.2-1.4,12.3
							c0.4,1.5,1.3,2.9,1.3,4.4c0.1,1.5-1,3.2-3,3.6c-1.5,0.4-3,0-4.2-0.7c-1.2-0.7-2.1-1.7-2.7-2.7c-3.5-6.5,0.3-14.5-5.3-20.3
							c-2.3-2.3-5.9-4.1-7.1-6.8C338.7,204.6,340,201.9,342.7,200.4z"/>
						<path class="st6" d="M276.1,235.2l30.3,61.2l0,0l3.7,3.5l14.8-3.9l-6.8-6.4l0,0l-16.7-33.8l38.1-8.9l-11.7-23.7L276.1,235.2z
							 M304.6,271.1l8.7,17.5l-4.8,1.1l-8.7-17.5L304.6,271.1z M293.1,252.7l-3.7-7.5l19-4.4l3.7,7.5L293.1,252.7z M321.5,246.1
							L314,231l7.4-1.7l7.4,15.1L321.5,246.1z"/>
						<path class="st6" d="M213.2,280.5l36.2-8.4l-13.6-27.4l-32.4,7.6L184,263.5l10.6,21.3L213.2,280.5z M193,268.6
							c-0.7-0.4-1.1-1.1-1.4-1.7c-1.2-2.2-2-4.8,0.1-6.7c2.3-1.9,6.5-1.9,10.2-1.8c6.3,0.1,12.6-0.2,18.8-1.1c3.2-0.5,6.7-1,9.5,0
							c0.4,0.1,0.8,0.3,1.1,0.5c1.4,0.8,2.3,2,2.7,3.3c0.5,1.5,0.2,3.2-0.2,4.7l-7.1,4.5c-6.4,1.8-13.8,3.7-20.1,1.7
							c-2.6-0.8-4.8-2.2-7.7-2.6c-2-0.2-4.4,0-5.9-0.8C193.1,268.6,193,268.6,193,268.6z"/>
						<path class="st6" d="M211.5,244.1l-20.1-18.9l-37.6,9.9l20.1,18.9L211.5,244.1z M187.6,228.6l6.2,5.9l-11.9,3.1l-6.2-5.9
							L187.6,228.6z M195.4,240.4l1.9,1.8l-21.1,5.6l-1.9-1.8L195.4,240.4z"/>
						<polygon class="st6" points="203.4,252.2 178.9,258.6 184,263.5 						"/>
						<polygon class="st6" points="430,259.2 490.8,271.7 408.4,237.2 407.3,237.8 						"/>
						<path class="st6" d="M240.1,243.6l15,30.3l-36.2,8.4l7.4,15l50.1-11.7L254,240.4L240.1,243.6z M235.8,292l-3.5-7l18.6-4.3
							l3.5,7L235.8,292z M257.7,272.8l-9.5-19.3l5.4-1.3l9.5,19.3L257.7,272.8z"/>
						<path class="st6" d="M68,230.5l-11.9,3.1l-13.4,7.8c1.8,0.3,3.6,0.8,5.1,1.4l22,9.1c0.6,0.3,1.3,0.6,1.8,0.9
							c0.7,0.4,1.4,0.9,1.9,1.4l1.1,1c4.6,4.3-0.1,9.7-9.7,11c-5.2,0.7-9.3,2.7-10.8,5.3l-1.5,2.5l17.3,7.2l40.8-10.7L68,230.5z"/>
						<path class="st6" d="M341,249.9l-33.8,7.9l14.7,29.7l20.9-12.1l-20.9,12.1l7,6.6l18.7-21.5l0,0l3-3.3L341,249.9z M340.9,272.3
							l-0.1,0.2c-3.4,3.6-10.3,3.9-14.5,1.5c-1.3-0.8-2.4-1.8-2.9-3.1l-1.8-4c-1.5-3.4,1.3-7,6.2-8.1c3.4-0.8,6.9-0.2,9.4,1.2
							c1.3,0.7,2.3,1.7,2.9,2.9l1.9,3.8C342.8,268.5,342.4,270.6,340.9,272.3z"/>
						<path class="st6" d="M363.9,273.8l61.3,57.7l25.7-14.9l-25.7,14.9l0.4,0.8l37.2-8.7l-5.4-10.9l0,0l-27.1-25.5L363.9,273.8z
							 M387.5,289.5l14.2-3.7l7.4,7l-14.3,3.8L387.5,289.5z M425.1,323l-17-16l9.1-2.4l17,16L425.1,323z M435.6,309.5l-18-16.9
							l9.1-2.4l18,16.9L435.6,309.5z"/>
						<path class="st6" d="M185.8,301.7c-1.5-3.1-0.1-6.4,3.3-8.4l-12.6-25.5l0,0l-7.1-6.7l-25.3,6.7l12.4,11.7l0,0l11.4,23
							l-35.2,8.2l1.9,3.9l-7.4-5.9l34.9-8.1l-9.4-18.9l0,0l-13.4-12.6l-60.7,16l34.4,14.4l1.8,0.7l2.6-0.7l1.8,1.7l12.8-7.5
							l-12.8,7.5l0.9,1.9l-1.8-1.4l42.3,33.6l37.5-8.7L185.8,301.7z M93.6,289.1l-3.1-2.9l19.8-5.2l3.1,2.9L93.6,289.1z
							 M128.7,284.8l11.4-3l4.7,4.4l0,0l5.7,11.5l-10.4,2.4l-4.3-8.7l0,0L128.7,284.8z M178.6,290.2l3.3,6.7l-9.9,2.3l-3.3-6.7
							L178.6,290.2z M165.3,274.3L165.3,274.3l-3.4-3.2l5.3-1.4l2.3,2.2l0,0l4.3,8.6l-4.9,1.1L165.3,274.3z M182.1,304.6l4.9,9.8
							l-26.8,6.2l-4.9-9.8L182.1,304.6z M157.2,331.8l-1-2.1l11.9-2.8l1,2.1L157.2,331.8z"/>
						<polygon class="st6" points="78.6,285 78.6,285 77.2,284.4 						"/>
						<path class="st6" d="M438.1,288.9l23.1,21.7l5.1-3l-5.1,3l6,12.1l35.1-8.2l-5.3-10.7l-14-5.8l0,0L438.1,288.9z M476.8,315.5
							l-5.1-10.3l10.1-2.4l5.1,10.3L476.8,315.5z"/>
						<path class="st6" d="M277.9,288.7l-50.1,11.7l8.5,17.2l50.1-11.7L277.9,288.7z M240.5,312.4l-3.3-6.7l9.9-2.3l3.3,6.7
							L240.5,312.4z M257.5,308.5l-3.9-7.9l20-4.7l3.9,7.9L257.5,308.5z"/>
						<path class="st6" d="M204.4,293.1c1.5,0.9,2.7,2.1,3.4,3.4l12.3,24.8l11.9-2.8l-17.4-35.2l-18.6,4.3l1.7,3.5
							C200.2,291.4,202.6,292.1,204.4,293.1z M218.6,299.5l6.3,12.8l-3.5,0.8l-6.3-12.8L218.6,299.5z"/>
						<polygon class="st6" points="273.7,315.5 268.4,316.7 269.1,318.1 						"/>
						<path class="st6" d="M336.1,299l-21.1,5.5l21.1,19.9l59-15.5l-37.1-35L336.1,299z M335.9,303.1l15.3-4l3.7,3.5l-15.3,4
							L335.9,303.1z M385.6,307.6l-11.8,3.1l-4.6-4.4l11.8-3.1L385.6,307.6z M367.6,290.6l9.9,9.3l-6.7,1.8l-9.9-9.3L367.6,290.6z
							 M341.9,320l-4.5-4.2l16.3-4.3l4.5,4.2L341.9,320z"/>
						<polygon class="st6" points="255.2,326.2 261.6,322.5 259.7,318.7 252.3,320.4 						"/>
						<path class="st6" d="M337.5,354.8l-46.6-43.9l-17.2,4.5l-4.6,2.7l36.4,34.3L337.5,354.8z M280.2,317.7l7.7-2l13.1,12.3l-7.7,2
							L280.2,317.7z M298.9,339.7l7.5-2l6,5.6l-7.5,2L298.9,339.7z"/>
						<path class="st6" d="M515.3,340.9l-11.6-23.5l-35.1,8.2l11.6,23.5L515.3,340.9z M507.5,339.8l-8.4,2l-3.9-7.9l8.4-2
							L507.5,339.8z M498.2,324.5l2.7,5.4l-18.1,4.2l-2.7-5.4L498.2,324.5z"/>
						<path class="st6" d="M475.9,350.1l-11.6-23.5l-37.2,8.7l11.6,23.5L475.9,350.1z M457.9,333.9l2.7,5.4l-17.7,4.1l-2.7-5.4
							L457.9,333.9z"/>
						<path class="st6" d="M564.1,352.3c-1.7-0.2-3.4-0.2-5,0.2l-10.2,2.4c-3.3,0.8-6.7,0.2-9-1.2c-2.1-1.2-3.4-3-3.2-5.1l1-13.5
							c0.1-1.9-1-3.8-3.3-5.1l-15.8-8.9c-2.6-1.5-3.8-3.8-3-6.1l3.3-10.3c0.6-1.9,2.5-3.5,5.1-4.4l9.1-3l-20.6-16.4l-22.2,12.9
							l22.1-13l-8-3.4l-78.2-16.1L403.6,240l0,0l-5.2-10.4l-27.3,29.3l0,0l-7.9,9.1l127.1,25.8l0,0l14.3,6l34.5,69.8l30-17.4
							C567.5,352.4,565.8,352.5,564.1,352.3z M421.8,276.4l-41.4-12.6l13.3-13.8l17.1,16.1l7.5,1.7c1.4,0.3,2.7,0.8,3.6,1.4
							C425.4,271.2,425.6,274.2,421.8,276.4z M479.6,286.6l-32.5-4.9l4.2-6.7l32.5,4.9L479.6,286.6z"/>
						<path class="st6" d="M379.7,358l19.2-11.2l-29.8-28.1l-30.5,8l32.5,30.6L379.7,358z M357.2,331.6l14-3.7l3.1,2.9l-14,3.7
							L357.2,331.6z M376.6,338.3l10.2,9.6l-6.2,1.6l-10.2-9.6L376.6,338.3z"/>
						<path class="st6" d="M239.7,335.2l-9.9,5.7l20.7,19.5l27.3-7.2l-26.4-24.8l0,0l-3.4-6.9l-24.9,5.8l6.8,13.7L239.7,335.2
							l-2.2-4.5l5.4-1.3l1.5,3l0,0l8.7,8.2l-6,1.6L239.7,335.2z M261.3,345.6l6.3,5.9l-13.6,3.6l-6.3-5.9L261.3,345.6z"/>
						<polygon class="st6" points="166.9,340.3 166.9,340.3 165,338.8 						"/>
						<path class="st6" d="M201,332.4l-34,7.9l12.6,10c4-1.8,9.2-1.6,12.8,0.4c0.4,0.2,0.8,0.5,1.1,0.7c2.6,2,3.3,4.9,1.8,7.4
							l-1.6,2.7l-5.6-4.5l5.8,4.6l0.1,0.1l16.8-9.7L201,332.4z"/>
						<polygon class="st6" points="398.9,346.8 379.7,358 407.4,364 						"/>
						<path class="st6" d="M434.3,359.8l-12.9-26.1l0,0l-23.9-22.5l-23.7,6.3l28.8,27.1l7.7-4.5l-7.7,4.5l10,20.2L434.3,359.8z
							 M397.5,315.8l8.5,8l-4.8,1.3l-8.5-8L397.5,315.8z M400.1,337.4l-4.3-4.1l13.4-3.5l4.3,4.1L400.1,337.4z M413.3,341.2
							l7.3,14.7l-4.3,1l-7.3-14.7L413.3,341.2z"/>
						<path class="st6" d="M483.1,355l18.1,36.5l8.5-4.9l-1.5-3.1l8.2-1.9l0.4,0.8l14.8-8.6l-13.4-27L483.1,355z M494.2,366.2
							l-3.2-6.5l9.6-2.2l3.2,6.5L494.2,366.2z M512.6,369.1l-6.4-13l6.9-1.6l6.4,13L512.6,369.1z"/>
						<path class="st6" d="M352.9,369.4l-9.2-8.7l-45.1-3.4l-36.9-34.8l-6.4,3.7l57.2,53.8L352.9,369.4z M333.2,367.6l2.3,2.1
							l-17.2,4.5l-2.3-2.1L333.2,367.6z"/>
						<path class="st6" d="M441.6,364.7l23.6,47.8l32.3-18.7L478.8,356L441.6,364.7z M459.7,390.2l-3.9-7.8l8-1.8l3.9,7.8
							L459.7,390.2z M452.5,372.3l-2.3-4.7l21.9-5.1l2.3,4.7L452.5,372.3z M487.8,394.3l-5.6,1.3l-5.8-11.7l5.6-1.3L487.8,394.3z"/>
						<path class="st6" d="M392.7,446.8l-37-74.9l-19.3,11.2l19.3-11.2l-0.3-0.3l-25.3,6.7l5.6,5.2l0,0l24.9,50.3l-4.3,1l-24.3-49.1
							l-3.7,2.1l6.4,13l-7.4,1.7l-5.4-11L316,395l1.8,3.7l-13.6,3.2l0,0l-2.3,0.6l-3.4-3.2l17.2-4.5l0.3,0.3l5.8-3.4L320,390
							l8.2-2.1l3.7-2.1l-6.6-6.2l-15.2,4l-29.8-28l-27.3,7.2l38.8,36.5c1.4,1.3,1.8,2.7,1.4,4.1l-16.5-6.9l-11.9-5l-21.9-9.2
							l-32.1-30.2l-16.8,9.7l98.8,41.4l5.3,2.2l12.6,10l18.4-4.3l1.5,3.1l-16.6,3.9l34.2,27.2l25.4-5.9l2.9,5.9l-22,5.1l-1.6-1.2
							l20.6,16.4l24.6-14.3c-0.8-0.3-1.5-0.6-2.2-1C394.6,449.4,393.4,448.2,392.7,446.8z M213.4,369.4l-7.8-7.4l3.3-0.9l7.8,7.4
							L213.4,369.4z M273.4,363.4l5.3-1.4l7.9,7.4l-5.3,1.4L273.4,363.4z M293.1,389.6l-9.6-9l11.6-3.1l9.6,9L293.1,389.6z
							 M334.4,431.6l-2.4-4.8l7.1-1.7l2.4,4.8L334.4,431.6z M350,399.8l-9.1-18.3l4.8-1.1l9.1,18.3L350,399.8z M363.1,431.5L355,415
							l11.2-2.6l8.2,16.5L363.1,431.5z"/>
						<path class="st6" d="M411.9,371.6l-35.7-7.8l38.6,77.9l26.3-15.3l-7.6,1.8c-2.6,0.6-5.4,0.2-7.3-0.9c-1-0.6-1.8-1.4-2.3-2.3
							l-6.3-13.6c-0.3-0.7-0.9-1.4-1.7-2l-17-12.2c-1-0.8-1.7-1.7-2-2.7l-1.4-6.3c-1-4.6,6.7-7.7,12.1-4.9c2.5,1.3,6,1.4,8.7,0.2
							l7.4-3.3c2.8-1.3,6.5-1.1,9,0.4c0.2,0.1,0.3,0.2,0.5,0.3l5.8,3.9c1.1,0.8,1.9,1.8,2.1,2.8l5.6,26.1c0,0.1,0,0.2,0.1,0.4
							l0.8,6.9c0.1,0.7-0.1,1.4-0.4,2.1l14.2-8.3l-24.2-48.9L411.9,371.6z"/>
					</g>
					<g>
						<polygon class="st7" points="221,184.3 190.5,155.6 186.4,157.9 215.8,185.6 						"/>
						<polygon class="st7" points="254.8,222.3 258.9,220 225.9,189 220.8,190.3 						"/>
						<polygon class="st7" points="254.8,222.3 259.8,232.5 264.5,231.4 258.9,220 						"/>
						<path class="st7" d="M422,269.2c-1-0.6-2.2-1-3.6-1.4l-7.5-1.7L393.8,250l-13.3,13.8l41.4,12.6
							C425.6,274.2,425.4,271.2,422,269.2z"/>
						<path class="st7" d="M73.6,254.3c-0.5-0.5-1.2-1-1.9-1.4c-0.5-0.3-1.2-0.6-1.8-0.9l-22-9.1c-1.6-0.6-3.3-1.1-5.1-1.4
							l-24.5,14.3l-0.1,0.5c4.7-1.3,9.4-2.5,14.1-3.8c2.3-0.6,4.7-1.3,7.3-1.3c5.1-0.1,9.2,1.8,12.6,3.8c0.2,0.1,0.4,0.2,0.6,0.3
							l5.5,5.3c1,1.3-1.2,2.7-3.8,3.3c-2.6,0.6-5.5,0.6-8.2,0.9c-3.6,0.4-7,1.3-9.6,2.6l16,6.7l1.5-2.5c1.6-2.5,5.6-4.5,10.8-5.3
							c9.6-1.3,14.3-6.7,9.7-11L73.6,254.3z"/>
						<path class="st7" d="M323.3,270.9c0.6,1.3,1.6,2.3,2.9,3.1c4.2,2.4,11.1,2.1,14.5-1.5l0.1-0.2c1.6-1.7,2-3.8,1-5.6l-1.9-3.8
							c-0.6-1.2-1.6-2.1-2.9-2.9c-2.5-1.4-6-2-9.4-1.2c-4.9,1.2-7.7,4.8-6.2,8.1L323.3,270.9z"/>
						<polygon class="st7" points="298.9,300.8 298.9,300.8 267.4,237.3 262.7,238.4 294.8,303.2 294.8,303.2 295.4,303.8 
							300.6,302.4 						"/>
						<path class="st7" d="M199.2,298.6c-0.1-0.3-0.4-0.5-0.7-0.7c-0.6-0.4-1.5-0.5-2.4-0.3c-1.3,0.3-2,1.3-1.6,2.1l12.3,24.8
							l4.7-1.1L199.2,298.6z"/>
						<path class="st7" d="M575.1,344.5l-7.3-19.7l-7.4-5.9l-27.3-21.7l-9.1,3c-2.6,0.9-4.5,2.5-5.1,4.4l-3.3,10.3
							c-0.7,2.3,0.4,4.6,3.1,6.2l15.8,8.9c2.2,1.3,3.4,3.1,3.2,5.1l-1,13.5c-0.1,2.1,1.2,3.9,3.2,5.1c2.4,1.4,5.7,1.9,9,1.2
							l10.2-2.4c1.6-0.4,3.3-0.4,5-0.2c1.8,0.3,3.5,0.2,5-0.2l5.3-3.1C575.3,347.7,575.7,346.1,575.1,344.5z"/>
						<polygon class="st7" points="305.5,307.1 300.4,308.4 350.7,355.8 357.8,356.4 						"/>
						<path class="st7" d="M193.4,351.5c-0.3-0.3-0.7-0.5-1.1-0.7c-3.5-2-8.8-2.3-12.8-0.4l14.1,11.2l1.6-2.7
							C196.7,356.4,196,353.6,193.4,351.5z"/>
						<polygon class="st7" points="367.2,365.2 364,362.2 356.9,361.6 363.2,367.6 						"/>
						<polygon class="st7" points="222.3,345.3 214.4,329.3 209.7,330.4 218.2,347.7 221.7,345.6 218.2,347.7 264.7,391.5 
							272.3,394.6 276.6,396.5 222.3,345.3 						"/>
						<path class="st7" d="M446.8,413.9c0-0.1,0-0.2-0.1-0.4l-5.6-26.1c-0.2-1.1-1-2.1-2.1-2.8l-5.8-3.9c-0.1-0.1-0.3-0.2-0.5-0.3
							c-2.5-1.5-6.2-1.6-9-0.4l-7.4,3.3c-2.7,1.2-6.2,1.1-8.7-0.2c-5.4-2.8-13.1,0.3-12.1,4.9l1.4,6.3c0.2,1,0.9,2,2,2.7l17,12.2
							c0.8,0.6,1.4,1.2,1.7,2l6.3,13.6c0.4,0.9,1.2,1.7,2.3,2.3c2,1.1,4.7,1.5,7.3,0.9l7.6-1.8l6.1-3.5c0.3-0.6,0.5-1.3,0.4-2.1
							L446.8,413.9z"/>
						<path class="st7" d="M367.2,365.2l-4.1,2.4l38.2,77.2c0.1,0.3,0.4,0.5,0.7,0.7c0.6,0.4,1.5,0.5,2.4,0.3c1.3-0.3,2-1.3,1.6-2.1
							L367.2,365.2z"/>
					</g>
					<g>
						<polygon class="st8" points="106.5,209.2 103.3,206.2 93.3,212 93.8,212.5 						"/>
						<polygon class="st8" points="332.1,426.8 334.4,431.6 341.5,430 339.2,425.2 						"/>
						<polygon class="st8" points="262.6,147.7 244.9,140.2 254.9,149.7 						"/>
						<polygon class="st8" points="234.4,151.4 229.7,147 214,151.1 218.7,155.5 						"/>
						<polygon class="st8" points="254.4,170.2 289.4,161.1 286.3,158.1 251.3,167.3 						"/>
						<polygon class="st8" points="170.9,166.9 164.2,170.8 172.7,168.6 						"/>
						<polygon class="st8" points="327.2,180.3 326.7,180.5 327.5,182.1 336.4,180 332.7,177 332.7,177 332.6,177 329.9,175.9 
							327.8,175 322.4,176.4 326.7,180.5 						"/>
						<polygon class="st8" points="288.2,190.9 300,187.8 289.5,177.9 277.7,181.1 						"/>
						<polygon class="st8" points="191.5,188.8 185.5,183.2 161.9,189.4 167.9,195 						"/>
						<polygon class="st8" points="146.4,197 136,187.2 126.9,192.5 135,200.1 						"/>
						<polygon class="st8" points="300.2,207.8 311.5,205.1 307.7,197.5 296.5,200.2 						"/>
						<polygon class="st8" points="209.7,200.6 194.2,204.7 203.4,213.3 218.8,209.2 						"/>
						<polygon class="st8" points="279.8,207.8 279.8,207.8 267.7,196.3 258.9,198.7 272.9,211.8 272.9,211.8 273.9,213.9 
							281.9,212 						"/>
						<polygon class="st8" points="169.2,211.3 163.2,212.8 168.6,217.9 174.6,216.4 						"/>
						<polygon class="st8" points="157.7,225.3 164.1,223.6 151.7,211.9 145.3,213.6 						"/>
						<polygon class="st8" points="211.2,228.4 233.1,222.6 228.1,218 206.2,223.7 						"/>
						<polygon class="st8" points="131.2,234.3 117.1,221 108.4,223.3 122.5,236.6 						"/>
						<polygon class="st8" points="94.4,235 101.9,242 109.4,240.1 102,233 						"/>
						<polygon class="st8" points="110.7,247.9 117.7,254.5 140.7,248.5 133.6,241.9 						"/>
						<polygon class="st8" points="242.5,233 241.2,230.2 241.2,230.2 239.6,228.8 222.4,233.3 226.3,237 232.4,235.3 236.9,232.7 
							232.4,235.3 						"/>
						<polygon class="st8" points="175.7,231.8 181.9,237.6 193.8,234.5 187.6,228.6 						"/>
						<polygon class="st8" points="328.9,244.4 321.4,229.3 314,231 321.5,246.1 						"/>
						<polygon class="st8" points="174.3,246 176.2,247.8 197.4,242.2 195.4,240.4 						"/>
						<polygon class="st8" points="304.6,271.1 299.9,272.3 308.5,289.8 313.3,288.7 						"/>
						<polygon class="st8" points="289.4,245.2 293.1,252.7 312.1,248.3 308.4,240.7 						"/>
						<polygon class="st8" points="483.8,279.9 451.3,275 447.1,281.7 479.6,286.6 						"/>
						<polygon class="st8" points="251,280.7 232.4,285.1 235.8,292 254.5,287.7 						"/>
						<polygon class="st8" points="248.2,253.6 257.7,272.8 263.1,271.6 253.6,252.3 						"/>
						<polygon class="st8" points="165.6,274.2 169.5,271.9 167.2,269.7 161.9,271.1 165.3,274.3 165.3,274.3 168.9,281.6 
							173.8,280.5 169.5,271.9 						"/>
						<polygon class="st8" points="90.5,286.1 93.6,289.1 113.4,283.9 110.3,280.9 						"/>
						<polygon class="st8" points="144.8,286.2 140.1,281.8 128.7,284.8 135.8,291.5 135.8,291.5 140.1,300.2 150.5,297.8 
							144.8,286.3 						"/>
						<polygon class="st8" points="409.2,292.8 401.7,285.7 387.5,289.5 394.9,296.5 						"/>
						<polygon class="st8" points="155.3,310.8 160.2,320.6 186.9,314.4 182.1,304.6 						"/>
						<polygon class="st8" points="156.2,329.7 157.2,331.8 169.2,329 168.1,327 						"/>
						<polygon class="st8" points="172,299.1 181.9,296.8 178.6,290.2 168.7,292.5 						"/>
						<polygon class="st8" points="377.5,300 367.6,290.6 360.9,292.4 370.8,301.7 						"/>
						<polygon class="st8" points="117.3,299.5 114.7,300.2 118.3,301.7 119.1,301.2 						"/>
						<polygon class="st8" points="118.3,301.7 120,303.1 119.1,301.2 						"/>
						<polygon class="st8" points="339.6,306.6 354.9,302.6 351.2,299.1 335.9,303.1 						"/>
						<polygon class="st8" points="257.5,308.5 277.6,303.8 273.6,295.9 253.6,300.6 						"/>
						<polygon class="st8" points="426.7,290.1 417.6,292.5 435.6,309.5 444.7,307.1 						"/>
						<polygon class="st8" points="373.8,310.7 385.6,307.6 380.9,303.2 369.1,306.3 						"/>
						<polygon class="st8" points="250.4,310.1 247.1,303.4 237.2,305.7 240.5,312.4 						"/>
						<polygon class="st8" points="215.1,300.3 221.4,313.1 224.9,312.3 218.6,299.5 						"/>
						<polygon class="st8" points="471.7,305.3 476.8,315.5 487,313.2 481.9,302.9 						"/>
						<polygon class="st8" points="337.4,315.8 341.9,320 358.2,315.7 353.7,311.5 						"/>
						<polygon class="st8" points="408.1,307 425.1,323 434.2,320.6 417.2,304.6 						"/>
						<polygon class="st8" points="409.2,329.8 395.8,333.3 400.1,337.4 413.5,333.8 						"/>
						<polygon class="st8" points="406,323.9 397.5,315.8 392.6,317.1 401.2,325.1 						"/>
						<polygon class="st8" points="312.4,343.4 306.4,337.7 298.9,339.7 304.9,345.3 						"/>
						<polygon class="st8" points="301.1,328 287.9,315.7 280.2,317.7 293.3,330.1 						"/>
						<polygon class="st8" points="482.8,334.1 500.8,329.8 498.2,324.5 480.1,328.7 						"/>
						<polygon class="st8" points="371.2,327.9 357.2,331.6 360.3,334.5 374.3,330.8 						"/>
						<polygon class="st8" points="499.1,341.7 507.5,339.8 503.6,331.9 495.2,333.8 						"/>
						<polygon class="st8" points="244.4,332.5 244.4,332.5 242.9,329.5 237.5,330.7 239.7,335.2 241.5,334.2 239.7,335.2 
							247.1,342.2 253.1,340.7 						"/>
						<polygon class="st8" points="457.9,333.9 440.2,338 442.8,343.4 460.5,339.2 						"/>
						<polygon class="st8" points="370.3,340 380.6,349.6 386.8,348 376.6,338.3 						"/>
						<polygon class="st8" points="247.7,349.2 254,355.1 267.6,351.6 261.3,345.6 						"/>
						<polygon class="st8" points="409,342.2 416.3,356.9 420.6,355.9 413.3,341.2 						"/>
						<polygon class="st8" points="519.5,367.5 513.1,354.5 506.2,356.1 512.6,369.1 						"/>
						<polygon class="st8" points="491,359.7 494.2,366.2 503.8,363.9 500.6,357.5 						"/>
						<polygon class="st8" points="205.6,362 213.4,369.4 216.7,368.5 208.9,361.2 						"/>
						<polygon class="st8" points="278.7,362 273.4,363.4 281.3,370.9 286.6,369.5 						"/>
						<polygon class="st8" points="450.2,367.6 452.5,372.3 474.4,367.2 472,362.5 						"/>
						<polygon class="st8" points="333.2,367.6 315.9,372.1 318.2,374.2 335.4,369.7 						"/>
						<polygon class="st8" points="508.2,383.5 509.7,386.6 516.8,382.4 516.4,381.6 						"/>
						<polygon class="st8" points="295.2,377.6 283.6,380.6 293.1,389.6 304.8,386.6 						"/>
						<polygon class="st8" points="476.3,383.8 482.2,395.6 487.8,394.3 481.9,382.5 						"/>
						<polygon class="st8" points="455.8,382.3 459.7,390.2 467.7,388.3 463.8,380.5 						"/>
						<polygon class="st8" points="328.1,387.8 320,390 321.8,391.6 328.2,387.9 						"/>
						<polygon class="st8" points="350,399.8 354.8,398.7 345.7,380.3 340.9,381.4 						"/>
						<polygon class="st8" points="334.6,400.9 328.2,387.9 321.8,391.6 327.2,402.6 						"/>
						<polygon class="st8" points="317.8,398.7 316,395 312.1,397.3 316,395 315.7,394.7 298.4,399.3 301.8,402.5 304.2,401.9 
							304.2,401.9 						"/>
						<polygon class="st8" points="310.7,415.5 314,418.2 330.6,414.3 329.1,411.2 						"/>
						<polygon class="st8" points="363.1,431.5 374.3,428.9 366.2,412.3 355,415 						"/>
						<polygon class="st8" points="348.2,445.3 353.1,449.2 354.6,450.4 376.6,445.3 373.7,439.4 						"/>
					</g>
					<g>
						<polygon class="st9" points="367.2,365.2 371.5,362.7 364,362.2 						"/>
						<path class="st9" d="M504.6,299.7l-14.3-6l0,0l-127.1-25.8l7.9-9.1l0,0l27.3-29.3l0.2-0.2l-6.2-4.9l-7.4,8l-3.2,3.4
							l-24.9,26.7l-35.1-70.9l-1.5-2.9l-1.7-3.5l0,0l-19.6-18.5l-0.9,0.2l-2.5-2.3l-65.2,17.2l-15.2-14.3l-2.5-2.3l-13.9-13
							c-0.3-0.3-0.7-0.6-1-0.8l-7.4,4.3l30.5,28.7l-5.1,1.4l-29.4-27.7l-7.5,4.4l9.8,9.2l2.5,2.3l15.2,14.3l5,4.7l20.1,18.9l2.5,2.3
							l13.4,12.7l7.5-4.4l-34-32l5.1-1.4l32.9,31l7.5-4.4l-30.9-29.1l25.9-6.8l4.8-1.3l25.9-6.8l19.1,18l0,0l13.7,27.8l2.9,5.9
							l11.7,23.7l1.5,2.9l9.6,19.4v0l-3,3.3l0,0L328.8,294l-1.1,1.2l-2.9,0.8l-14.8,3.9l0,0l-3.7-3.5l0,0l-30.3-61.2l51.7-12
							l-2.9-5.9l-23.7,5.5l-4.3,1l-23.7,5.5l-6.8-13.8l-7.5,4.4l5.7,11.4l-4.7,1.1l2.9,5.9l4.7-1.1l31.4,63.6l0,0l1.7,1.6l-5.2,1.4
							l-0.6-0.6l0,0l-32.1-64.8l-2.9-5.9l-5-10.2l-7.5,4.4l3.9,7.8l-29,6.7l-11.9,6.9l11.9-6.9l-5.9,1.6l-4.8,1.3l-37.6,9.9
							l-20.1-18.9l-2.5-2.3l-20.1-18.9l37.6-9.9l4.8-1.3l37.6-9.9l-5-4.7l-80,21l-10.7-10.1l-7.5,4.4l8.8,8.2l-30.7,8.1l-4.8,1.3
							l-6.5,1.7l-18.8,10.9l11.9-3.1l4.7-1.2l49.1-12.9l42.6,40.1l-49.1,12.9l-4.7,1.2l-40.8,10.7l8.8,3.7l60.7-16l4.7-1.2l25.3-6.7
							l7.1,6.7l7.5-4.4l-5.1-4.8l24.5-6.4l0,0l32.4-7.6l4.3-1l13.9-3.2l22.4,45.4l1.5,2.9l8.5,17.2l-50.1,11.7l-4.3,1l-11.9,2.8
							l-12.3-24.8c-0.7-1.4-1.9-2.6-3.4-3.5c-1.9-1.1-4.2-1.7-6.6-1.9c-1.1-0.1-2.2,0-3.3,0.2c1.1-0.2,2.2-0.2,3.3-0.2l-1.7-3.5
							l-1.5-2.9L184,263.5l-7.5,4.4l12.6,25.5c-3.4,2.1-4.8,5.3-3.3,8.4l12.3,24.8l8.7-2l-12.3-24.8c-0.4-0.9,0.3-1.8,1.6-2.1
							c0.9-0.2,1.8-0.1,2.4,0.3c0.3,0.2,0.6,0.4,0.7,0.7l12.3,24.8l-4.7,1.1l-8.7,2l-37.5,8.7l6.4,5.1l34-7.9l9.7,19.7l7.5-4.4
							l-8.6-17.3l4.7-1.1l7.9,16l7.5-4.4l-6.8-13.7l24.9-5.8l4.3-1l7.4-1.7l1.9,3.8l7.5-4.4l-0.7-1.4l-1.5-2.9l1.5,2.9l5.3-1.2
							l18.8-10.9l1.5-0.9l-1.5,0.9h0l-18.8,10.9l17.2-4.5l46.6,43.9l0,0l-31.9-2.4l-36.4-34.3l-7.5,4.4l36.9,34.8l45.1,3.4l9.2,8.7
							l2.5,2.3l0.3,0.3l7.5-4.4l-6.3-5.9l7.2,0.5l7.5,0.6l8.2-4.8l-8.6-0.6l-32.5-30.6l-2.5-2.3L315,304.6l21.1-5.5l21.9-25.1l1-1.1
							l5,1l66.5,13.5l7.8,1.6l44.8,9.1l0,0l14,5.8l5.3,10.7l1.5,2.9l11.6,23.5l-35.1,8.2l-4.3,1l-37.2,8.7l-4.3,1l-21.7,5.1
							l-0.7,0.2l-4.5-1l-27.7-6l-8.2,4.8l-4.2,2.5l38.8,78.5c0.4,0.9-0.3,1.8-1.6,2.1c-0.9,0.2-1.8,0.1-2.4-0.3
							c-0.3-0.2-0.6-0.4-0.7-0.7l-38.2-77.2l-7.5,4.4l37,74.9c0.7,1.4,1.9,2.6,3.4,3.4c0.7,0.4,1.4,0.7,2.2,1l16.4-9.6l-38.5-77.9
							l35.7,7.8l25.3-5.9l4.3-1l37.2-8.7l4.3-1l35.1-8.2l13.4,27l7.5-4.4L504.6,299.7z M357.8,356.4l-7.2-0.5l-50.3-47.4l5.2-1.4
							L357.8,356.4z M358.7,266.1l-6.5,3.8L358.7,266.1L358.7,266.1l9.1-5.3L358.7,266.1z"/>
						<polygon class="st9" points="210.7,352.1 242.8,382.3 264.7,391.5 218.2,347.7 						"/>
						<path class="st9" d="M253,362.8l-2.5-2.3L229.8,341l-7.5,4.4l54.3,51.1l4.9,2.1l11.6,4.9c0.4-1.4,0-2.8-1.4-4.1L253,362.8z"/>
					</g>
				</g>
			</g>
			<path class="st10" d="M94.3,262.5c-1.1,0.3-2.2,0.5-3.3,0.8c1.2,0.6,2.3,1.2,3.5,1.8C94.3,264.3,94.2,263.4,94.3,262.5z"/>
			<polygon class="st10" points="304.2,401.9 304.2,401.9 304.2,401.9 			"/>
			<polygon class="st10" points="302.8,409.2 302.8,409.2 302.8,409.2 			"/>
			<polygon class="st10" points="410.3,340.2 410.3,340.2 410.3,340.2 			"/>
			<polygon class="st10" points="327.6,388.3 327.6,388.3 327.6,388.3 			"/>
			<polygon class="st10" points="276.6,396.5 276.6,396.5 276.6,396.5 			"/>
			<polygon class="st10" points="298,405.4 298,405.4 298,405.4 			"/>
			<polygon class="st10" points="312.1,397.3 312.1,397.3 312.1,397.3 			"/>
			<polygon class="st10" points="329.3,387.3 329.3,387.3 329.3,387.3 			"/>
			<polygon class="st10" points="355.8,371.8 355.8,371.8 355.8,371.8 			"/>
			<polygon class="st10" points="441.6,364.7 441.6,364.7 441.6,364.7 			"/>
			<polygon class="st10" points="423.4,332.9 423.4,332.9 423.4,332.9 			"/>
			<polygon class="st10" points="433.5,348.3 433.5,348.3 433.5,348.3 			"/>
			<rect x="424.9" y="335.8" class="st10" width="0" height="0"/>
			<polygon class="st10" points="423.5,332.5 423.5,332.5 423.5,332.5 			"/>
			<polygon class="st10" points="583.1,336.9 583.1,336.9 583.1,336.9 			"/>
			<polygon class="st10" points="544.7,306.5 544.7,306.5 544.7,306.5 			"/>
			<polygon class="st10" points="466.3,307.7 466.3,307.7 466.3,307.7 			"/>
		</g>
		<g>
			<g>
				<path class="st11" d="M160.8,238.7c3.8,2.2,3.8,5.8,0,8c-3.8,2.2-9.9,2.2-13.7,0c-3.8-2.2-3.8-5.8,0-8
					C150.8,236.5,157,236.5,160.8,238.7z"/>
			</g>
			<g>
				<g>
					<g>
						<path class="st12" d="M150.8,180.1c10.8,6.2,19.5,21.3,19.5,33.7c0,5.5-1.7,9.5-4.6,11.8c-1.9,1.5-3.8,3.1-5.5,5l-6.4,6.8
							c-0.8,0.8-1.9,0.7-3.1,0.1c-1.2-0.7-2.3-2-3.1-3.6l-6.3-14.1c-1.6-3.6-3.3-7.2-5.2-10.7c-3.2-6-5-12.6-4.8-18.5
							c0.4-11.6,9-16.3,19.3-10.5C150.6,180,150.7,180.1,150.8,180.1z"/>
					</g>
					<path class="st13" d="M181.7,206.3c0-0.1,0-0.1,0-0.2c0-0.1,0-0.2,0-0.4c0-0.1,0-0.3,0-0.4c0-0.1,0-0.2,0-0.3
						c0-0.1,0-0.3,0-0.4c0-0.1,0-0.2,0-0.2c0-0.2,0-0.4-0.1-0.5c0-0.1,0-0.2,0-0.3c0,0,0-0.1,0-0.1c0-0.3-0.1-0.7-0.1-1c0,0,0,0,0,0
						c0,0,0-0.1,0-0.1c0-0.3-0.1-0.6-0.1-0.8c0,0,0-0.1,0-0.1c0-0.1-0.1-0.3-0.1-0.4c0-0.2-0.1-0.3-0.1-0.5c0-0.1,0-0.2-0.1-0.3
						c0-0.1-0.1-0.3-0.1-0.4c0-0.1,0-0.2-0.1-0.3c0-0.1-0.1-0.3-0.1-0.4c0-0.1-0.1-0.3-0.1-0.4c0-0.1,0-0.1-0.1-0.2
						c-0.1-0.2-0.1-0.4-0.2-0.6c0-0.1-0.1-0.2-0.1-0.4c0,0,0-0.1,0-0.1c-0.1-0.3-0.2-0.7-0.3-1c0,0,0,0,0,0c0,0,0-0.1,0-0.1
						c-0.1-0.3-0.2-0.6-0.3-0.9c0,0,0-0.1-0.1-0.1c0-0.1-0.1-0.2-0.1-0.3c-0.1-0.2-0.1-0.3-0.2-0.5c0-0.1-0.1-0.2-0.1-0.3
						c0-0.1-0.1-0.2-0.1-0.4c0-0.1-0.1-0.2-0.1-0.3c-0.1-0.2-0.2-0.4-0.2-0.5c0-0.1-0.1-0.2-0.1-0.3c0,0,0-0.1,0-0.1
						c-0.1-0.3-0.3-0.6-0.4-0.9c0,0,0,0,0,0c0-0.1-0.1-0.2-0.1-0.3c-0.1-0.2-0.2-0.5-0.3-0.7c0,0,0-0.1-0.1-0.1
						c-0.1-0.2-0.2-0.4-0.3-0.6c-0.1-0.2-0.2-0.3-0.2-0.5c0,0,0-0.1,0-0.1c-0.3-0.5-0.6-1-0.8-1.5c0,0,0-0.1-0.1-0.1
						c-0.1-0.1-0.2-0.3-0.2-0.4c-0.1-0.2-0.2-0.4-0.4-0.6c-0.1-0.2-0.2-0.4-0.3-0.5c-0.1-0.2-0.3-0.4-0.4-0.6c0-0.1-0.1-0.1-0.1-0.2
						c0-0.1-0.1-0.1-0.1-0.2c-0.4-0.5-0.7-1.1-1.1-1.6l0,0c0,0,0,0,0,0c-0.3-0.4-0.5-0.7-0.8-1.1c0,0,0,0,0,0
						c-0.2-0.3-0.4-0.5-0.6-0.8c0,0-0.1-0.1-0.1-0.1c0,0,0,0,0,0c-0.2-0.3-0.5-0.6-0.8-0.9c0,0,0,0,0,0c-0.1-0.1-0.2-0.2-0.2-0.3
						c-0.2-0.2-0.3-0.4-0.5-0.5c0,0-0.1-0.1-0.1-0.1c-0.1-0.1-0.2-0.2-0.3-0.4c-0.1-0.1-0.2-0.3-0.4-0.4c0,0-0.1-0.1-0.1-0.1
						c-0.1-0.1-0.2-0.2-0.4-0.4c-0.1-0.1-0.2-0.2-0.3-0.3c-0.1-0.1-0.1-0.1-0.2-0.2c-0.1-0.1-0.3-0.2-0.4-0.4
						c-0.1-0.1-0.2-0.2-0.3-0.3c-0.1-0.1-0.1-0.1-0.2-0.2c-0.1-0.1-0.3-0.2-0.4-0.4c-0.1-0.1-0.2-0.1-0.2-0.2
						c-0.1-0.1-0.2-0.1-0.3-0.2c-0.1-0.1-0.3-0.2-0.4-0.3c-0.1-0.1-0.1-0.1-0.2-0.2c-0.1-0.1-0.2-0.2-0.3-0.3
						c-0.1-0.1-0.2-0.2-0.4-0.3c-0.1,0-0.1-0.1-0.1-0.1c-0.2-0.1-0.3-0.2-0.5-0.3c-0.1-0.1-0.2-0.1-0.3-0.2c0,0-0.1,0-0.1-0.1
						c-0.3-0.2-0.6-0.4-0.8-0.5c0,0,0,0,0,0c0,0,0,0-0.1,0c-0.3-0.2-0.5-0.3-0.8-0.5c-0.1,0-0.1-0.1-0.2-0.1
						c-0.1-0.1-0.2-0.1-0.3-0.2c-0.1-0.1-0.2-0.1-0.3-0.2c-0.2-0.1-0.3-0.2-0.5-0.2c-0.1,0-0.2-0.1-0.2-0.1c0,0-0.1,0-0.1,0
						c-0.3-0.1-0.5-0.3-0.8-0.4c0,0,0,0,0,0c-0.1,0-0.1,0-0.2-0.1c-0.2-0.1-0.4-0.2-0.6-0.2c0,0-0.1,0-0.1-0.1
						c-0.1,0-0.2-0.1-0.3-0.1c-0.1,0-0.2-0.1-0.3-0.1c-0.1,0-0.2-0.1-0.2-0.1c-0.1,0-0.2-0.1-0.3-0.1c-0.1,0-0.1,0-0.2-0.1
						c-0.1,0-0.2-0.1-0.3-0.1c-0.1,0-0.2-0.1-0.3-0.1c0,0-0.1,0-0.1,0c-0.1,0-0.3-0.1-0.4-0.1c-0.1,0-0.2,0-0.3-0.1c0,0,0,0-0.1,0
						c-0.2,0-0.3-0.1-0.5-0.1c-0.1,0-0.2,0-0.3-0.1c0,0,0,0,0,0c-0.1,0-0.3,0-0.4,0c-0.1,0-0.3,0-0.4,0c0,0,0,0,0,0
						c-0.1,0-0.2,0-0.3,0c-0.2,0-0.4,0-0.6,0c0,0,0,0-0.1,0c-0.1,0-0.1,0-0.2,0c-0.2,0-0.4,0-0.7,0c0,0-0.1,0-0.1,0
						c-0.1,0-0.2,0-0.4,0c-0.1,0-0.1,0-0.2,0c-0.2,0-0.4,0.1-0.6,0.1c0,0,0,0-0.1,0c-0.1,0-0.2,0-0.3,0.1c-0.1,0-0.3,0.1-0.4,0.1
						c-0.1,0-0.2,0.1-0.3,0.1c-0.1,0-0.2,0.1-0.3,0.1c0,0-0.1,0-0.1,0c-0.2,0.1-0.4,0.1-0.5,0.2c-0.1,0-0.2,0.1-0.2,0.1
						c-0.3,0.1-0.5,0.2-0.7,0.4l-11.4,6.6c0.2-0.1,0.5-0.3,0.7-0.4c0.1,0,0.2-0.1,0.2-0.1c0.2-0.1,0.3-0.1,0.5-0.2
						c0.1,0,0.3-0.1,0.4-0.1c0.1,0,0.2-0.1,0.3-0.1c0.1,0,0.3-0.1,0.4-0.1c0.1,0,0.2,0,0.3-0.1c0.2,0,0.5-0.1,0.7-0.1
						c0.1,0,0.1,0,0.2,0c0.2,0,0.3,0,0.5,0c0.2,0,0.4,0,0.7,0c0.1,0,0.2,0,0.3,0c0.2,0,0.4,0,0.6,0c0.1,0,0.2,0,0.3,0
						c0.1,0,0.3,0,0.4,0c0.1,0,0.3,0,0.4,0c0.1,0,0.2,0,0.4,0.1c0.2,0,0.3,0.1,0.5,0.1c0.1,0,0.2,0,0.3,0.1c0.2,0,0.4,0.1,0.6,0.1
						c0.1,0,0.2,0.1,0.3,0.1c0.2,0.1,0.4,0.1,0.6,0.2c0.1,0,0.2,0.1,0.3,0.1c0.2,0.1,0.4,0.1,0.6,0.2c0.1,0,0.2,0.1,0.3,0.1
						c0.2,0.1,0.5,0.2,0.7,0.3c0.1,0,0.1,0,0.2,0.1c0.3,0.1,0.6,0.3,0.9,0.4c0.1,0,0.2,0.1,0.2,0.1c0.3,0.1,0.5,0.3,0.8,0.4
						c0.1,0.1,0.2,0.1,0.3,0.2c0.3,0.2,0.6,0.4,0.9,0.6c0,0,0,0,0.1,0c0.3,0.2,0.6,0.4,0.9,0.6c0.1,0.1,0.2,0.1,0.3,0.2
						c0.2,0.1,0.4,0.3,0.6,0.4c0.1,0.1,0.2,0.2,0.4,0.3c0.2,0.1,0.4,0.3,0.5,0.4c0.1,0.1,0.3,0.2,0.4,0.3c0.2,0.1,0.3,0.3,0.5,0.4
						c0.1,0.1,0.3,0.2,0.4,0.4c0.2,0.1,0.3,0.3,0.5,0.5c0.1,0.1,0.3,0.2,0.4,0.4c0.2,0.2,0.3,0.3,0.5,0.5c0.1,0.1,0.2,0.2,0.4,0.4
						c0.2,0.2,0.3,0.3,0.5,0.5c0.1,0.1,0.2,0.2,0.3,0.4c0.2,0.2,0.4,0.4,0.6,0.6c0.1,0.1,0.2,0.2,0.2,0.3c0.3,0.3,0.5,0.6,0.8,0.9
						c0,0,0.1,0.1,0.1,0.1c0.2,0.3,0.4,0.5,0.7,0.8c0.3,0.4,0.5,0.7,0.8,1.1c0,0,0,0,0,0c0.4,0.5,0.7,1,1.1,1.6
						c0.1,0.1,0.2,0.3,0.3,0.4c0.1,0.2,0.3,0.4,0.4,0.6c0.1,0.2,0.2,0.4,0.3,0.5c0.1,0.2,0.2,0.4,0.4,0.6c0.1,0.2,0.2,0.3,0.3,0.5
						c0.3,0.5,0.6,1,0.8,1.5c0.1,0.2,0.2,0.4,0.3,0.6c0.1,0.2,0.2,0.4,0.3,0.6c0.1,0.3,0.3,0.6,0.4,0.8c0,0.1,0.1,0.2,0.1,0.3
						c0.2,0.4,0.3,0.7,0.5,1.1c0,0.1,0.1,0.2,0.1,0.3c0.1,0.3,0.2,0.5,0.3,0.8c0.1,0.1,0.1,0.2,0.1,0.4c0.1,0.3,0.2,0.5,0.3,0.8
						c0,0.1,0.1,0.2,0.1,0.3c0.1,0.3,0.2,0.7,0.4,1c0,0,0,0.1,0,0.1c0.1,0.4,0.2,0.8,0.4,1.1c0,0.1,0.1,0.2,0.1,0.4
						c0.1,0.3,0.2,0.5,0.2,0.8c0,0.1,0.1,0.3,0.1,0.4c0.1,0.2,0.1,0.5,0.2,0.7c0,0.1,0.1,0.3,0.1,0.4c0.1,0.2,0.1,0.5,0.2,0.7
						c0,0.1,0.1,0.3,0.1,0.4c0.1,0.3,0.1,0.7,0.2,1c0,0,0,0.1,0,0.1c0.1,0.4,0.1,0.7,0.2,1.1c0,0.1,0,0.2,0,0.3
						c0,0.3,0.1,0.5,0.1,0.8c0,0.1,0,0.3,0,0.4c0,0.2,0,0.5,0,0.7c0,0.1,0,0.2,0,0.4c0,0.4,0,0.7,0,1c0,0.3,0,0.7,0,1
						c0,0.1,0,0.1,0,0.2c0,0.2,0,0.5,0,0.7c0,0.1,0,0.3,0,0.4c0,0.2,0,0.3-0.1,0.5c0,0.2-0.1,0.4-0.1,0.5c0,0.1,0,0.3-0.1,0.4
						c-0.1,0.3-0.1,0.6-0.2,0.9c0,0,0,0.1,0,0.1c-0.1,0.3-0.1,0.6-0.2,0.8c0,0.1-0.1,0.2-0.1,0.3c-0.1,0.2-0.2,0.5-0.2,0.7
						c0,0.1-0.1,0.2-0.1,0.3c-0.1,0.3-0.3,0.7-0.4,1c-0.1,0.1-0.1,0.2-0.2,0.4c-0.1,0.1-0.1,0.2-0.2,0.3c-0.1,0.1-0.1,0.2-0.2,0.3
						c-0.1,0.1-0.1,0.2-0.2,0.3c0,0-0.1,0.1-0.1,0.1c-0.1,0.2-0.3,0.4-0.4,0.6c-0.1,0.1-0.1,0.1-0.2,0.2c-0.1,0.1-0.2,0.3-0.3,0.4
						c-0.1,0.1-0.1,0.1-0.2,0.2c-0.1,0.1-0.3,0.3-0.4,0.4c-0.1,0.1-0.1,0.1-0.2,0.2c-0.2,0.2-0.4,0.3-0.6,0.5
						c-1.9,1.5-3.8,3.1-5.5,5l-6.4,6.8c-0.1,0.1-0.1,0.1-0.2,0.2c-0.1,0.1-0.1,0.1-0.2,0.2l0,0l0,0l11.4-6.6
						c0.2-0.1,0.3-0.2,0.4-0.3l6.4-6.8c1.7-1.8,3.6-3.4,5.5-5c0.2-0.2,0.4-0.3,0.6-0.5c0.1-0.1,0.1-0.1,0.2-0.2
						c0.1-0.1,0.3-0.3,0.4-0.4c0.1-0.1,0.1-0.1,0.2-0.2c0.1-0.1,0.2-0.3,0.3-0.4c0.1-0.1,0.1-0.1,0.2-0.2c0.1-0.2,0.3-0.4,0.4-0.6
						c0,0,0-0.1,0.1-0.1c0,0,0,0,0,0c0.1-0.1,0.1-0.2,0.2-0.3c0.1-0.1,0.1-0.2,0.2-0.3c0.1-0.1,0.1-0.2,0.2-0.3
						c0.1-0.1,0.1-0.2,0.2-0.3c0,0,0,0,0,0c0.2-0.3,0.3-0.7,0.4-1c0,0,0-0.1,0-0.1c0,0,0-0.1,0.1-0.2c0.1-0.2,0.2-0.5,0.2-0.7
						c0-0.1,0-0.1,0.1-0.2c0,0,0-0.1,0-0.1c0.1-0.3,0.1-0.5,0.2-0.8c0,0,0-0.1,0-0.1c0,0,0,0,0,0c0.1-0.3,0.1-0.6,0.2-0.9
						c0,0,0,0,0,0c0-0.1,0-0.2,0.1-0.4c0-0.2,0.1-0.4,0.1-0.5c0,0,0,0,0,0c0-0.2,0-0.3,0-0.5c0-0.1,0-0.3,0-0.4c0,0,0,0,0,0
						c0-0.2,0-0.5,0-0.7c0-0.1,0-0.1,0-0.2c0,0,0,0,0,0c0-0.3,0-0.6,0-0.9c0,0,0,0,0-0.1C181.7,206.9,181.7,206.6,181.7,206.3z"/>
				</g>
				<g>
					<g>
						<path class="st13" d="M165,209.5C165,209.5,165,209.5,165,209.5c0-0.2,0-0.5,0-0.7c0,0,0-0.1,0-0.1c0-0.1,0-0.2,0-0.2
							c0-0.1,0-0.2,0-0.3c0-0.1,0-0.2,0-0.2c0-0.1,0-0.2,0-0.3c0-0.1,0-0.1,0-0.2c0-0.1,0-0.3,0-0.4c0-0.1,0-0.1,0-0.2
							c0,0,0,0,0-0.1c0-0.2-0.1-0.5-0.1-0.7c0,0,0,0,0,0c0,0,0-0.1,0-0.1c0-0.2-0.1-0.4-0.1-0.6c0,0,0-0.1,0-0.1
							c0-0.1,0-0.2-0.1-0.3c0-0.1,0-0.2-0.1-0.3c0-0.1,0-0.1,0-0.2c0-0.1,0-0.2-0.1-0.3c0-0.1,0-0.2-0.1-0.2c0-0.1,0-0.2-0.1-0.3
							c0-0.1-0.1-0.2-0.1-0.3c0,0,0-0.1,0-0.1c0-0.1-0.1-0.3-0.1-0.4c0-0.1,0-0.2-0.1-0.3c0,0,0,0,0-0.1c-0.1-0.2-0.1-0.5-0.2-0.7
							c0,0,0,0,0,0c0,0,0,0,0-0.1c-0.1-0.2-0.1-0.4-0.2-0.6c0,0,0-0.1,0-0.1c0-0.1-0.1-0.2-0.1-0.2c0-0.1-0.1-0.2-0.1-0.3
							c0-0.1-0.1-0.1-0.1-0.2c0-0.1-0.1-0.2-0.1-0.3c0-0.1-0.1-0.1-0.1-0.2c-0.1-0.1-0.1-0.3-0.2-0.4c0-0.1-0.1-0.1-0.1-0.2
							c0,0,0,0,0-0.1c-0.1-0.2-0.2-0.4-0.3-0.7c0,0,0,0,0,0c0-0.1-0.1-0.1-0.1-0.2c-0.1-0.2-0.2-0.3-0.2-0.5c0,0,0-0.1,0-0.1
							c-0.1-0.1-0.1-0.3-0.2-0.4c-0.1-0.1-0.1-0.2-0.2-0.3c0,0,0-0.1-0.1-0.1c0-0.1-0.1-0.1-0.1-0.2c-0.1-0.2-0.2-0.4-0.3-0.5
							c0-0.1-0.1-0.1-0.1-0.2c0,0-0.1-0.1-0.1-0.1c-0.1-0.1-0.1-0.2-0.2-0.3c-0.1-0.1-0.2-0.3-0.3-0.4c-0.1-0.1-0.2-0.3-0.2-0.4
							c-0.1-0.1-0.2-0.3-0.3-0.4c0,0-0.1-0.1-0.1-0.1c-0.1-0.1-0.1-0.2-0.2-0.3c-0.1-0.1-0.1-0.1-0.2-0.2c-0.2-0.2-0.3-0.5-0.5-0.7
							c0,0,0,0,0,0l0,0c0,0,0,0,0,0c-0.2-0.3-0.4-0.5-0.6-0.8c0,0,0,0,0,0c-0.1-0.2-0.3-0.4-0.4-0.5c0,0-0.1-0.1-0.1-0.1
							c0,0,0,0,0,0c-0.2-0.2-0.4-0.4-0.5-0.6c0,0,0,0,0,0c-0.1-0.1-0.1-0.1-0.2-0.2c-0.1-0.1-0.2-0.3-0.3-0.4c0,0,0,0-0.1-0.1
							c-0.1-0.1-0.2-0.2-0.2-0.2c-0.1-0.1-0.2-0.2-0.3-0.3c0,0-0.1-0.1-0.1-0.1c-0.1-0.1-0.2-0.2-0.3-0.3c-0.1-0.1-0.1-0.1-0.2-0.2
							c0,0-0.1-0.1-0.1-0.1c-0.1-0.1-0.2-0.2-0.3-0.3c-0.1-0.1-0.1-0.1-0.2-0.2c-0.1,0-0.1-0.1-0.2-0.1c-0.1-0.1-0.2-0.2-0.3-0.2
							c-0.1,0-0.1-0.1-0.2-0.1c-0.1-0.1-0.1-0.1-0.2-0.2c-0.1-0.1-0.2-0.2-0.3-0.2c0,0-0.1-0.1-0.1-0.1c-0.1-0.1-0.2-0.1-0.2-0.2
							c-0.1-0.1-0.2-0.1-0.3-0.2c0,0-0.1-0.1-0.1-0.1c-0.1-0.1-0.2-0.2-0.3-0.2c-0.1-0.1-0.1-0.1-0.2-0.2c0,0,0,0-0.1,0
							c-0.2-0.1-0.4-0.3-0.6-0.4c0,0,0,0,0,0c0,0,0,0,0,0c-0.2-0.1-0.4-0.2-0.5-0.3c0,0-0.1-0.1-0.1-0.1c-0.1-0.1-0.3-0.2-0.4-0.2
							c0,0,0,0,0,0c0,0,0,0-0.1,0c-0.2-0.1-0.3-0.2-0.4-0.2c0,0,0,0-0.1,0c0,0,0,0,0,0c-0.2-0.1-0.3-0.2-0.5-0.2c0,0,0,0,0,0
							c0,0,0,0-0.1,0c-0.3-0.1-0.7-0.3-1-0.4c0,0,0,0-0.1,0c0,0,0,0,0,0c-0.2-0.1-0.3-0.1-0.5-0.2c0,0,0,0,0,0c0,0,0,0-0.1,0
							c-0.2-0.1-0.3-0.1-0.5-0.1c0,0,0,0,0,0c0,0,0,0,0,0c-0.2,0-0.3-0.1-0.5-0.1c0,0,0,0-0.1,0c0,0,0,0,0,0c0,0-0.1,0-0.1,0
							c-0.1,0-0.1,0-0.2,0c0,0-0.1,0-0.1,0c0,0-0.1,0-0.1,0c0,0,0,0-0.1,0c-0.1,0-0.1,0-0.1,0c-0.1,0-0.1,0-0.2,0c0,0-0.1,0-0.1,0
							c0,0-0.1,0-0.1,0c0,0,0,0-0.1,0c-0.1,0-0.1,0-0.2,0c0,0-0.1,0-0.1,0c-0.1,0-0.1,0-0.2,0c0,0-0.1,0-0.1,0c0,0,0,0,0,0
							c-0.1,0-0.2,0-0.2,0c0,0-0.1,0-0.1,0c-0.1,0-0.2,0-0.3,0c0,0,0,0,0,0c0,0,0,0,0,0c-0.1,0-0.2,0-0.3,0c0,0-0.1,0-0.1,0
							c-0.1,0-0.2,0-0.3,0.1c0,0,0,0,0,0c0,0,0,0,0,0c-0.1,0-0.3,0.1-0.4,0.1c0,0,0,0-0.1,0c-0.1,0-0.3,0.1-0.4,0.1c0,0,0,0,0,0
							c0,0,0,0-0.1,0c-0.1,0-0.1,0-0.2,0.1c0,0-0.1,0-0.1,0c-0.1,0-0.1,0-0.2,0.1c0,0-0.1,0-0.1,0c-0.1,0-0.1,0.1-0.2,0.1
							c0,0-0.1,0-0.1,0c-0.1,0-0.2,0.1-0.3,0.1l-4.3,2.5c0.1,0,0.2-0.1,0.3-0.1c0,0,0.1,0,0.1,0c0.1,0,0.1-0.1,0.2-0.1
							c0,0,0.1,0,0.1,0c0.1,0,0.1,0,0.2-0.1c0,0,0.1,0,0.1,0c0.1,0,0.1,0,0.2-0.1c0,0,0.1,0,0.1,0c0.1,0,0.3-0.1,0.4-0.1
							c0,0,0,0,0.1,0c0.1,0,0.3-0.1,0.4-0.1c0,0,0,0,0.1,0c0.1,0,0.2,0,0.3-0.1c0,0,0.1,0,0.1,0c0.1,0,0.2,0,0.3,0c0,0,0,0,0.1,0
							c0.1,0,0.2,0,0.3,0c0,0,0.1,0,0.1,0c0.1,0,0.2,0,0.2,0c0,0,0.1,0,0.1,0c0.1,0,0.1,0,0.2,0c0,0,0.1,0,0.1,0c0.1,0,0.1,0,0.2,0
							c0.1,0,0.1,0,0.2,0c0,0,0.1,0,0.1,0c0.1,0,0.1,0,0.2,0c0,0,0.1,0,0.2,0c0.1,0,0.1,0,0.2,0c0,0,0.1,0,0.1,0c0.1,0,0.1,0,0.2,0
							c0,0,0.1,0,0.1,0c0,0,0.1,0,0.1,0c0.2,0,0.3,0.1,0.5,0.1c0,0,0,0,0,0c0.2,0,0.3,0.1,0.5,0.1c0,0,0.1,0,0.1,0
							c0.2,0,0.3,0.1,0.5,0.2c0,0,0.1,0,0.1,0c0.2,0.1,0.3,0.1,0.5,0.2l0,0c0.2,0.1,0.3,0.1,0.5,0.2c0,0,0.1,0,0.1,0
							c0.2,0.1,0.3,0.1,0.5,0.2c0,0,0.1,0,0.1,0c0.1,0.1,0.3,0.2,0.4,0.2c0,0,0.1,0,0.1,0c0.1,0.1,0.3,0.1,0.4,0.2
							c0.2,0.1,0.4,0.3,0.7,0.4c0,0,0,0,0,0c0.2,0.1,0.4,0.3,0.6,0.4c0.1,0.1,0.1,0.1,0.2,0.2c0.1,0.1,0.3,0.2,0.4,0.3
							c0.1,0.1,0.2,0.1,0.3,0.2c0.1,0.1,0.3,0.2,0.4,0.3c0.1,0.1,0.2,0.2,0.3,0.2c0.1,0.1,0.2,0.2,0.4,0.3c0.1,0.1,0.2,0.2,0.3,0.2
							c0.1,0.1,0.2,0.2,0.3,0.3c0.1,0.1,0.2,0.2,0.3,0.3c0.1,0.1,0.2,0.2,0.3,0.3c0.1,0.1,0.2,0.2,0.3,0.3c0.1,0.1,0.2,0.2,0.4,0.4
							c0.1,0.1,0.2,0.2,0.2,0.2c0.1,0.1,0.3,0.3,0.4,0.4c0.1,0.1,0.1,0.1,0.2,0.2c0.2,0.2,0.4,0.4,0.6,0.7c0,0,0.1,0.1,0.1,0.1
							c0.2,0.2,0.3,0.4,0.5,0.6c0.2,0.2,0.4,0.5,0.6,0.8c0,0,0,0,0,0c0,0,0,0,0,0c0.2,0.2,0.3,0.5,0.5,0.7c0.1,0.1,0.1,0.1,0.2,0.2
							c0.1,0.2,0.2,0.3,0.3,0.5c0.1,0.1,0.2,0.3,0.3,0.4c0.1,0.1,0.2,0.2,0.2,0.4c0.1,0.1,0.2,0.3,0.3,0.4c0.1,0.1,0.2,0.3,0.2,0.4
							c0,0.1,0.1,0.1,0.1,0.2c0.1,0.2,0.2,0.4,0.3,0.5c0,0.1,0.1,0.1,0.1,0.2c0.1,0.1,0.1,0.3,0.2,0.4c0.1,0.1,0.1,0.3,0.2,0.4
							c0.1,0.2,0.2,0.4,0.3,0.6c0,0.1,0.1,0.1,0.1,0.2c0.1,0.3,0.2,0.5,0.3,0.8c0,0.1,0.1,0.1,0.1,0.2c0.1,0.2,0.2,0.4,0.2,0.6
							c0,0.1,0.1,0.2,0.1,0.3c0.1,0.2,0.1,0.4,0.2,0.5c0,0.1,0.1,0.2,0.1,0.2c0.1,0.2,0.2,0.5,0.3,0.7c0,0,0,0,0,0.1
							c0.1,0.3,0.2,0.5,0.3,0.8c0,0.1,0,0.2,0.1,0.3c0.1,0.2,0.1,0.4,0.2,0.5c0,0.1,0.1,0.2,0.1,0.3c0,0.2,0.1,0.3,0.1,0.5
							c0,0.1,0,0.2,0.1,0.3c0,0.2,0.1,0.3,0.1,0.5c0,0.1,0,0.2,0.1,0.3c0,0.2,0.1,0.5,0.1,0.7c0,0,0,0.1,0,0.1
							c0,0.3,0.1,0.5,0.1,0.8c0,0.1,0,0.1,0,0.2c0,0.2,0,0.4,0.1,0.6c0,0.1,0,0.2,0,0.3c0,0.2,0,0.3,0,0.5c0,0.1,0,0.2,0,0.2
							c0,0.2,0,0.5,0,0.7c0,0,0,0.1,0,0.1c0,0.2,0,0.4,0,0.6c0,0,0,0.1,0,0.1c0,0.2,0,0.4,0,0.6c0,0,0,0.1,0,0.1
							c0,0.2,0,0.4-0.1,0.6c0,0,0,0,0,0.1c0,0.2-0.1,0.4-0.1,0.6c0,0,0,0,0,0c0,0.2-0.1,0.4-0.1,0.7l0,0c0,0.1-0.1,0.2-0.1,0.3
							c0,0,0,0.1,0,0.1c0,0.1,0,0.1-0.1,0.2c0,0,0,0.1,0,0.1c0,0.1,0,0.2-0.1,0.2c0,0,0,0.1,0,0.1c0,0.1,0,0.1-0.1,0.2
							c0,0,0,0.1,0,0.1c0,0.1-0.1,0.2-0.1,0.3c0,0,0,0.1,0,0.1c0,0.1-0.1,0.2-0.2,0.3c0,0,0,0,0,0.1c-0.1,0.2-0.1,0.3-0.2,0.4l0,0
							c-0.1,0.1-0.2,0.3-0.2,0.4c0,0,0,0,0,0.1c-0.1,0.1-0.1,0.2-0.2,0.3c0,0,0,0-0.1,0.1c-0.1,0.1-0.1,0.2-0.2,0.3c0,0,0,0,0,0
							c-0.1,0.1-0.2,0.2-0.2,0.3c0,0,0,0-0.1,0.1c-0.1,0.1-0.2,0.2-0.2,0.2c0,0,0,0,0,0c-0.1,0.1-0.2,0.2-0.3,0.2c0,0,0,0-0.1,0.1
							c-0.1,0.1-0.2,0.1-0.3,0.2c0,0,0,0,0,0c-0.1,0.1-0.2,0.1-0.3,0.2c0,0,0,0-0.1,0c-0.1,0.1-0.2,0.1-0.3,0.2l0,0l0,0l4.3-2.5
							c0.1-0.1,0.2-0.1,0.3-0.2c0,0,0,0,0.1,0c0.1-0.1,0.2-0.1,0.3-0.2c0,0,0,0,0,0c0.1-0.1,0.2-0.1,0.3-0.2c0,0,0,0,0.1-0.1
							c0.1-0.1,0.2-0.2,0.3-0.2c0,0,0,0,0,0c0.1-0.1,0.2-0.2,0.2-0.2c0,0,0,0,0.1-0.1c0.1-0.1,0.2-0.2,0.2-0.3c0,0,0,0,0,0
							c0.1-0.1,0.1-0.2,0.2-0.3c0,0,0,0,0.1-0.1c0.1-0.1,0.1-0.2,0.2-0.3c0,0,0,0,0,0c0,0,0,0,0,0c0.1-0.1,0.2-0.3,0.2-0.4l0,0
							c0.1-0.1,0.2-0.3,0.2-0.4c0,0,0,0,0,0c0,0,0,0,0,0c0.1-0.1,0.1-0.2,0.2-0.3c0,0,0-0.1,0-0.1c0-0.1,0.1-0.2,0.1-0.3
							c0,0,0,0,0-0.1c0,0,0,0,0-0.1c0-0.1,0-0.1,0.1-0.2c0,0,0-0.1,0-0.1c0-0.1,0.1-0.2,0.1-0.2c0,0,0-0.1,0-0.1c0,0,0,0,0,0
							c0-0.1,0-0.2,0.1-0.2c0,0,0-0.1,0-0.1c0-0.1,0.1-0.2,0.1-0.3v0l0,0c0-0.2,0.1-0.4,0.1-0.7c0,0,0,0,0,0c0,0,0,0,0,0
							c0-0.2,0.1-0.4,0.1-0.6c0,0,0,0,0,0c0,0,0,0,0,0c0-0.2,0-0.4,0.1-0.6c0,0,0,0,0-0.1c0,0,0,0,0-0.1c0-0.2,0-0.4,0-0.6
							c0,0,0,0,0,0c0,0,0,0,0-0.1C165,209.9,165,209.7,165,209.5C165,209.5,165,209.5,165,209.5z"/>
						<g>
							<path class="st5" d="M147,188.3c7.6,4.4,13.7,15,13.7,23.6c0,8.7-6.2,12.2-13.7,7.8c-7.6-4.4-13.7-15-13.7-23.6
								C133.3,187.5,139.5,184,147,188.3z"/>
						</g>
					</g>
					<g>
						<g>
							<path class="st14" d="M147.1,215.9c-5.8-3.3-10.4-11.4-10.4-18.1c0-6.6,4.7-9.3,10.5-6c5.8,3.3,10.4,11.4,10.4,18.1
								C157.5,216.6,152.9,219.3,147.1,215.9z"/>
						</g>
						<path class="st13" d="M156,215.7C156,215.7,155.9,215.7,156,215.7C155.9,215.7,155.9,215.7,156,215.7c-0.2,0-0.2,0-0.3,0
							c0,0,0,0,0,0c-0.1,0-0.2,0-0.3,0c0,0,0,0-0.1,0c-0.1,0-0.1,0-0.2,0c0,0-0.1,0-0.1,0c0,0-0.1,0-0.1,0c0,0-0.1,0-0.1,0
							c0,0-0.1,0-0.1,0c0,0-0.1,0-0.1,0c0,0-0.1,0-0.1,0c0,0-0.1,0-0.1,0c0,0-0.1,0-0.1,0c0,0-0.1,0-0.1,0c0,0-0.1,0-0.1,0
							c0,0-0.1,0-0.1,0c0,0-0.1,0-0.1,0c0,0-0.1,0-0.1,0c-0.1,0-0.3-0.1-0.4-0.1c0,0,0,0,0,0c-0.1,0-0.3-0.1-0.4-0.1c0,0,0,0-0.1,0
							c-0.1,0-0.2-0.1-0.4-0.1c0,0-0.1,0-0.1,0c-0.1,0-0.3-0.1-0.4-0.1l0,0c-0.1-0.1-0.3-0.1-0.4-0.2c0,0-0.1,0-0.1,0
							c-0.1-0.1-0.2-0.1-0.4-0.2c0,0,0,0-0.1,0c-0.1-0.1-0.2-0.1-0.3-0.2c0,0,0,0-0.1,0c-0.1-0.1-0.2-0.1-0.3-0.2
							c-0.2-0.1-0.3-0.2-0.5-0.3c0,0,0,0,0,0c-0.2-0.1-0.3-0.2-0.5-0.3c-0.1,0-0.1-0.1-0.2-0.1c-0.1-0.1-0.2-0.2-0.3-0.2
							c-0.1,0-0.1-0.1-0.2-0.2c-0.1-0.1-0.2-0.2-0.3-0.2c-0.1-0.1-0.1-0.1-0.2-0.2c-0.1-0.1-0.2-0.2-0.3-0.2
							c-0.1-0.1-0.1-0.1-0.2-0.2c-0.1-0.1-0.2-0.2-0.3-0.2c-0.1-0.1-0.1-0.1-0.2-0.2c-0.1-0.1-0.2-0.2-0.3-0.3
							c-0.1-0.1-0.1-0.1-0.2-0.2c-0.1-0.1-0.2-0.2-0.3-0.3c-0.1-0.1-0.1-0.1-0.2-0.2c-0.1-0.1-0.2-0.2-0.3-0.3c0,0-0.1-0.1-0.1-0.1
							c-0.1-0.2-0.3-0.3-0.4-0.5c0,0,0-0.1-0.1-0.1c-0.1-0.1-0.2-0.3-0.4-0.4c-0.2-0.2-0.3-0.4-0.4-0.6c0,0,0,0,0,0c0,0,0,0,0,0
							c-0.1-0.2-0.3-0.4-0.4-0.5c0-0.1-0.1-0.1-0.1-0.2c-0.1-0.1-0.2-0.2-0.2-0.4c-0.1-0.1-0.1-0.2-0.2-0.3
							c-0.1-0.1-0.1-0.2-0.2-0.3c-0.1-0.1-0.1-0.2-0.2-0.3c-0.1-0.1-0.1-0.2-0.2-0.3c0-0.1-0.1-0.1-0.1-0.2
							c-0.1-0.1-0.2-0.3-0.2-0.4c0-0.1-0.1-0.1-0.1-0.2c-0.1-0.1-0.1-0.2-0.2-0.3c-0.1-0.1-0.1-0.2-0.2-0.3
							c-0.1-0.2-0.1-0.3-0.2-0.5c0,0,0-0.1-0.1-0.1c-0.1-0.2-0.2-0.4-0.3-0.6c0-0.1,0-0.1-0.1-0.2c-0.1-0.1-0.1-0.3-0.2-0.4
							c0-0.1-0.1-0.1-0.1-0.2c-0.1-0.1-0.1-0.3-0.2-0.4c0-0.1,0-0.1-0.1-0.2c-0.1-0.2-0.1-0.4-0.2-0.6c0,0,0,0,0,0
							c-0.1-0.2-0.1-0.4-0.2-0.6c0-0.1,0-0.1-0.1-0.2c0-0.1-0.1-0.3-0.1-0.4c0-0.1,0-0.2-0.1-0.2c0-0.1-0.1-0.3-0.1-0.4
							c0-0.1,0-0.2-0.1-0.2c0-0.1-0.1-0.3-0.1-0.4c0-0.1,0-0.1,0-0.2c0-0.2-0.1-0.4-0.1-0.5c0,0,0-0.1,0-0.1c0-0.2-0.1-0.4-0.1-0.6
							c0-0.1,0-0.1,0-0.2c0-0.1,0-0.3,0-0.4c0-0.1,0-0.1,0-0.2c0-0.1,0-0.3,0-0.4c0-0.1,0-0.1,0-0.2c0-0.2,0-0.4,0-0.6
							c0,0,0,0,0-0.1c0-0.1,0-0.3,0-0.4c0,0,0,0,0-0.1c0-0.1,0-0.3,0-0.4c0,0,0-0.1,0-0.1c0-0.2,0-0.3,0-0.4c0,0,0,0,0-0.1
							c0-0.2,0-0.3,0.1-0.5c0,0,0,0,0,0c0-0.2,0.1-0.3,0.1-0.5l0,0c0-0.1,0-0.2,0.1-0.3c0,0,0-0.1,0-0.1c0-0.1,0-0.1,0-0.2
							c0,0,0-0.1,0-0.1c0-0.1,0-0.1,0.1-0.2c0,0,0-0.1,0-0.1c0-0.1,0-0.1,0.1-0.2c0,0,0-0.1,0-0.1c0-0.1,0.1-0.1,0.1-0.2
							c0,0,0,0,0-0.1c0-0.1,0.1-0.2,0.1-0.3c0,0,0,0,0,0c0.1-0.1,0.1-0.2,0.2-0.3l0,0c0.1-0.1,0.1-0.2,0.2-0.3c0,0,0,0,0,0
							c0.1-0.1,0.1-0.2,0.2-0.2c0,0,0,0,0-0.1c0-0.1,0.1-0.1,0.1-0.2c-0.7,0.1-1.3,0.3-1.9,0.7c-0.1,0-0.1,0.1-0.2,0.1c0,0,0,0,0,0
							c0,0,0,0-0.1,0c-0.1,0-0.1,0.1-0.2,0.2c0,0,0,0,0,0c-0.1,0-0.1,0.1-0.2,0.2l0,0c0,0,0,0-0.1,0c-0.1,0.1-0.1,0.1-0.2,0.2
							c0,0,0,0,0,0c-0.1,0.1-0.1,0.1-0.2,0.2c0,0,0,0,0,0c-0.1,0.1-0.1,0.1-0.2,0.2c0,0,0,0,0,0c-0.1,0.1-0.1,0.1-0.2,0.2
							c0,0,0,0,0,0.1c-0.1,0.1-0.1,0.2-0.2,0.2c0,0,0,0,0,0c-0.1,0.1-0.1,0.2-0.2,0.3c0,0,0,0,0,0c-0.1,0.1-0.1,0.2-0.2,0.3
							c0,0,0,0,0,0c0,0,0,0,0,0c0,0,0,0,0,0c0,0.1-0.1,0.2-0.1,0.3c0,0,0,0,0,0.1c0,0.1-0.1,0.1-0.1,0.2c0,0,0,0.1,0,0.1
							c0,0,0,0,0,0c0,0.1,0,0.1-0.1,0.2c0,0,0,0,0,0c0,0,0,0.1,0,0.1c0,0.1,0,0.1-0.1,0.2c0,0,0,0,0,0c0,0,0,0,0,0.1c0,0,0,0,0,0
							c0,0.1,0,0.1,0,0.2c0,0,0,0.1,0,0.1c0,0.1,0,0.2-0.1,0.3c0,0,0,0,0,0c0,0.2-0.1,0.3-0.1,0.5c0,0,0,0,0,0l0,0c0,0,0,0,0,0
							c0,0.2,0,0.3-0.1,0.5c0,0,0,0,0,0c0,0,0,0,0,0.1c0,0,0,0,0,0c0,0.1,0,0.3,0,0.4c0,0,0,0.1,0,0.1l0,0c0,0.1,0,0.3,0,0.4
							c0,0,0,0.1,0,0.1c0,0.1,0,0.3,0,0.4v0c0,0,0,0,0,0.1v0c0,0.2,0,0.4,0,0.6v0c0,0.1,0,0.1,0,0.2c0,0.1,0,0.3,0,0.4
							c0,0.1,0,0.1,0,0.2c0,0.1,0,0.3,0,0.4v0c0,0.1,0,0.1,0,0.2l0,0c0,0.2,0.1,0.4,0.1,0.6c0,0,0,0,0,0.1c0,0.2,0.1,0.4,0.1,0.5
							c0,0.1,0,0.1,0,0.2c0,0.1,0.1,0.3,0.1,0.4c0,0.1,0,0.2,0.1,0.2c0,0.1,0.1,0.3,0.1,0.4c0,0.1,0,0.2,0.1,0.2
							c0,0.1,0.1,0.3,0.1,0.4c0,0.1,0,0.1,0.1,0.2c0.1,0.2,0.1,0.4,0.2,0.6c0,0,0,0,0,0c0.1,0.2,0.1,0.4,0.2,0.6
							c0,0.1,0,0.1,0.1,0.2c0.1,0.1,0.1,0.3,0.2,0.4c0,0.1,0.1,0.1,0.1,0.2c0.1,0.1,0.1,0.3,0.2,0.4c0,0.1,0,0.1,0.1,0.2
							c0.1,0.2,0.2,0.4,0.3,0.6c0,0,0,0.1,0.1,0.1c0.1,0.2,0.1,0.3,0.2,0.5c0.1,0.1,0.1,0.2,0.2,0.3c0.1,0.1,0.1,0.2,0.2,0.3
							c0,0,0.1,0.1,0.1,0.1c0.1,0.1,0.2,0.3,0.2,0.4c0,0.1,0.1,0.1,0.1,0.2c0.1,0.1,0.1,0.2,0.2,0.3c0.1,0.1,0.1,0.2,0.2,0.3
							c0.1,0.1,0.1,0.2,0.2,0.3c0.1,0.1,0.1,0.2,0.2,0.3c0.1,0.1,0.2,0.2,0.2,0.4c0,0.1,0.1,0.1,0.1,0.2c0.1,0.2,0.3,0.4,0.4,0.6
							c0.1,0.2,0.3,0.4,0.4,0.6c0.1,0.2,0.2,0.3,0.4,0.5c0,0,0,0,0.1,0.1c0.1,0.2,0.3,0.3,0.4,0.5c0,0,0.1,0.1,0.1,0.1
							c0.1,0.1,0.2,0.2,0.3,0.4c0.1,0.1,0.1,0.1,0.2,0.2c0.1,0.1,0.2,0.2,0.3,0.3c0.1,0.1,0.1,0.1,0.2,0.2c0.1,0.1,0.2,0.2,0.3,0.3
							c0.1,0.1,0.1,0.1,0.2,0.2c0.1,0.1,0.2,0.2,0.3,0.2c0.1,0.1,0.1,0.1,0.2,0.2c0.1,0.1,0.2,0.2,0.3,0.2c0.1,0.1,0.1,0.1,0.2,0.2
							c0.1,0.1,0.2,0.2,0.3,0.2c0.1,0.1,0.1,0.1,0.2,0.1c0.1,0.1,0.2,0.2,0.3,0.2c0.1,0,0.1,0.1,0.2,0.1c0.2,0.1,0.3,0.2,0.5,0.3
							c0,0,0,0,0,0c0.2,0.1,0.3,0.2,0.5,0.3c0,0,0,0,0,0c0.1,0.1,0.2,0.1,0.3,0.2c0,0,0.1,0,0.1,0c0.1,0.1,0.2,0.1,0.3,0.2
							c0,0,0,0,0.1,0l0,0c0.1,0.1,0.2,0.1,0.4,0.2c0,0,0.1,0,0.1,0c0.3,0.1,0.5,0.2,0.8,0.3c0,0,0.1,0,0.1,0c0,0,0,0,0,0
							c0.1,0,0.2,0.1,0.4,0.1c0,0,0,0,0.1,0c0.1,0,0.3,0.1,0.4,0.1c0,0,0,0,0,0c0,0,0,0,0,0c0.1,0,0.3,0.1,0.4,0.1l0,0
							c0,0,0,0,0.1,0c0,0,0,0,0,0c0,0,0.1,0,0.1,0c0,0,0,0,0.1,0c0,0,0.1,0,0.1,0c0,0,0.1,0,0.1,0c0,0,0.1,0,0.1,0c0,0,0,0,0,0
							c0,0,0.1,0,0.1,0c0,0,0,0,0.1,0c0,0,0,0,0.1,0c0,0,0.1,0,0.1,0c0,0,0.1,0,0.1,0c0,0,0,0,0,0c0,0,0.1,0,0.1,0c0,0,0,0,0.1,0
							c0,0,0,0,0.1,0c0,0,0.1,0,0.1,0c0,0,0.1,0,0.1,0c0,0,0,0,0,0c0.1,0,0.1,0,0.2,0c0,0,0,0,0.1,0c0,0,0,0,0,0c0.1,0,0.1,0,0.2,0
							c0,0,0,0,0.1,0c0.1,0,0.1,0,0.2,0c0,0,0,0,0,0c0,0,0,0,0,0c0.1,0,0.2,0,0.2,0c0,0,0,0,0,0c0,0,0,0,0,0c0.1,0,0.2,0,0.3-0.1
							c0,0,0,0,0.1,0c0.1,0,0.2-0.1,0.3-0.1c0,0,0,0,0.1,0c0,0,0,0,0,0c0,0,0.1,0,0.1,0c0,0,0,0,0,0c0,0,0,0,0.1,0
							c0,0,0.1,0,0.1-0.1c0,0,0.1,0,0.1,0c0,0,0.1,0,0.1-0.1c0,0,0,0,0.1,0c0,0,0,0,0,0c0,0,0.1-0.1,0.1-0.1
							C155,216.6,155.5,216.2,156,215.7z"/>
					</g>
				</g>
			</g>
		</g>
		<g>
			<g>
				<path class="st11" d="M373.8,362.4c3.8,2.2,3.8,5.8,0,8c-3.8,2.2-9.9,2.2-13.7,0c-3.8-2.2-3.8-5.8,0-8
					C363.8,360.2,370,360.2,373.8,362.4z"/>
			</g>
			<g>
				<g>
					<g>
						<path class="st15" d="M363.8,303.8c10.8,6.2,19.5,21.3,19.5,33.7c0,5.5-1.7,9.5-4.6,11.8c-1.9,1.5-3.8,3.1-5.5,5l-6.4,6.8
							c-0.8,0.8-1.9,0.7-3.1,0.1c-1.2-0.7-2.3-2-3.1-3.6l-6.3-14.1c-1.6-3.6-3.3-7.2-5.2-10.7c-3.2-6-5-12.6-4.8-18.5
							c0.4-11.6,9-16.3,19.3-10.5C363.6,303.7,363.7,303.8,363.8,303.8z"/>
					</g>
					<path class="st16" d="M394.7,330c0-0.1,0-0.1,0-0.2c0-0.1,0-0.2,0-0.4c0-0.1,0-0.3,0-0.4c0-0.1,0-0.2,0-0.3c0-0.1,0-0.3,0-0.4
						c0-0.1,0-0.2,0-0.2c0-0.2,0-0.4-0.1-0.5c0-0.1,0-0.2,0-0.3c0,0,0-0.1,0-0.1c0-0.3-0.1-0.7-0.1-1c0,0,0,0,0,0c0,0,0-0.1,0-0.1
						c0-0.3-0.1-0.6-0.1-0.8c0,0,0-0.1,0-0.1c0-0.1-0.1-0.3-0.1-0.4c0-0.2-0.1-0.3-0.1-0.5c0-0.1,0-0.2-0.1-0.3
						c0-0.1-0.1-0.3-0.1-0.4c0-0.1,0-0.2-0.1-0.3c0-0.1-0.1-0.3-0.1-0.4c0-0.1-0.1-0.3-0.1-0.4c0-0.1,0-0.1-0.1-0.2
						c-0.1-0.2-0.1-0.4-0.2-0.6c0-0.1-0.1-0.2-0.1-0.4c0,0,0-0.1,0-0.1c-0.1-0.3-0.2-0.7-0.3-1c0,0,0,0,0,0c0,0,0-0.1,0-0.1
						c-0.1-0.3-0.2-0.6-0.3-0.9c0,0,0-0.1-0.1-0.1c0-0.1-0.1-0.2-0.1-0.3c-0.1-0.2-0.1-0.3-0.2-0.5c0-0.1-0.1-0.2-0.1-0.3
						c0-0.1-0.1-0.2-0.1-0.4c0-0.1-0.1-0.2-0.1-0.3c-0.1-0.2-0.2-0.4-0.2-0.5c0-0.1-0.1-0.2-0.1-0.3c0,0,0-0.1,0-0.1
						c-0.1-0.3-0.3-0.6-0.4-0.9c0,0,0,0,0,0c0-0.1-0.1-0.2-0.1-0.3c-0.1-0.2-0.2-0.5-0.3-0.7c0,0,0-0.1-0.1-0.1
						c-0.1-0.2-0.2-0.4-0.3-0.6c-0.1-0.2-0.2-0.3-0.2-0.5c0,0,0-0.1,0-0.1c-0.3-0.5-0.6-1-0.8-1.5c0,0,0-0.1-0.1-0.1
						c-0.1-0.1-0.2-0.3-0.2-0.4c-0.1-0.2-0.2-0.4-0.4-0.6c-0.1-0.2-0.2-0.4-0.3-0.5c-0.1-0.2-0.3-0.4-0.4-0.6c0-0.1-0.1-0.1-0.1-0.2
						c0-0.1-0.1-0.1-0.1-0.2c-0.4-0.5-0.7-1.1-1.1-1.6l0,0c0,0,0,0,0,0c-0.3-0.4-0.5-0.7-0.8-1.1c0,0,0,0,0,0
						c-0.2-0.3-0.4-0.5-0.6-0.8c0,0-0.1-0.1-0.1-0.1c0,0,0,0,0,0c-0.2-0.3-0.5-0.6-0.8-0.9c0,0,0,0,0,0c-0.1-0.1-0.2-0.2-0.2-0.3
						c-0.2-0.2-0.3-0.4-0.5-0.5c0,0-0.1-0.1-0.1-0.1c-0.1-0.1-0.2-0.2-0.3-0.4c-0.1-0.1-0.2-0.3-0.4-0.4c0,0-0.1-0.1-0.1-0.1
						c-0.1-0.1-0.2-0.2-0.4-0.4c-0.1-0.1-0.2-0.2-0.3-0.3c-0.1-0.1-0.1-0.1-0.2-0.2c-0.1-0.1-0.3-0.2-0.4-0.4
						c-0.1-0.1-0.2-0.2-0.3-0.3c-0.1-0.1-0.1-0.1-0.2-0.2c-0.1-0.1-0.3-0.2-0.4-0.4c-0.1-0.1-0.2-0.1-0.2-0.2
						c-0.1-0.1-0.2-0.1-0.3-0.2c-0.1-0.1-0.3-0.2-0.4-0.3c-0.1-0.1-0.1-0.1-0.2-0.2c-0.1-0.1-0.2-0.2-0.3-0.3
						c-0.1-0.1-0.2-0.2-0.4-0.3c-0.1,0-0.1-0.1-0.1-0.1c-0.2-0.1-0.3-0.2-0.5-0.3c-0.1-0.1-0.2-0.1-0.3-0.2c0,0-0.1,0-0.1-0.1
						c-0.3-0.2-0.6-0.4-0.8-0.5c0,0,0,0,0,0c0,0,0,0-0.1,0c-0.3-0.2-0.5-0.3-0.8-0.5c-0.1,0-0.1-0.1-0.2-0.1
						c-0.1-0.1-0.2-0.1-0.3-0.2c-0.1-0.1-0.2-0.1-0.3-0.2c-0.2-0.1-0.3-0.2-0.5-0.2c-0.1,0-0.2-0.1-0.2-0.1c0,0-0.1,0-0.1,0
						c-0.3-0.1-0.5-0.3-0.8-0.4c0,0,0,0,0,0c-0.1,0-0.1,0-0.2-0.1c-0.2-0.1-0.4-0.2-0.6-0.2c0,0-0.1,0-0.1-0.1
						c-0.1,0-0.2-0.1-0.3-0.1c-0.1,0-0.2-0.1-0.3-0.1c-0.1,0-0.2-0.1-0.2-0.1c-0.1,0-0.2-0.1-0.3-0.1c-0.1,0-0.1,0-0.2-0.1
						c-0.1,0-0.2-0.1-0.3-0.1c-0.1,0-0.2-0.1-0.3-0.1c0,0-0.1,0-0.1,0c-0.1,0-0.3-0.1-0.4-0.1c-0.1,0-0.2,0-0.3-0.1c0,0,0,0-0.1,0
						c-0.2,0-0.3-0.1-0.5-0.1c-0.1,0-0.2,0-0.3-0.1c0,0,0,0,0,0c-0.1,0-0.3,0-0.4,0c-0.1,0-0.3,0-0.4,0c0,0,0,0,0,0
						c-0.1,0-0.2,0-0.3,0c-0.2,0-0.4,0-0.6,0c0,0,0,0-0.1,0c-0.1,0-0.1,0-0.2,0c-0.2,0-0.4,0-0.7,0c0,0-0.1,0-0.1,0
						c-0.1,0-0.2,0-0.4,0c-0.1,0-0.1,0-0.2,0c-0.2,0-0.4,0.1-0.6,0.1c0,0,0,0-0.1,0c-0.1,0-0.2,0-0.3,0.1c-0.1,0-0.3,0.1-0.4,0.1
						c-0.1,0-0.2,0.1-0.3,0.1c-0.1,0-0.2,0.1-0.3,0.1c0,0-0.1,0-0.1,0c-0.2,0.1-0.4,0.1-0.5,0.2c-0.1,0-0.2,0.1-0.2,0.1
						c-0.3,0.1-0.5,0.2-0.7,0.4l-11.4,6.6c0.2-0.1,0.5-0.3,0.7-0.4c0.1,0,0.2-0.1,0.2-0.1c0.2-0.1,0.3-0.1,0.5-0.2
						c0.1,0,0.3-0.1,0.4-0.1c0.1,0,0.2-0.1,0.3-0.1c0.1,0,0.3-0.1,0.4-0.1c0.1,0,0.2,0,0.3-0.1c0.2,0,0.5-0.1,0.7-0.1
						c0.1,0,0.1,0,0.2,0c0.2,0,0.3,0,0.5,0c0.2,0,0.4,0,0.7,0c0.1,0,0.2,0,0.3,0c0.2,0,0.4,0,0.6,0c0.1,0,0.2,0,0.3,0
						c0.1,0,0.3,0,0.4,0c0.1,0,0.3,0,0.4,0c0.1,0,0.2,0,0.4,0.1c0.2,0,0.3,0.1,0.5,0.1c0.1,0,0.2,0,0.3,0.1c0.2,0,0.4,0.1,0.6,0.1
						c0.1,0,0.2,0.1,0.3,0.1c0.2,0.1,0.4,0.1,0.6,0.2c0.1,0,0.2,0.1,0.3,0.1c0.2,0.1,0.4,0.1,0.6,0.2c0.1,0,0.2,0.1,0.3,0.1
						c0.2,0.1,0.5,0.2,0.7,0.3c0.1,0,0.1,0,0.2,0.1c0.3,0.1,0.6,0.3,0.9,0.4c0.1,0,0.2,0.1,0.2,0.1c0.3,0.1,0.5,0.3,0.8,0.4
						c0.1,0.1,0.2,0.1,0.3,0.2c0.3,0.2,0.6,0.4,0.9,0.6c0,0,0,0,0.1,0c0.3,0.2,0.6,0.4,0.9,0.6c0.1,0.1,0.2,0.1,0.3,0.2
						c0.2,0.1,0.4,0.3,0.6,0.4c0.1,0.1,0.2,0.2,0.4,0.3c0.2,0.1,0.4,0.3,0.5,0.4c0.1,0.1,0.3,0.2,0.4,0.3c0.2,0.1,0.3,0.3,0.5,0.4
						c0.1,0.1,0.3,0.2,0.4,0.4c0.2,0.1,0.3,0.3,0.5,0.5c0.1,0.1,0.3,0.2,0.4,0.4c0.2,0.2,0.3,0.3,0.5,0.5c0.1,0.1,0.2,0.2,0.4,0.4
						c0.2,0.2,0.3,0.3,0.5,0.5c0.1,0.1,0.2,0.2,0.3,0.4c0.2,0.2,0.4,0.4,0.6,0.6c0.1,0.1,0.2,0.2,0.2,0.3c0.3,0.3,0.5,0.6,0.8,0.9
						c0,0,0.1,0.1,0.1,0.1c0.2,0.3,0.4,0.5,0.7,0.8c0.3,0.4,0.5,0.7,0.8,1.1c0,0,0,0,0,0c0.4,0.5,0.7,1,1.1,1.6
						c0.1,0.1,0.2,0.3,0.3,0.4c0.1,0.2,0.3,0.4,0.4,0.6c0.1,0.2,0.2,0.4,0.3,0.5c0.1,0.2,0.2,0.4,0.4,0.6c0.1,0.2,0.2,0.3,0.3,0.5
						c0.3,0.5,0.6,1,0.8,1.5c0.1,0.2,0.2,0.4,0.3,0.6c0.1,0.2,0.2,0.4,0.3,0.6c0.1,0.3,0.3,0.6,0.4,0.8c0,0.1,0.1,0.2,0.1,0.3
						c0.2,0.4,0.3,0.7,0.5,1.1c0,0.1,0.1,0.2,0.1,0.3c0.1,0.3,0.2,0.5,0.3,0.8c0.1,0.1,0.1,0.2,0.1,0.4c0.1,0.3,0.2,0.5,0.3,0.8
						c0,0.1,0.1,0.2,0.1,0.3c0.1,0.3,0.2,0.7,0.4,1c0,0,0,0.1,0,0.1c0.1,0.4,0.2,0.8,0.4,1.1c0,0.1,0.1,0.2,0.1,0.4
						c0.1,0.3,0.2,0.5,0.2,0.8c0,0.1,0.1,0.3,0.1,0.4c0.1,0.2,0.1,0.5,0.2,0.7c0,0.1,0.1,0.3,0.1,0.4c0.1,0.2,0.1,0.5,0.2,0.7
						c0,0.1,0.1,0.3,0.1,0.4c0.1,0.3,0.1,0.7,0.2,1c0,0,0,0.1,0,0.1c0.1,0.4,0.1,0.7,0.2,1.1c0,0.1,0,0.2,0,0.3
						c0,0.3,0.1,0.5,0.1,0.8c0,0.1,0,0.3,0,0.4c0,0.2,0,0.5,0,0.7c0,0.1,0,0.2,0,0.4c0,0.4,0,0.7,0,1c0,0.3,0,0.7,0,1
						c0,0.1,0,0.1,0,0.2c0,0.2,0,0.5,0,0.7c0,0.1,0,0.3,0,0.4c0,0.2,0,0.3-0.1,0.5c0,0.2-0.1,0.4-0.1,0.5c0,0.1,0,0.3-0.1,0.4
						c-0.1,0.3-0.1,0.6-0.2,0.9c0,0,0,0.1,0,0.1c-0.1,0.3-0.1,0.6-0.2,0.8c0,0.1-0.1,0.2-0.1,0.3c-0.1,0.2-0.2,0.5-0.2,0.7
						c0,0.1-0.1,0.2-0.1,0.3c-0.1,0.3-0.3,0.7-0.4,1c-0.1,0.1-0.1,0.2-0.2,0.4c-0.1,0.1-0.1,0.2-0.2,0.3c-0.1,0.1-0.1,0.2-0.2,0.3
						c-0.1,0.1-0.1,0.2-0.2,0.3c0,0-0.1,0.1-0.1,0.1c-0.1,0.2-0.3,0.4-0.4,0.6c-0.1,0.1-0.1,0.1-0.2,0.2c-0.1,0.1-0.2,0.3-0.3,0.4
						c-0.1,0.1-0.1,0.1-0.2,0.2c-0.1,0.1-0.3,0.3-0.4,0.4c-0.1,0.1-0.1,0.1-0.2,0.2c-0.2,0.2-0.4,0.3-0.6,0.5
						c-1.9,1.5-3.8,3.1-5.5,5l-6.4,6.8c-0.1,0.1-0.1,0.1-0.2,0.2c-0.1,0.1-0.1,0.1-0.2,0.2l0,0l0,0l11.4-6.6
						c0.2-0.1,0.3-0.2,0.4-0.3l6.4-6.8c1.7-1.8,3.6-3.4,5.5-5c0.2-0.2,0.4-0.3,0.6-0.5c0.1-0.1,0.1-0.1,0.2-0.2
						c0.1-0.1,0.3-0.3,0.4-0.4c0.1-0.1,0.1-0.1,0.2-0.2c0.1-0.1,0.2-0.3,0.3-0.4c0.1-0.1,0.1-0.1,0.2-0.2c0.1-0.2,0.3-0.4,0.4-0.6
						c0,0,0-0.1,0.1-0.1c0,0,0,0,0,0c0.1-0.1,0.1-0.2,0.2-0.3c0.1-0.1,0.1-0.2,0.2-0.3c0.1-0.1,0.1-0.2,0.2-0.3
						c0.1-0.1,0.1-0.2,0.2-0.3c0,0,0,0,0,0c0.2-0.3,0.3-0.7,0.4-1c0,0,0-0.1,0-0.1c0,0,0-0.1,0.1-0.2c0.1-0.2,0.2-0.5,0.2-0.7
						c0-0.1,0-0.1,0.1-0.2c0,0,0-0.1,0-0.1c0.1-0.3,0.1-0.5,0.2-0.8c0,0,0-0.1,0-0.1c0,0,0,0,0,0c0.1-0.3,0.1-0.6,0.2-0.9
						c0,0,0,0,0,0c0-0.1,0-0.2,0.1-0.4c0-0.2,0.1-0.4,0.1-0.5c0,0,0,0,0,0c0-0.2,0-0.3,0-0.5c0-0.1,0-0.3,0-0.4c0,0,0,0,0,0
						c0-0.2,0-0.5,0-0.7c0-0.1,0-0.1,0-0.2c0,0,0,0,0,0c0-0.3,0-0.6,0-0.9c0,0,0,0,0-0.1C394.7,330.6,394.7,330.3,394.7,330z"/>
				</g>
				<g>
					<g>
						<path class="st16" d="M378,333.2C378,333.2,378,333.2,378,333.2c0-0.2,0-0.5,0-0.7c0,0,0-0.1,0-0.1c0-0.1,0-0.2,0-0.2
							c0-0.1,0-0.2,0-0.3c0-0.1,0-0.2,0-0.2c0-0.1,0-0.2,0-0.3c0-0.1,0-0.1,0-0.2c0-0.1,0-0.3,0-0.4c0-0.1,0-0.1,0-0.2
							c0,0,0,0,0-0.1c0-0.2-0.1-0.5-0.1-0.7c0,0,0,0,0,0c0,0,0-0.1,0-0.1c0-0.2-0.1-0.4-0.1-0.6c0,0,0-0.1,0-0.1
							c0-0.1,0-0.2-0.1-0.3c0-0.1,0-0.2-0.1-0.3c0-0.1,0-0.1,0-0.2c0-0.1,0-0.2-0.1-0.3c0-0.1,0-0.2-0.1-0.2c0-0.1,0-0.2-0.1-0.3
							c0-0.1-0.1-0.2-0.1-0.3c0,0,0-0.1,0-0.1c0-0.1-0.1-0.3-0.1-0.4c0-0.1,0-0.2-0.1-0.3c0,0,0,0,0-0.1c-0.1-0.2-0.1-0.5-0.2-0.7
							c0,0,0,0,0,0c0,0,0,0,0-0.1c-0.1-0.2-0.1-0.4-0.2-0.6c0,0,0-0.1,0-0.1c0-0.1-0.1-0.2-0.1-0.2c0-0.1-0.1-0.2-0.1-0.3
							c0-0.1-0.1-0.1-0.1-0.2c0-0.1-0.1-0.2-0.1-0.3c0-0.1-0.1-0.1-0.1-0.2c-0.1-0.1-0.1-0.3-0.2-0.4c0-0.1-0.1-0.1-0.1-0.2
							c0,0,0,0,0-0.1c-0.1-0.2-0.2-0.4-0.3-0.7c0,0,0,0,0,0c0-0.1-0.1-0.1-0.1-0.2c-0.1-0.2-0.2-0.3-0.2-0.5c0,0,0-0.1,0-0.1
							c-0.1-0.1-0.1-0.3-0.2-0.4c-0.1-0.1-0.1-0.2-0.2-0.3c0,0,0-0.1-0.1-0.1c0-0.1-0.1-0.1-0.1-0.2c-0.1-0.2-0.2-0.4-0.3-0.5
							c0-0.1-0.1-0.1-0.1-0.2c0,0-0.1-0.1-0.1-0.1c-0.1-0.1-0.1-0.2-0.2-0.3c-0.1-0.1-0.2-0.3-0.3-0.4c-0.1-0.1-0.2-0.3-0.2-0.4
							c-0.1-0.1-0.2-0.3-0.3-0.4c0,0-0.1-0.1-0.1-0.1c-0.1-0.1-0.1-0.2-0.2-0.3c-0.1-0.1-0.1-0.1-0.2-0.2c-0.2-0.2-0.3-0.5-0.5-0.7
							c0,0,0,0,0,0l0,0c0,0,0,0,0,0c-0.2-0.3-0.4-0.5-0.6-0.8c0,0,0,0,0,0c-0.1-0.2-0.3-0.4-0.4-0.5c0,0-0.1-0.1-0.1-0.1
							c0,0,0,0,0,0c-0.2-0.2-0.4-0.4-0.5-0.6c0,0,0,0,0,0c-0.1-0.1-0.1-0.1-0.2-0.2c-0.1-0.1-0.2-0.3-0.3-0.4c0,0,0,0-0.1-0.1
							c-0.1-0.1-0.2-0.2-0.2-0.2c-0.1-0.1-0.2-0.2-0.3-0.3c0,0-0.1-0.1-0.1-0.1c-0.1-0.1-0.2-0.2-0.3-0.3c-0.1-0.1-0.1-0.1-0.2-0.2
							c0,0-0.1-0.1-0.1-0.1c-0.1-0.1-0.2-0.2-0.3-0.3c-0.1-0.1-0.1-0.1-0.2-0.2c-0.1,0-0.1-0.1-0.2-0.1c-0.1-0.1-0.2-0.2-0.3-0.2
							c-0.1,0-0.1-0.1-0.2-0.1c-0.1-0.1-0.1-0.1-0.2-0.2c-0.1-0.1-0.2-0.2-0.3-0.2c0,0-0.1-0.1-0.1-0.1c-0.1-0.1-0.2-0.1-0.2-0.2
							c-0.1-0.1-0.2-0.1-0.3-0.2c0,0-0.1-0.1-0.1-0.1c-0.1-0.1-0.2-0.2-0.3-0.2c-0.1-0.1-0.1-0.1-0.2-0.2c0,0,0,0-0.1,0
							c-0.2-0.1-0.4-0.3-0.6-0.4c0,0,0,0,0,0c0,0,0,0,0,0c-0.2-0.1-0.4-0.2-0.5-0.3c0,0-0.1-0.1-0.1-0.1c-0.1-0.1-0.3-0.2-0.4-0.2
							c0,0,0,0,0,0c0,0,0,0-0.1,0c-0.2-0.1-0.3-0.2-0.4-0.2c0,0,0,0-0.1,0c0,0,0,0,0,0c-0.2-0.1-0.3-0.2-0.5-0.2c0,0,0,0,0,0
							c0,0,0,0-0.1,0c-0.3-0.1-0.7-0.3-1-0.4c0,0,0,0-0.1,0c0,0,0,0,0,0c-0.2-0.1-0.3-0.1-0.5-0.2c0,0,0,0,0,0c0,0,0,0-0.1,0
							c-0.2-0.1-0.3-0.1-0.5-0.1c0,0,0,0,0,0l0,0c-0.2,0-0.3-0.1-0.5-0.1c0,0,0,0-0.1,0c0,0,0,0,0,0c0,0-0.1,0-0.1,0
							c-0.1,0-0.1,0-0.2,0c0,0-0.1,0-0.1,0c0,0-0.1,0-0.1,0c0,0,0,0-0.1,0c-0.1,0-0.1,0-0.1,0c-0.1,0-0.1,0-0.2,0c0,0-0.1,0-0.1,0
							c0,0-0.1,0-0.1,0c0,0,0,0-0.1,0c-0.1,0-0.1,0-0.2,0c0,0-0.1,0-0.1,0c-0.1,0-0.1,0-0.2,0c0,0-0.1,0-0.1,0c0,0,0,0,0,0
							c-0.1,0-0.2,0-0.2,0c0,0-0.1,0-0.1,0c-0.1,0-0.2,0-0.3,0c0,0,0,0,0,0c0,0,0,0,0,0c-0.1,0-0.2,0-0.3,0c0,0-0.1,0-0.1,0
							c-0.1,0-0.2,0-0.3,0.1c0,0,0,0,0,0c0,0,0,0,0,0c-0.1,0-0.3,0.1-0.4,0.1c0,0,0,0-0.1,0c-0.1,0-0.3,0.1-0.4,0.1c0,0,0,0,0,0
							c0,0,0,0-0.1,0c-0.1,0-0.1,0-0.2,0.1c0,0-0.1,0-0.1,0c-0.1,0-0.1,0-0.2,0.1c0,0-0.1,0-0.1,0c-0.1,0-0.1,0.1-0.2,0.1
							c0,0-0.1,0-0.1,0c-0.1,0-0.2,0.1-0.3,0.1l-4.3,2.5c0.1,0,0.2-0.1,0.3-0.1c0,0,0.1,0,0.1,0c0.1,0,0.1-0.1,0.2-0.1
							c0,0,0.1,0,0.1,0c0.1,0,0.1,0,0.2-0.1c0,0,0.1,0,0.1,0c0.1,0,0.1,0,0.2-0.1c0,0,0.1,0,0.1,0c0.1,0,0.3-0.1,0.4-0.1
							c0,0,0,0,0.1,0c0.1,0,0.3-0.1,0.4-0.1c0,0,0,0,0.1,0c0.1,0,0.2,0,0.3-0.1c0,0,0.1,0,0.1,0c0.1,0,0.2,0,0.3,0c0,0,0,0,0.1,0
							c0.1,0,0.2,0,0.3,0c0,0,0.1,0,0.1,0c0.1,0,0.2,0,0.2,0c0,0,0.1,0,0.1,0c0.1,0,0.1,0,0.2,0c0,0,0.1,0,0.1,0c0.1,0,0.1,0,0.2,0
							c0.1,0,0.1,0,0.2,0c0,0,0.1,0,0.1,0c0.1,0,0.1,0,0.2,0c0,0,0.1,0,0.2,0c0.1,0,0.1,0,0.2,0c0,0,0.1,0,0.1,0c0.1,0,0.1,0,0.2,0
							c0,0,0.1,0,0.1,0c0,0,0.1,0,0.1,0c0.2,0,0.3,0.1,0.5,0.1c0,0,0,0,0,0c0.2,0,0.3,0.1,0.5,0.1c0,0,0.1,0,0.1,0
							c0.2,0,0.3,0.1,0.5,0.2c0,0,0.1,0,0.1,0c0.2,0.1,0.3,0.1,0.5,0.2l0,0c0.2,0.1,0.3,0.1,0.5,0.2c0,0,0.1,0,0.1,0
							c0.2,0.1,0.3,0.1,0.5,0.2c0,0,0.1,0,0.1,0c0.1,0.1,0.3,0.2,0.4,0.2c0,0,0.1,0,0.1,0c0.1,0.1,0.3,0.1,0.4,0.2
							c0.2,0.1,0.4,0.3,0.7,0.4c0,0,0,0,0,0c0.2,0.1,0.4,0.3,0.6,0.4c0.1,0.1,0.1,0.1,0.2,0.2c0.1,0.1,0.3,0.2,0.4,0.3
							c0.1,0.1,0.2,0.1,0.3,0.2c0.1,0.1,0.3,0.2,0.4,0.3c0.1,0.1,0.2,0.2,0.3,0.2c0.1,0.1,0.2,0.2,0.4,0.3c0.1,0.1,0.2,0.2,0.3,0.2
							c0.1,0.1,0.2,0.2,0.3,0.3c0.1,0.1,0.2,0.2,0.3,0.3c0.1,0.1,0.2,0.2,0.3,0.3c0.1,0.1,0.2,0.2,0.3,0.3c0.1,0.1,0.2,0.2,0.4,0.4
							c0.1,0.1,0.2,0.2,0.2,0.2c0.1,0.1,0.3,0.3,0.4,0.4c0.1,0.1,0.1,0.1,0.2,0.2c0.2,0.2,0.4,0.4,0.6,0.7c0,0,0.1,0.1,0.1,0.1
							c0.2,0.2,0.3,0.4,0.5,0.6c0.2,0.2,0.4,0.5,0.6,0.8c0,0,0,0,0,0c0,0,0,0,0,0c0.2,0.2,0.3,0.5,0.5,0.7c0.1,0.1,0.1,0.1,0.2,0.2
							c0.1,0.2,0.2,0.3,0.3,0.5c0.1,0.1,0.2,0.3,0.3,0.4c0.1,0.1,0.2,0.2,0.2,0.4c0.1,0.1,0.2,0.3,0.3,0.4c0.1,0.1,0.2,0.3,0.2,0.4
							c0,0.1,0.1,0.1,0.1,0.2c0.1,0.2,0.2,0.4,0.3,0.5c0,0.1,0.1,0.1,0.1,0.2c0.1,0.1,0.1,0.3,0.2,0.4c0.1,0.1,0.1,0.3,0.2,0.4
							c0.1,0.2,0.2,0.4,0.3,0.6c0,0.1,0.1,0.1,0.1,0.2c0.1,0.3,0.2,0.5,0.3,0.8c0,0.1,0.1,0.1,0.1,0.2c0.1,0.2,0.2,0.4,0.2,0.6
							c0,0.1,0.1,0.2,0.1,0.3c0.1,0.2,0.1,0.4,0.2,0.5c0,0.1,0.1,0.2,0.1,0.2c0.1,0.2,0.2,0.5,0.3,0.7c0,0,0,0,0,0.1
							c0.1,0.3,0.2,0.5,0.3,0.8c0,0.1,0,0.2,0.1,0.3c0.1,0.2,0.1,0.4,0.2,0.5c0,0.1,0.1,0.2,0.1,0.3c0,0.2,0.1,0.3,0.1,0.5
							c0,0.1,0,0.2,0.1,0.3c0,0.2,0.1,0.3,0.1,0.5c0,0.1,0,0.2,0.1,0.3c0,0.2,0.1,0.5,0.1,0.7c0,0,0,0.1,0,0.1
							c0,0.3,0.1,0.5,0.1,0.8c0,0.1,0,0.1,0,0.2c0,0.2,0,0.4,0.1,0.6c0,0.1,0,0.2,0,0.3c0,0.2,0,0.3,0,0.5c0,0.1,0,0.2,0,0.2
							c0,0.2,0,0.5,0,0.7c0,0,0,0.1,0,0.1c0,0.2,0,0.4,0,0.6c0,0,0,0.1,0,0.1c0,0.2,0,0.4,0,0.6c0,0,0,0.1,0,0.1
							c0,0.2,0,0.4-0.1,0.6c0,0,0,0,0,0.1c0,0.2-0.1,0.4-0.1,0.6c0,0,0,0,0,0c0,0.2-0.1,0.4-0.1,0.7l0,0c0,0.1-0.1,0.2-0.1,0.3
							c0,0,0,0.1,0,0.1c0,0.1,0,0.1-0.1,0.2c0,0,0,0.1,0,0.1c0,0.1,0,0.2-0.1,0.2c0,0,0,0.1,0,0.1c0,0.1,0,0.1-0.1,0.2
							c0,0,0,0.1,0,0.1c0,0.1-0.1,0.2-0.1,0.3c0,0,0,0.1,0,0.1c0,0.1-0.1,0.2-0.2,0.3c0,0,0,0,0,0.1c-0.1,0.2-0.1,0.3-0.2,0.4l0,0
							c-0.1,0.1-0.2,0.3-0.2,0.4c0,0,0,0,0,0.1c-0.1,0.1-0.1,0.2-0.2,0.3c0,0,0,0-0.1,0.1c-0.1,0.1-0.1,0.2-0.2,0.3c0,0,0,0,0,0
							c-0.1,0.1-0.2,0.2-0.2,0.3c0,0,0,0-0.1,0.1c-0.1,0.1-0.2,0.2-0.2,0.2c0,0,0,0,0,0c-0.1,0.1-0.2,0.2-0.3,0.2c0,0,0,0-0.1,0.1
							c-0.1,0.1-0.2,0.1-0.3,0.2c0,0,0,0,0,0c-0.1,0.1-0.2,0.1-0.3,0.2c0,0,0,0-0.1,0c-0.1,0.1-0.2,0.1-0.3,0.2l0,0l0,0l4.3-2.5
							c0.1-0.1,0.2-0.1,0.3-0.2c0,0,0,0,0.1,0c0.1-0.1,0.2-0.1,0.3-0.2c0,0,0,0,0,0c0.1-0.1,0.2-0.1,0.3-0.2c0,0,0,0,0.1-0.1
							c0.1-0.1,0.2-0.2,0.3-0.2c0,0,0,0,0,0c0.1-0.1,0.2-0.2,0.2-0.2c0,0,0,0,0.1-0.1c0.1-0.1,0.2-0.2,0.2-0.3c0,0,0,0,0,0
							c0.1-0.1,0.1-0.2,0.2-0.3c0,0,0,0,0.1-0.1c0.1-0.1,0.1-0.2,0.2-0.3c0,0,0,0,0,0c0,0,0,0,0,0c0.1-0.1,0.2-0.3,0.2-0.4l0,0
							c0.1-0.1,0.2-0.3,0.2-0.4c0,0,0,0,0,0c0,0,0,0,0,0c0.1-0.1,0.1-0.2,0.2-0.3c0,0,0-0.1,0-0.1c0-0.1,0.1-0.2,0.1-0.3
							c0,0,0,0,0-0.1c0,0,0,0,0-0.1c0-0.1,0-0.1,0.1-0.2c0,0,0-0.1,0-0.1c0-0.1,0.1-0.2,0.1-0.2c0,0,0-0.1,0-0.1c0,0,0,0,0,0
							c0-0.1,0-0.2,0.1-0.2c0,0,0-0.1,0-0.1c0-0.1,0.1-0.2,0.1-0.3v0l0,0c0-0.2,0.1-0.4,0.1-0.7c0,0,0,0,0,0c0,0,0,0,0,0
							c0-0.2,0.1-0.4,0.1-0.6c0,0,0,0,0,0c0,0,0,0,0,0c0-0.2,0-0.4,0.1-0.6c0,0,0,0,0-0.1c0,0,0,0,0-0.1c0-0.2,0-0.4,0-0.6
							c0,0,0,0,0,0c0,0,0,0,0-0.1C378,333.6,378,333.4,378,333.2C378,333.2,378,333.2,378,333.2z"/>
						<g>
							<path class="st17" d="M360,312c7.6,4.4,13.7,15,13.6,23.6c0,8.7-6.2,12.2-13.7,7.8c-7.6-4.4-13.7-15-13.7-23.6
								C346.3,311.2,352.5,307.7,360,312z"/>
						</g>
					</g>
					<g>
						<g>
							<path class="st14" d="M360.1,339.6c-5.8-3.3-10.4-11.4-10.4-18.1c0-6.6,4.7-9.3,10.5-6c5.8,3.3,10.4,11.4,10.4,18.1
								C370.6,340.3,365.9,343,360.1,339.6z"/>
						</g>
						<path class="st16" d="M369,339.4C369,339.4,369,339.4,369,339.4C368.9,339.4,368.9,339.4,369,339.4c-0.2,0-0.2,0-0.3,0
							c0,0,0,0,0,0c-0.1,0-0.2,0-0.3,0c0,0,0,0-0.1,0c-0.1,0-0.1,0-0.2,0c0,0-0.1,0-0.1,0c0,0-0.1,0-0.1,0c0,0-0.1,0-0.1,0
							c0,0-0.1,0-0.1,0c0,0-0.1,0-0.1,0c0,0-0.1,0-0.1,0c0,0-0.1,0-0.1,0c0,0-0.1,0-0.1,0c0,0-0.1,0-0.1,0c0,0-0.1,0-0.1,0
							c0,0-0.1,0-0.1,0c0,0-0.1,0-0.1,0c0,0-0.1,0-0.1,0c-0.1,0-0.3-0.1-0.4-0.1c0,0,0,0,0,0c-0.1,0-0.3-0.1-0.4-0.1c0,0,0,0-0.1,0
							c-0.1,0-0.2-0.1-0.4-0.1c0,0-0.1,0-0.1,0c-0.1,0-0.3-0.1-0.4-0.1l0,0c-0.1,0-0.3-0.1-0.4-0.2c0,0-0.1,0-0.1,0
							c-0.1-0.1-0.2-0.1-0.4-0.2c0,0,0,0-0.1,0c-0.1-0.1-0.2-0.1-0.3-0.2c0,0,0,0-0.1,0c-0.1-0.1-0.2-0.1-0.3-0.2
							c-0.2-0.1-0.3-0.2-0.5-0.3c0,0,0,0,0,0c-0.2-0.1-0.3-0.2-0.5-0.3c-0.1,0-0.1-0.1-0.2-0.1c-0.1-0.1-0.2-0.2-0.3-0.2
							c-0.1,0-0.1-0.1-0.2-0.2c-0.1-0.1-0.2-0.2-0.3-0.2c-0.1-0.1-0.1-0.1-0.2-0.2c-0.1-0.1-0.2-0.2-0.3-0.2
							c-0.1-0.1-0.1-0.1-0.2-0.2c-0.1-0.1-0.2-0.2-0.3-0.2c-0.1-0.1-0.1-0.1-0.2-0.2c-0.1-0.1-0.2-0.2-0.3-0.3
							c-0.1-0.1-0.1-0.1-0.2-0.2c-0.1-0.1-0.2-0.2-0.3-0.3c-0.1-0.1-0.1-0.1-0.2-0.2c-0.1-0.1-0.2-0.2-0.3-0.3c0,0-0.1-0.1-0.1-0.1
							c-0.1-0.2-0.3-0.3-0.4-0.5c0,0,0-0.1-0.1-0.1c-0.1-0.1-0.2-0.3-0.4-0.4c-0.2-0.2-0.3-0.4-0.4-0.6c0,0,0,0,0,0c0,0,0,0,0,0
							c-0.1-0.2-0.3-0.4-0.4-0.5c0-0.1-0.1-0.1-0.1-0.2c-0.1-0.1-0.2-0.2-0.2-0.4c-0.1-0.1-0.1-0.2-0.2-0.3
							c-0.1-0.1-0.1-0.2-0.2-0.3c-0.1-0.1-0.1-0.2-0.2-0.3c-0.1-0.1-0.1-0.2-0.2-0.3c0-0.1-0.1-0.1-0.1-0.2
							c-0.1-0.1-0.2-0.3-0.2-0.4c0-0.1-0.1-0.1-0.1-0.2c-0.1-0.1-0.1-0.2-0.2-0.3c-0.1-0.1-0.1-0.2-0.2-0.3
							c-0.1-0.2-0.1-0.3-0.2-0.5c0,0,0-0.1-0.1-0.1c-0.1-0.2-0.2-0.4-0.3-0.6c0-0.1,0-0.1-0.1-0.2c-0.1-0.1-0.1-0.3-0.2-0.4
							c0-0.1-0.1-0.1-0.1-0.2c-0.1-0.1-0.1-0.3-0.2-0.4c0-0.1,0-0.1-0.1-0.2c-0.1-0.2-0.1-0.4-0.2-0.6c0,0,0,0,0,0
							c-0.1-0.2-0.1-0.4-0.2-0.6c0-0.1,0-0.1-0.1-0.2c0-0.1-0.1-0.3-0.1-0.4c0-0.1,0-0.2-0.1-0.2c0-0.1-0.1-0.3-0.1-0.4
							c0-0.1,0-0.2-0.1-0.2c0-0.1-0.1-0.3-0.1-0.4c0-0.1,0-0.1,0-0.2c0-0.2-0.1-0.4-0.1-0.5c0,0,0-0.1,0-0.1c0-0.2-0.1-0.4-0.1-0.6
							c0-0.1,0-0.1,0-0.2c0-0.1,0-0.3,0-0.4c0-0.1,0-0.1,0-0.2c0-0.1,0-0.3,0-0.4c0-0.1,0-0.1,0-0.2c0-0.2,0-0.4,0-0.6
							c0,0,0,0,0-0.1c0-0.1,0-0.3,0-0.4c0,0,0,0,0-0.1c0-0.1,0-0.3,0-0.4c0,0,0-0.1,0-0.1c0-0.2,0-0.3,0-0.4c0,0,0,0,0-0.1
							c0-0.2,0-0.3,0.1-0.5c0,0,0,0,0,0c0-0.2,0.1-0.3,0.1-0.5l0,0c0-0.1,0-0.2,0.1-0.3c0,0,0-0.1,0-0.1c0-0.1,0-0.1,0-0.2
							c0,0,0-0.1,0-0.1c0-0.1,0-0.1,0.1-0.2c0,0,0-0.1,0-0.1c0-0.1,0-0.1,0.1-0.2c0,0,0-0.1,0-0.1c0-0.1,0.1-0.1,0.1-0.2
							c0,0,0,0,0-0.1c0-0.1,0.1-0.2,0.1-0.3c0,0,0,0,0,0c0.1-0.1,0.1-0.2,0.2-0.3l0,0c0.1-0.1,0.1-0.2,0.2-0.3c0,0,0,0,0,0
							c0.1-0.1,0.1-0.2,0.2-0.2c0,0,0,0,0-0.1c0-0.1,0.1-0.1,0.1-0.2c-0.7,0.1-1.3,0.3-1.9,0.7c-0.1,0-0.1,0.1-0.2,0.1c0,0,0,0,0,0
							c0,0,0,0-0.1,0c-0.1,0-0.1,0.1-0.2,0.2c0,0,0,0,0,0c-0.1,0-0.1,0.1-0.2,0.2c0,0,0,0,0,0c0,0,0,0-0.1,0
							c-0.1,0.1-0.1,0.1-0.2,0.2c0,0,0,0,0,0c-0.1,0.1-0.1,0.1-0.2,0.2c0,0,0,0,0,0c-0.1,0.1-0.1,0.1-0.2,0.2c0,0,0,0,0,0
							c-0.1,0.1-0.1,0.1-0.2,0.2c0,0,0,0,0,0.1c-0.1,0.1-0.1,0.2-0.2,0.2c0,0,0,0,0,0c-0.1,0.1-0.1,0.2-0.2,0.3c0,0,0,0,0,0
							c-0.1,0.1-0.1,0.2-0.2,0.3c0,0,0,0,0,0c0,0,0,0,0,0c0,0,0,0,0,0c0,0.1-0.1,0.2-0.1,0.3c0,0,0,0,0,0.1c0,0.1-0.1,0.1-0.1,0.2
							c0,0,0,0.1,0,0.1c0,0,0,0,0,0c0,0.1,0,0.1-0.1,0.2c0,0,0,0,0,0c0,0,0,0.1,0,0.1c0,0.1,0,0.1-0.1,0.2c0,0,0,0,0,0
							c0,0,0,0,0,0.1c0,0,0,0,0,0c0,0.1,0,0.1,0,0.2c0,0,0,0.1,0,0.1c0,0.1,0,0.2-0.1,0.3c0,0,0,0,0,0c0,0.2-0.1,0.3-0.1,0.5
							c0,0,0,0,0,0v0c0,0,0,0,0,0c0,0.2,0,0.3-0.1,0.5l0,0c0,0,0,0,0,0.1l0,0c0,0.1,0,0.3,0,0.4c0,0,0,0.1,0,0.1c0,0,0,0,0,0
							c0,0.1,0,0.3,0,0.4c0,0,0,0.1,0,0.1c0,0.1,0,0.3,0,0.4v0c0,0,0,0,0,0.1v0c0,0.2,0,0.4,0,0.6v0c0,0.1,0,0.1,0,0.2
							c0,0.1,0,0.3,0,0.4c0,0.1,0,0.1,0,0.2c0,0.1,0,0.3,0,0.4v0c0,0.1,0,0.1,0,0.2v0c0,0.2,0.1,0.4,0.1,0.6c0,0,0,0,0,0.1
							c0,0.2,0.1,0.4,0.1,0.5c0,0.1,0,0.1,0,0.2c0,0.1,0.1,0.3,0.1,0.4c0,0.1,0,0.2,0.1,0.2c0,0.1,0.1,0.3,0.1,0.4
							c0,0.1,0,0.2,0.1,0.2c0,0.1,0.1,0.3,0.1,0.4c0,0.1,0,0.1,0.1,0.2c0.1,0.2,0.1,0.4,0.2,0.6c0,0,0,0,0,0
							c0.1,0.2,0.1,0.4,0.2,0.6c0,0.1,0,0.1,0.1,0.2c0.1,0.1,0.1,0.3,0.2,0.4c0,0.1,0.1,0.1,0.1,0.2c0.1,0.1,0.1,0.3,0.2,0.4
							c0,0.1,0,0.1,0.1,0.2c0.1,0.2,0.2,0.4,0.3,0.6c0,0,0,0.1,0.1,0.1c0.1,0.2,0.1,0.3,0.2,0.5c0.1,0.1,0.1,0.2,0.2,0.3
							c0.1,0.1,0.1,0.2,0.2,0.3c0,0,0.1,0.1,0.1,0.1c0.1,0.1,0.2,0.3,0.2,0.4c0,0.1,0.1,0.1,0.1,0.2c0.1,0.1,0.1,0.2,0.2,0.3
							c0.1,0.1,0.1,0.2,0.2,0.3c0.1,0.1,0.1,0.2,0.2,0.3c0.1,0.1,0.1,0.2,0.2,0.3c0.1,0.1,0.2,0.2,0.2,0.4c0,0.1,0.1,0.1,0.1,0.2
							c0.1,0.2,0.3,0.4,0.4,0.6c0.1,0.2,0.3,0.4,0.4,0.6c0.1,0.2,0.2,0.3,0.4,0.5c0,0,0,0,0.1,0.1c0.1,0.2,0.3,0.3,0.4,0.5
							c0,0,0.1,0.1,0.1,0.1c0.1,0.1,0.2,0.2,0.3,0.4c0.1,0.1,0.1,0.1,0.2,0.2c0.1,0.1,0.2,0.2,0.3,0.3c0.1,0.1,0.1,0.1,0.2,0.2
							c0.1,0.1,0.2,0.2,0.3,0.3c0.1,0.1,0.1,0.1,0.2,0.2c0.1,0.1,0.2,0.2,0.3,0.2c0.1,0.1,0.1,0.1,0.2,0.2c0.1,0.1,0.2,0.2,0.3,0.2
							c0.1,0.1,0.1,0.1,0.2,0.2c0.1,0.1,0.2,0.2,0.3,0.2c0.1,0,0.1,0.1,0.2,0.1c0.1,0.1,0.2,0.2,0.3,0.2c0.1,0,0.1,0.1,0.2,0.1
							c0.2,0.1,0.3,0.2,0.5,0.3c0,0,0,0,0,0c0.2,0.1,0.3,0.2,0.5,0.3c0,0,0,0,0,0c0.1,0.1,0.2,0.1,0.3,0.2c0,0,0.1,0,0.1,0
							c0.1,0.1,0.2,0.1,0.3,0.2c0,0,0,0,0.1,0l0,0c0.1,0.1,0.2,0.1,0.4,0.2c0,0,0.1,0,0.1,0c0.3,0.1,0.5,0.2,0.8,0.3
							c0,0,0.1,0,0.1,0l0,0c0.1,0,0.2,0.1,0.4,0.1c0,0,0,0,0.1,0c0.1,0,0.3,0.1,0.4,0.1l0,0c0,0,0,0,0,0c0.1,0,0.3,0.1,0.4,0.1
							c0,0,0,0,0,0c0,0,0,0,0.1,0c0,0,0,0,0,0c0,0,0.1,0,0.1,0c0,0,0,0,0.1,0c0,0,0.1,0,0.1,0c0,0,0.1,0,0.1,0c0,0,0.1,0,0.1,0
							c0,0,0,0,0,0c0,0,0.1,0,0.1,0c0,0,0,0,0.1,0c0,0,0,0,0.1,0c0,0,0.1,0,0.1,0c0,0,0.1,0,0.1,0c0,0,0,0,0,0c0,0,0.1,0,0.1,0
							c0,0,0,0,0.1,0c0,0,0,0,0.1,0c0,0,0.1,0,0.1,0c0,0,0.1,0,0.1,0c0,0,0,0,0,0c0.1,0,0.1,0,0.2,0c0,0,0,0,0.1,0c0,0,0,0,0,0
							c0.1,0,0.1,0,0.2,0c0,0,0,0,0.1,0c0.1,0,0.1,0,0.2,0c0,0,0,0,0,0c0,0,0,0,0,0c0.1,0,0.2,0,0.2,0c0,0,0,0,0,0c0,0,0,0,0,0
							c0.1,0,0.2,0,0.3-0.1c0,0,0,0,0.1,0c0.1,0,0.2-0.1,0.3-0.1c0,0,0,0,0.1,0c0,0,0,0,0,0c0,0,0.1,0,0.1,0c0,0,0,0,0,0
							c0,0,0,0,0.1,0c0,0,0.1,0,0.1-0.1c0,0,0.1,0,0.1,0c0,0,0.1,0,0.1-0.1c0,0,0,0,0.1,0c0,0,0,0,0,0c0,0,0.1-0.1,0.1-0.1
							C368,340.4,368.5,339.9,369,339.4z"/>
					</g>
				</g>
			</g>
		</g>
		<g>
			<g>
				<path class="st11" d="M397,229.2c3.8,2.2,3.8,5.8,0,8c-3.8,2.2-9.9,2.2-13.7,0c-3.8-2.2-3.8-5.8,0-8
					C387,227,393.2,227,397,229.2z"/>
			</g>
			<g>
				<g>
					<g>
						<path class="st18" d="M387,170.6c10.8,6.2,19.5,21.3,19.5,33.7c0,5.5-1.7,9.5-4.6,11.8c-1.9,1.5-3.8,3.1-5.5,5l-6.4,6.8
							c-0.8,0.8-1.9,0.7-3.1,0.1c-1.2-0.7-2.3-2-3.1-3.6l-6.3-14.1c-1.6-3.6-3.3-7.2-5.2-10.7c-3.2-6-5-12.6-4.8-18.5
							c0.4-11.6,9-16.3,19.3-10.5C386.8,170.5,386.9,170.6,387,170.6z"/>
					</g>
					<path class="st19" d="M417.8,196.8c0-0.1,0-0.1,0-0.2c0-0.1,0-0.2,0-0.4c0-0.1,0-0.3,0-0.4c0-0.1,0-0.2,0-0.3
						c0-0.1,0-0.3,0-0.4c0-0.1,0-0.2,0-0.2c0-0.2,0-0.4-0.1-0.5c0-0.1,0-0.2,0-0.3c0,0,0-0.1,0-0.1c0-0.3-0.1-0.7-0.1-1c0,0,0,0,0,0
						c0,0,0-0.1,0-0.1c0-0.3-0.1-0.6-0.1-0.8c0,0,0-0.1,0-0.1c0-0.1-0.1-0.3-0.1-0.4c0-0.2-0.1-0.3-0.1-0.5c0-0.1,0-0.2-0.1-0.3
						c0-0.1-0.1-0.3-0.1-0.4c0-0.1,0-0.2-0.1-0.3c0-0.1-0.1-0.3-0.1-0.4c0-0.1-0.1-0.3-0.1-0.4c0-0.1,0-0.1-0.1-0.2
						c-0.1-0.2-0.1-0.4-0.2-0.6c0-0.1-0.1-0.2-0.1-0.4c0,0,0-0.1,0-0.1c-0.1-0.3-0.2-0.7-0.3-1c0,0,0,0,0,0c0,0,0-0.1,0-0.1
						c-0.1-0.3-0.2-0.6-0.3-0.9c0,0,0-0.1-0.1-0.1c0-0.1-0.1-0.2-0.1-0.3c-0.1-0.2-0.1-0.3-0.2-0.5c0-0.1-0.1-0.2-0.1-0.3
						c0-0.1-0.1-0.2-0.1-0.4c0-0.1-0.1-0.2-0.1-0.3c-0.1-0.2-0.2-0.4-0.2-0.5c0-0.1-0.1-0.2-0.1-0.3c0,0,0-0.1,0-0.1
						c-0.1-0.3-0.3-0.6-0.4-0.9c0,0,0,0,0,0c0-0.1-0.1-0.2-0.1-0.3c-0.1-0.2-0.2-0.5-0.3-0.7c0,0,0-0.1-0.1-0.1
						c-0.1-0.2-0.2-0.4-0.3-0.6c-0.1-0.2-0.2-0.3-0.2-0.5c0,0,0-0.1,0-0.1c-0.3-0.5-0.6-1-0.8-1.5c0,0,0-0.1-0.1-0.1
						c-0.1-0.1-0.2-0.3-0.2-0.4c-0.1-0.2-0.2-0.4-0.4-0.6c-0.1-0.2-0.2-0.4-0.3-0.5c-0.1-0.2-0.3-0.4-0.4-0.6c0-0.1-0.1-0.1-0.1-0.2
						c0-0.1-0.1-0.1-0.1-0.2c-0.4-0.5-0.7-1.1-1.1-1.6l0,0c0,0,0,0,0,0c-0.3-0.4-0.5-0.7-0.8-1.1c0,0,0,0,0,0
						c-0.2-0.3-0.4-0.5-0.6-0.8c0,0-0.1-0.1-0.1-0.1c0,0,0,0,0,0c-0.2-0.3-0.5-0.6-0.8-0.9c0,0,0,0,0,0c-0.1-0.1-0.2-0.2-0.2-0.3
						c-0.2-0.2-0.3-0.4-0.5-0.5c0,0-0.1-0.1-0.1-0.1c-0.1-0.1-0.2-0.2-0.3-0.4c-0.1-0.1-0.2-0.3-0.4-0.4c0,0-0.1-0.1-0.1-0.1
						c-0.1-0.1-0.2-0.2-0.4-0.4c-0.1-0.1-0.2-0.2-0.3-0.3c-0.1-0.1-0.1-0.1-0.2-0.2c-0.1-0.1-0.3-0.2-0.4-0.4
						c-0.1-0.1-0.2-0.2-0.3-0.3c-0.1-0.1-0.1-0.1-0.2-0.2c-0.1-0.1-0.3-0.2-0.4-0.4c-0.1-0.1-0.2-0.1-0.2-0.2
						c-0.1-0.1-0.2-0.1-0.3-0.2c-0.1-0.1-0.3-0.2-0.4-0.3c-0.1-0.1-0.1-0.1-0.2-0.2c-0.1-0.1-0.2-0.2-0.3-0.3
						c-0.1-0.1-0.2-0.2-0.4-0.3c-0.1,0-0.1-0.1-0.1-0.1c-0.2-0.1-0.3-0.2-0.5-0.3c-0.1-0.1-0.2-0.1-0.3-0.2c0,0-0.1,0-0.1-0.1
						c-0.3-0.2-0.6-0.4-0.8-0.5c0,0,0,0,0,0c0,0,0,0-0.1,0c-0.3-0.2-0.5-0.3-0.8-0.5c-0.1,0-0.1-0.1-0.2-0.1
						c-0.1-0.1-0.2-0.1-0.3-0.2c-0.1-0.1-0.2-0.1-0.3-0.2c-0.2-0.1-0.3-0.2-0.5-0.2c-0.1,0-0.2-0.1-0.2-0.1c0,0-0.1,0-0.1,0
						c-0.3-0.1-0.5-0.3-0.8-0.4c0,0,0,0,0,0c-0.1,0-0.1,0-0.2-0.1c-0.2-0.1-0.4-0.2-0.6-0.2c0,0-0.1,0-0.1-0.1
						c-0.1,0-0.2-0.1-0.3-0.1c-0.1,0-0.2-0.1-0.3-0.1c-0.1,0-0.2-0.1-0.2-0.1c-0.1,0-0.2-0.1-0.3-0.1c-0.1,0-0.1,0-0.2-0.1
						c-0.1,0-0.2-0.1-0.3-0.1c-0.1,0-0.2-0.1-0.3-0.1c0,0-0.1,0-0.1,0c-0.1,0-0.3-0.1-0.4-0.1c-0.1,0-0.2,0-0.3-0.1c0,0,0,0-0.1,0
						c-0.2,0-0.3-0.1-0.5-0.1c-0.1,0-0.2,0-0.4-0.1c0,0,0,0,0,0c-0.1,0-0.3,0-0.4,0c-0.1,0-0.3,0-0.4,0c0,0,0,0,0,0
						c-0.1,0-0.2,0-0.3,0c-0.2,0-0.4,0-0.6,0c0,0,0,0-0.1,0c-0.1,0-0.1,0-0.2,0c-0.2,0-0.4,0-0.7,0c0,0-0.1,0-0.1,0
						c-0.1,0-0.2,0-0.4,0c-0.1,0-0.1,0-0.2,0c-0.2,0-0.4,0.1-0.6,0.1c0,0,0,0-0.1,0c-0.1,0-0.2,0-0.3,0.1c-0.1,0-0.3,0.1-0.4,0.1
						c-0.1,0-0.2,0.1-0.3,0.1c-0.1,0-0.2,0.1-0.3,0.1c0,0-0.1,0-0.1,0c-0.2,0.1-0.4,0.1-0.5,0.2c-0.1,0-0.2,0.1-0.2,0.1
						c-0.3,0.1-0.5,0.2-0.7,0.4l-11.4,6.6c0.2-0.1,0.5-0.3,0.7-0.4c0.1,0,0.2-0.1,0.2-0.1c0.2-0.1,0.3-0.1,0.5-0.2
						c0.1,0,0.3-0.1,0.4-0.1c0.1,0,0.2-0.1,0.3-0.1c0.1,0,0.3-0.1,0.4-0.1c0.1,0,0.2,0,0.3-0.1c0.2,0,0.5-0.1,0.7-0.1
						c0.1,0,0.1,0,0.2,0c0.2,0,0.3,0,0.5,0c0.2,0,0.4,0,0.7,0c0.1,0,0.2,0,0.3,0c0.2,0,0.4,0,0.6,0c0.1,0,0.2,0,0.3,0
						c0.1,0,0.3,0,0.4,0c0.1,0,0.3,0,0.4,0c0.1,0,0.2,0,0.4,0.1c0.2,0,0.3,0.1,0.5,0.1c0.1,0,0.2,0,0.3,0.1c0.2,0,0.4,0.1,0.6,0.1
						c0.1,0,0.2,0.1,0.3,0.1c0.2,0.1,0.4,0.1,0.6,0.2c0.1,0,0.2,0.1,0.3,0.1c0.2,0.1,0.4,0.1,0.6,0.2c0.1,0,0.2,0.1,0.3,0.1
						c0.2,0.1,0.5,0.2,0.7,0.3c0.1,0,0.1,0,0.2,0.1c0.3,0.1,0.6,0.3,0.9,0.4c0.1,0,0.2,0.1,0.2,0.1c0.3,0.1,0.5,0.3,0.8,0.4
						c0.1,0.1,0.2,0.1,0.3,0.2c0.3,0.2,0.6,0.4,0.9,0.6c0,0,0,0,0.1,0c0.3,0.2,0.6,0.4,0.9,0.6c0.1,0.1,0.2,0.1,0.3,0.2
						c0.2,0.1,0.4,0.3,0.6,0.4c0.1,0.1,0.2,0.2,0.4,0.3c0.2,0.1,0.4,0.3,0.5,0.4c0.1,0.1,0.3,0.2,0.4,0.3c0.2,0.1,0.3,0.3,0.5,0.4
						c0.1,0.1,0.3,0.2,0.4,0.4c0.2,0.1,0.3,0.3,0.5,0.5c0.1,0.1,0.3,0.2,0.4,0.4c0.2,0.2,0.3,0.3,0.5,0.5c0.1,0.1,0.2,0.2,0.4,0.4
						c0.2,0.2,0.3,0.3,0.5,0.5c0.1,0.1,0.2,0.2,0.3,0.4c0.2,0.2,0.4,0.4,0.6,0.6c0.1,0.1,0.2,0.2,0.2,0.3c0.3,0.3,0.5,0.6,0.8,0.9
						c0,0,0.1,0.1,0.1,0.1c0.2,0.3,0.4,0.5,0.7,0.8c0.3,0.4,0.5,0.7,0.8,1.1c0,0,0,0,0,0c0.4,0.5,0.7,1,1.1,1.6
						c0.1,0.1,0.2,0.3,0.3,0.4c0.1,0.2,0.3,0.4,0.4,0.6c0.1,0.2,0.2,0.4,0.3,0.5c0.1,0.2,0.2,0.4,0.4,0.6c0.1,0.2,0.2,0.3,0.3,0.5
						c0.3,0.5,0.6,1,0.8,1.5c0.1,0.2,0.2,0.4,0.3,0.6c0.1,0.2,0.2,0.4,0.3,0.6c0.1,0.3,0.3,0.6,0.4,0.8c0,0.1,0.1,0.2,0.1,0.3
						c0.2,0.4,0.3,0.7,0.5,1.1c0,0.1,0.1,0.2,0.1,0.3c0.1,0.3,0.2,0.5,0.3,0.8c0.1,0.1,0.1,0.2,0.1,0.4c0.1,0.3,0.2,0.5,0.3,0.8
						c0,0.1,0.1,0.2,0.1,0.3c0.1,0.3,0.2,0.7,0.4,1c0,0,0,0.1,0,0.1c0.1,0.4,0.2,0.8,0.4,1.1c0,0.1,0.1,0.2,0.1,0.4
						c0.1,0.3,0.2,0.5,0.2,0.8c0,0.1,0.1,0.3,0.1,0.4c0.1,0.2,0.1,0.5,0.2,0.7c0,0.1,0.1,0.3,0.1,0.4c0.1,0.2,0.1,0.5,0.2,0.7
						c0,0.1,0.1,0.3,0.1,0.4c0.1,0.3,0.1,0.7,0.2,1c0,0,0,0.1,0,0.1c0.1,0.4,0.1,0.7,0.2,1.1c0,0.1,0,0.2,0,0.3
						c0,0.3,0.1,0.5,0.1,0.8c0,0.1,0,0.3,0,0.4c0,0.2,0,0.5,0,0.7c0,0.1,0,0.2,0,0.4c0,0.4,0,0.7,0,1c0,0.3,0,0.7,0,1
						c0,0.1,0,0.1,0,0.2c0,0.2,0,0.5,0,0.7c0,0.1,0,0.3,0,0.4c0,0.2,0,0.3-0.1,0.5c0,0.2-0.1,0.4-0.1,0.5c0,0.1,0,0.3-0.1,0.4
						c-0.1,0.3-0.1,0.6-0.2,0.9c0,0,0,0.1,0,0.1c-0.1,0.3-0.1,0.6-0.2,0.8c0,0.1-0.1,0.2-0.1,0.3c-0.1,0.2-0.2,0.5-0.2,0.7
						c0,0.1-0.1,0.2-0.1,0.3c-0.1,0.3-0.3,0.7-0.4,1c-0.1,0.1-0.1,0.2-0.2,0.4c-0.1,0.1-0.1,0.2-0.2,0.3c-0.1,0.1-0.1,0.2-0.2,0.3
						c-0.1,0.1-0.1,0.2-0.2,0.3c0,0-0.1,0.1-0.1,0.1c-0.1,0.2-0.3,0.4-0.4,0.6c-0.1,0.1-0.1,0.1-0.2,0.2c-0.1,0.1-0.2,0.3-0.3,0.4
						c-0.1,0.1-0.1,0.1-0.2,0.2c-0.1,0.1-0.3,0.3-0.4,0.4c-0.1,0.1-0.1,0.1-0.2,0.2c-0.2,0.2-0.4,0.3-0.6,0.5
						c-1.9,1.5-3.8,3.1-5.5,5l-6.4,6.8c-0.1,0.1-0.1,0.1-0.2,0.2c-0.1,0.1-0.1,0.1-0.2,0.2l0,0l0,0l11.4-6.6
						c0.2-0.1,0.3-0.2,0.4-0.3l6.4-6.8c1.7-1.8,3.6-3.4,5.5-5c0.2-0.2,0.4-0.3,0.6-0.5c0.1-0.1,0.1-0.1,0.2-0.2
						c0.1-0.1,0.3-0.3,0.4-0.4c0.1-0.1,0.1-0.1,0.2-0.2c0.1-0.1,0.2-0.3,0.3-0.4c0.1-0.1,0.1-0.1,0.2-0.2c0.1-0.2,0.3-0.4,0.4-0.6
						c0,0,0-0.1,0.1-0.1c0,0,0,0,0,0c0.1-0.1,0.1-0.2,0.2-0.3c0.1-0.1,0.1-0.2,0.2-0.3c0.1-0.1,0.1-0.2,0.2-0.3
						c0.1-0.1,0.1-0.2,0.2-0.3c0,0,0,0,0,0c0.2-0.3,0.3-0.7,0.4-1c0,0,0-0.1,0-0.1c0,0,0-0.1,0.1-0.2c0.1-0.2,0.2-0.5,0.2-0.7
						c0-0.1,0-0.1,0.1-0.2c0,0,0-0.1,0-0.1c0.1-0.3,0.1-0.5,0.2-0.8c0,0,0-0.1,0-0.1c0,0,0,0,0,0c0.1-0.3,0.1-0.6,0.2-0.9
						c0,0,0,0,0,0c0-0.1,0-0.2,0.1-0.4c0-0.2,0.1-0.4,0.1-0.5c0,0,0,0,0,0c0-0.2,0-0.3,0-0.5c0-0.1,0-0.3,0-0.4c0,0,0,0,0,0
						c0-0.2,0-0.5,0-0.7c0-0.1,0-0.1,0-0.2c0,0,0,0,0,0c0-0.3,0-0.6,0-0.9c0,0,0,0,0-0.1C417.9,197.4,417.9,197.1,417.8,196.8z"/>
				</g>
				<g>
					<g>
						<path class="st19" d="M401.2,200C401.2,200,401.2,200,401.2,200c0-0.2,0-0.5,0-0.7c0,0,0-0.1,0-0.1c0-0.1,0-0.2,0-0.2
							c0-0.1,0-0.2,0-0.3c0-0.1,0-0.2,0-0.2c0-0.1,0-0.2,0-0.3c0-0.1,0-0.1,0-0.2c0-0.1,0-0.3,0-0.4c0-0.1,0-0.1,0-0.2
							c0,0,0,0,0-0.1c0-0.2-0.1-0.5-0.1-0.7c0,0,0,0,0,0c0,0,0-0.1,0-0.1c0-0.2-0.1-0.4-0.1-0.6c0,0,0-0.1,0-0.1
							c0-0.1,0-0.2-0.1-0.3c0-0.1,0-0.2-0.1-0.3c0-0.1,0-0.1,0-0.2c0-0.1,0-0.2-0.1-0.3c0-0.1,0-0.2-0.1-0.2c0-0.1,0-0.2-0.1-0.3
							c0-0.1-0.1-0.2-0.1-0.3c0,0,0-0.1,0-0.1c0-0.1-0.1-0.3-0.1-0.4c0-0.1,0-0.2-0.1-0.3c0,0,0,0,0-0.1c-0.1-0.2-0.1-0.5-0.2-0.7
							c0,0,0,0,0,0c0,0,0,0,0-0.1c-0.1-0.2-0.1-0.4-0.2-0.6c0,0,0-0.1,0-0.1c0-0.1-0.1-0.2-0.1-0.2c0-0.1-0.1-0.2-0.1-0.3
							c0-0.1-0.1-0.1-0.1-0.2c0-0.1-0.1-0.2-0.1-0.3c0-0.1-0.1-0.1-0.1-0.2c-0.1-0.1-0.1-0.3-0.2-0.4c0-0.1-0.1-0.1-0.1-0.2
							c0,0,0,0,0-0.1c-0.1-0.2-0.2-0.4-0.3-0.7c0,0,0,0,0,0c0-0.1-0.1-0.1-0.1-0.2c-0.1-0.2-0.2-0.3-0.2-0.5c0,0,0-0.1,0-0.1
							c-0.1-0.1-0.1-0.3-0.2-0.4c-0.1-0.1-0.1-0.2-0.2-0.3c0,0,0-0.1-0.1-0.1c0-0.1-0.1-0.1-0.1-0.2c-0.1-0.2-0.2-0.4-0.3-0.5
							c0-0.1-0.1-0.1-0.1-0.2c0,0-0.1-0.1-0.1-0.1c-0.1-0.1-0.1-0.2-0.2-0.3c-0.1-0.1-0.2-0.3-0.3-0.4c-0.1-0.1-0.2-0.3-0.2-0.4
							c-0.1-0.1-0.2-0.3-0.3-0.4c0,0-0.1-0.1-0.1-0.1c-0.1-0.1-0.1-0.2-0.2-0.3c-0.1-0.1-0.1-0.1-0.2-0.2c-0.2-0.2-0.3-0.5-0.5-0.7
							c0,0,0,0,0,0l0,0c0,0,0,0,0,0c-0.2-0.3-0.4-0.5-0.6-0.8c0,0,0,0,0,0c-0.1-0.2-0.3-0.4-0.4-0.5c0,0-0.1-0.1-0.1-0.1
							c0,0,0,0,0,0c-0.2-0.2-0.4-0.4-0.5-0.6c0,0,0,0,0,0c-0.1-0.1-0.1-0.1-0.2-0.2c-0.1-0.1-0.2-0.3-0.3-0.4c0,0,0,0-0.1-0.1
							c-0.1-0.1-0.2-0.2-0.2-0.2c-0.1-0.1-0.2-0.2-0.3-0.3c0,0-0.1-0.1-0.1-0.1c-0.1-0.1-0.2-0.2-0.3-0.3c-0.1-0.1-0.1-0.1-0.2-0.2
							c0,0-0.1-0.1-0.1-0.1c-0.1-0.1-0.2-0.2-0.3-0.3c-0.1-0.1-0.1-0.1-0.2-0.2c-0.1,0-0.1-0.1-0.2-0.1c-0.1-0.1-0.2-0.2-0.3-0.2
							c-0.1,0-0.1-0.1-0.2-0.1c-0.1-0.1-0.1-0.1-0.2-0.2c-0.1-0.1-0.2-0.2-0.3-0.2c0,0-0.1-0.1-0.1-0.1c-0.1-0.1-0.2-0.1-0.2-0.2
							c-0.1-0.1-0.2-0.1-0.3-0.2c0,0-0.1-0.1-0.1-0.1c-0.1-0.1-0.2-0.2-0.3-0.2c-0.1-0.1-0.1-0.1-0.2-0.2c0,0,0,0-0.1,0
							c-0.2-0.1-0.4-0.3-0.6-0.4c0,0,0,0,0,0c0,0,0,0,0,0c-0.2-0.1-0.4-0.2-0.5-0.3c0,0-0.1-0.1-0.1-0.1c-0.1-0.1-0.3-0.2-0.4-0.2
							c0,0,0,0,0,0c0,0,0,0-0.1,0c-0.2-0.1-0.3-0.2-0.4-0.2c0,0,0,0-0.1,0c0,0,0,0,0,0c-0.2-0.1-0.3-0.2-0.5-0.2c0,0,0,0,0,0
							c0,0,0,0-0.1,0c-0.3-0.1-0.7-0.3-1-0.4c0,0,0,0-0.1,0c0,0,0,0,0,0c-0.2-0.1-0.3-0.1-0.5-0.2c0,0,0,0,0,0c0,0,0,0-0.1,0
							c-0.2-0.1-0.3-0.1-0.5-0.1c0,0,0,0,0,0l0,0c-0.2,0-0.3-0.1-0.5-0.1c0,0,0,0-0.1,0c0,0,0,0,0,0c0,0-0.1,0-0.1,0
							c-0.1,0-0.1,0-0.2,0c0,0-0.1,0-0.1,0c0,0-0.1,0-0.1,0c0,0,0,0-0.1,0c0,0-0.1,0-0.1,0c-0.1,0-0.1,0-0.2,0c0,0-0.1,0-0.1,0
							c0,0-0.1,0-0.1,0c0,0,0,0-0.1,0c-0.1,0-0.1,0-0.2,0c0,0-0.1,0-0.1,0c-0.1,0-0.1,0-0.2,0c0,0-0.1,0-0.1,0c0,0,0,0,0,0
							c-0.1,0-0.2,0-0.2,0c0,0-0.1,0-0.1,0c-0.1,0-0.2,0-0.3,0c0,0,0,0,0,0c0,0,0,0,0,0c-0.1,0-0.2,0-0.3,0c0,0-0.1,0-0.1,0
							c-0.1,0-0.2,0-0.3,0.1c0,0,0,0,0,0c0,0,0,0,0,0c-0.1,0-0.3,0.1-0.4,0.1c0,0,0,0-0.1,0c-0.1,0-0.3,0.1-0.4,0.1c0,0,0,0,0,0
							c0,0,0,0-0.1,0c-0.1,0-0.1,0-0.2,0.1c0,0-0.1,0-0.1,0c-0.1,0-0.1,0-0.2,0.1c0,0-0.1,0-0.1,0c-0.1,0-0.1,0.1-0.2,0.1
							c0,0-0.1,0-0.1,0c-0.1,0-0.2,0.1-0.3,0.1l-4.3,2.5c0.1,0,0.2-0.1,0.3-0.1c0,0,0.1,0,0.1,0c0.1,0,0.1-0.1,0.2-0.1
							c0,0,0.1,0,0.1,0c0.1,0,0.1,0,0.2-0.1c0,0,0.1,0,0.1,0c0.1,0,0.1,0,0.2-0.1c0,0,0.1,0,0.1,0c0.1,0,0.3-0.1,0.4-0.1
							c0,0,0,0,0.1,0c0.1,0,0.3-0.1,0.4-0.1c0,0,0,0,0.1,0c0.1,0,0.2,0,0.3-0.1c0,0,0.1,0,0.1,0c0.1,0,0.2,0,0.3,0c0,0,0,0,0.1,0
							c0.1,0,0.2,0,0.3,0c0,0,0.1,0,0.1,0c0.1,0,0.2,0,0.2,0c0,0,0.1,0,0.1,0c0.1,0,0.1,0,0.2,0c0,0,0.1,0,0.1,0c0.1,0,0.1,0,0.2,0
							c0.1,0,0.1,0,0.2,0c0,0,0.1,0,0.1,0c0.1,0,0.1,0,0.2,0c0,0,0.1,0,0.2,0c0.1,0,0.1,0,0.2,0c0,0,0.1,0,0.1,0c0.1,0,0.1,0,0.2,0
							c0,0,0.1,0,0.1,0c0,0,0.1,0,0.1,0c0.2,0,0.3,0.1,0.5,0.1c0,0,0,0,0,0c0.2,0,0.3,0.1,0.5,0.1c0,0,0.1,0,0.1,0
							c0.2,0,0.3,0.1,0.5,0.2c0,0,0.1,0,0.1,0c0.2,0.1,0.3,0.1,0.5,0.2l0,0c0.2,0.1,0.3,0.1,0.5,0.2c0,0,0.1,0,0.1,0
							c0.2,0.1,0.3,0.1,0.5,0.2c0,0,0.1,0,0.1,0c0.1,0.1,0.3,0.2,0.4,0.2c0,0,0.1,0,0.1,0c0.1,0.1,0.3,0.1,0.4,0.2
							c0.2,0.1,0.4,0.3,0.7,0.4c0,0,0,0,0,0c0.2,0.1,0.4,0.3,0.6,0.4c0.1,0.1,0.1,0.1,0.2,0.2c0.1,0.1,0.3,0.2,0.4,0.3
							c0.1,0.1,0.2,0.1,0.3,0.2c0.1,0.1,0.3,0.2,0.4,0.3c0.1,0.1,0.2,0.2,0.3,0.2c0.1,0.1,0.2,0.2,0.4,0.3c0.1,0.1,0.2,0.2,0.3,0.2
							c0.1,0.1,0.2,0.2,0.3,0.3c0.1,0.1,0.2,0.2,0.3,0.3c0.1,0.1,0.2,0.2,0.3,0.3c0.1,0.1,0.2,0.2,0.3,0.3c0.1,0.1,0.2,0.2,0.4,0.4
							c0.1,0.1,0.2,0.2,0.2,0.2c0.1,0.1,0.3,0.3,0.4,0.4c0.1,0.1,0.1,0.1,0.2,0.2c0.2,0.2,0.4,0.4,0.6,0.7c0,0,0.1,0.1,0.1,0.1
							c0.2,0.2,0.3,0.4,0.5,0.6c0.2,0.2,0.4,0.5,0.6,0.8c0,0,0,0,0,0c0,0,0,0,0,0c0.2,0.2,0.3,0.5,0.5,0.7c0.1,0.1,0.1,0.1,0.2,0.2
							c0.1,0.2,0.2,0.3,0.3,0.5c0.1,0.1,0.2,0.3,0.3,0.4c0.1,0.1,0.2,0.2,0.2,0.4c0.1,0.1,0.2,0.3,0.3,0.4c0.1,0.1,0.2,0.3,0.2,0.4
							c0,0.1,0.1,0.1,0.1,0.2c0.1,0.2,0.2,0.4,0.3,0.5c0,0.1,0.1,0.1,0.1,0.2c0.1,0.1,0.1,0.3,0.2,0.4c0.1,0.1,0.1,0.3,0.2,0.4
							c0.1,0.2,0.2,0.4,0.3,0.6c0,0.1,0.1,0.1,0.1,0.2c0.1,0.3,0.2,0.5,0.3,0.8c0,0.1,0.1,0.1,0.1,0.2c0.1,0.2,0.2,0.4,0.2,0.6
							c0,0.1,0.1,0.2,0.1,0.3c0.1,0.2,0.1,0.4,0.2,0.5c0,0.1,0.1,0.2,0.1,0.2c0.1,0.2,0.2,0.5,0.3,0.7c0,0,0,0,0,0.1
							c0.1,0.3,0.2,0.5,0.3,0.8c0,0.1,0,0.2,0.1,0.3c0.1,0.2,0.1,0.4,0.2,0.5c0,0.1,0.1,0.2,0.1,0.3c0,0.2,0.1,0.3,0.1,0.5
							c0,0.1,0,0.2,0.1,0.3c0,0.2,0.1,0.3,0.1,0.5c0,0.1,0,0.2,0.1,0.3c0,0.2,0.1,0.5,0.1,0.7c0,0,0,0.1,0,0.1
							c0,0.3,0.1,0.5,0.1,0.8c0,0.1,0,0.1,0,0.2c0,0.2,0,0.4,0.1,0.6c0,0.1,0,0.2,0,0.3c0,0.2,0,0.3,0,0.5c0,0.1,0,0.2,0,0.2
							c0,0.2,0,0.5,0,0.7c0,0,0,0.1,0,0.1c0,0.2,0,0.4,0,0.6c0,0,0,0.1,0,0.1c0,0.2,0,0.4,0,0.6c0,0,0,0.1,0,0.1
							c0,0.2,0,0.4-0.1,0.6c0,0,0,0,0,0.1c0,0.2-0.1,0.4-0.1,0.6c0,0,0,0,0,0c0,0.2-0.1,0.4-0.1,0.7l0,0c0,0.1-0.1,0.2-0.1,0.3
							c0,0,0,0.1,0,0.1c0,0.1,0,0.1-0.1,0.2c0,0,0,0.1,0,0.1c0,0.1,0,0.2-0.1,0.2c0,0,0,0.1,0,0.1c0,0.1,0,0.1-0.1,0.2
							c0,0,0,0.1,0,0.1c0,0.1-0.1,0.2-0.1,0.3c0,0,0,0.1,0,0.1c0,0.1-0.1,0.2-0.2,0.3c0,0,0,0,0,0.1c-0.1,0.2-0.1,0.3-0.2,0.4l0,0
							c-0.1,0.1-0.2,0.3-0.2,0.4c0,0,0,0,0,0.1c-0.1,0.1-0.1,0.2-0.2,0.3c0,0,0,0-0.1,0.1c-0.1,0.1-0.1,0.2-0.2,0.3c0,0,0,0,0,0
							c-0.1,0.1-0.2,0.2-0.2,0.3c0,0,0,0-0.1,0.1c-0.1,0.1-0.2,0.2-0.2,0.2c0,0,0,0,0,0c-0.1,0.1-0.2,0.2-0.3,0.2c0,0,0,0-0.1,0.1
							c-0.1,0.1-0.2,0.1-0.3,0.2c0,0,0,0,0,0c-0.1,0.1-0.2,0.1-0.3,0.2c0,0,0,0-0.1,0c-0.1,0.1-0.2,0.1-0.3,0.2l0,0l0,0l4.3-2.5
							c0.1-0.1,0.2-0.1,0.3-0.2c0,0,0,0,0.1,0c0.1-0.1,0.2-0.1,0.3-0.2c0,0,0,0,0,0c0.1-0.1,0.2-0.1,0.3-0.2c0,0,0,0,0.1-0.1
							c0.1-0.1,0.2-0.2,0.3-0.2c0,0,0,0,0,0c0.1-0.1,0.2-0.2,0.2-0.2c0,0,0,0,0.1-0.1c0.1-0.1,0.2-0.2,0.2-0.3c0,0,0,0,0,0
							c0.1-0.1,0.1-0.2,0.2-0.3c0,0,0,0,0.1-0.1c0.1-0.1,0.1-0.2,0.2-0.3c0,0,0,0,0,0c0,0,0,0,0,0c0.1-0.1,0.2-0.3,0.2-0.4l0,0
							c0.1-0.1,0.2-0.3,0.2-0.4c0,0,0,0,0,0c0,0,0,0,0,0c0.1-0.1,0.1-0.2,0.2-0.3c0,0,0-0.1,0-0.1c0-0.1,0.1-0.2,0.1-0.3
							c0,0,0,0,0-0.1c0,0,0,0,0-0.1c0-0.1,0-0.1,0.1-0.2c0,0,0-0.1,0-0.1c0-0.1,0.1-0.2,0.1-0.2c0,0,0-0.1,0-0.1c0,0,0,0,0,0
							c0-0.1,0-0.2,0.1-0.2c0,0,0-0.1,0-0.1c0-0.1,0.1-0.2,0.1-0.3l0,0v0c0-0.2,0.1-0.4,0.1-0.7c0,0,0,0,0,0c0,0,0,0,0,0
							c0-0.2,0.1-0.4,0.1-0.6c0,0,0,0,0,0c0,0,0,0,0,0c0-0.2,0-0.4,0.1-0.6c0,0,0,0,0-0.1c0,0,0,0,0-0.1c0-0.2,0-0.4,0-0.6
							c0,0,0,0,0,0c0,0,0,0,0-0.1C401.2,200.4,401.2,200.2,401.2,200C401.2,200,401.2,200,401.2,200z"/>
						<g>
							<path class="st20" d="M383.2,178.8c7.6,4.4,13.7,15,13.6,23.6c0,8.7-6.2,12.2-13.7,7.8c-7.6-4.4-13.7-15-13.6-23.6
								C369.5,178,375.6,174.5,383.2,178.8z"/>
						</g>
					</g>
					<g>
						<g>
							<path class="st14" d="M383.3,206.4c-5.8-3.3-10.4-11.4-10.4-18.1c0-6.6,4.7-9.3,10.5-6c5.8,3.3,10.4,11.4,10.4,18.1
								C393.7,207.1,389,209.7,383.3,206.4z"/>
						</g>
						<path class="st19" d="M392.1,206.2C392.1,206.2,392.1,206.2,392.1,206.2C392.1,206.2,392.1,206.2,392.1,206.2
							c-0.2,0-0.2,0-0.3,0c0,0,0,0,0,0c-0.1,0-0.2,0-0.3,0c0,0,0,0-0.1,0c-0.1,0-0.1,0-0.2,0c0,0-0.1,0-0.1,0c0,0-0.1,0-0.1,0
							c0,0-0.1,0-0.1,0c0,0-0.1,0-0.1,0c0,0-0.1,0-0.1,0c0,0-0.1,0-0.1,0c0,0-0.1,0-0.1,0c0,0-0.1,0-0.1,0c0,0-0.1,0-0.1,0
							c0,0-0.1,0-0.1,0c0,0-0.1,0-0.1,0c0,0-0.1,0-0.1,0c0,0-0.1,0-0.1,0c-0.1,0-0.3-0.1-0.4-0.1c0,0,0,0,0,0
							c-0.1,0-0.3-0.1-0.4-0.1c0,0,0,0-0.1,0c-0.1,0-0.2-0.1-0.4-0.1c0,0-0.1,0-0.1,0c-0.1,0-0.3-0.1-0.4-0.1l0,0
							c-0.1-0.1-0.3-0.1-0.4-0.2c0,0-0.1,0-0.1,0c-0.1-0.1-0.2-0.1-0.4-0.2c0,0,0,0-0.1,0c-0.1-0.1-0.2-0.1-0.3-0.2c0,0,0,0-0.1,0
							c-0.1-0.1-0.2-0.1-0.3-0.2c-0.2-0.1-0.3-0.2-0.5-0.3c0,0,0,0,0,0c-0.2-0.1-0.3-0.2-0.5-0.3c-0.1,0-0.1-0.1-0.2-0.1
							c-0.1-0.1-0.2-0.2-0.3-0.2c-0.1,0-0.1-0.1-0.2-0.2c-0.1-0.1-0.2-0.2-0.3-0.2c-0.1-0.1-0.1-0.1-0.2-0.2
							c-0.1-0.1-0.2-0.2-0.3-0.2c-0.1-0.1-0.1-0.1-0.2-0.2c-0.1-0.1-0.2-0.2-0.3-0.2c-0.1-0.1-0.1-0.1-0.2-0.2
							c-0.1-0.1-0.2-0.2-0.3-0.3c-0.1-0.1-0.1-0.1-0.2-0.2c-0.1-0.1-0.2-0.2-0.3-0.3c-0.1-0.1-0.1-0.1-0.2-0.2
							c-0.1-0.1-0.2-0.2-0.3-0.3c0,0-0.1-0.1-0.1-0.1c-0.1-0.2-0.3-0.3-0.4-0.5c0,0,0-0.1-0.1-0.1c-0.1-0.1-0.2-0.3-0.4-0.4
							c-0.2-0.2-0.3-0.4-0.4-0.6c0,0,0,0,0,0c0,0,0,0,0,0c-0.1-0.2-0.3-0.4-0.4-0.5c0-0.1-0.1-0.1-0.1-0.2c-0.1-0.1-0.2-0.2-0.2-0.4
							c-0.1-0.1-0.1-0.2-0.2-0.3c-0.1-0.1-0.1-0.2-0.2-0.3c-0.1-0.1-0.1-0.2-0.2-0.3c-0.1-0.1-0.1-0.2-0.2-0.3
							c0-0.1-0.1-0.1-0.1-0.2c-0.1-0.1-0.2-0.3-0.2-0.4c0-0.1-0.1-0.1-0.1-0.2c-0.1-0.1-0.1-0.2-0.2-0.3c-0.1-0.1-0.1-0.2-0.2-0.3
							c-0.1-0.2-0.1-0.3-0.2-0.5c0,0,0-0.1-0.1-0.1c-0.1-0.2-0.2-0.4-0.3-0.6c0-0.1,0-0.1-0.1-0.2c-0.1-0.1-0.1-0.3-0.2-0.4
							c0-0.1-0.1-0.1-0.1-0.2c-0.1-0.1-0.1-0.3-0.2-0.4c0-0.1,0-0.1-0.1-0.2c-0.1-0.2-0.1-0.4-0.2-0.6c0,0,0,0,0,0
							c-0.1-0.2-0.1-0.4-0.2-0.6c0-0.1,0-0.1-0.1-0.2c0-0.1-0.1-0.3-0.1-0.4c0-0.1,0-0.2-0.1-0.2c0-0.1-0.1-0.3-0.1-0.4
							c0-0.1,0-0.2-0.1-0.2c0-0.1-0.1-0.3-0.1-0.4c0-0.1,0-0.1,0-0.2c0-0.2-0.1-0.4-0.1-0.5c0,0,0-0.1,0-0.1c0-0.2-0.1-0.4-0.1-0.6
							c0-0.1,0-0.1,0-0.2c0-0.1,0-0.3,0-0.4c0-0.1,0-0.1,0-0.2c0-0.1,0-0.3,0-0.4c0-0.1,0-0.1,0-0.2c0-0.2,0-0.4,0-0.6
							c0,0,0,0,0-0.1c0-0.1,0-0.3,0-0.4c0,0,0,0,0-0.1c0-0.1,0-0.3,0-0.4c0,0,0-0.1,0-0.1c0-0.2,0-0.3,0-0.4c0,0,0,0,0-0.1
							c0-0.2,0-0.3,0.1-0.5c0,0,0,0,0,0c0-0.2,0.1-0.3,0.1-0.5l0,0c0-0.1,0-0.2,0.1-0.3c0,0,0-0.1,0-0.1c0-0.1,0-0.1,0-0.2
							c0,0,0-0.1,0-0.1c0-0.1,0-0.1,0.1-0.2c0,0,0-0.1,0-0.1c0-0.1,0-0.1,0.1-0.2c0,0,0-0.1,0-0.1c0-0.1,0.1-0.1,0.1-0.2
							c0,0,0,0,0-0.1c0-0.1,0.1-0.2,0.1-0.3c0,0,0,0,0,0c0.1-0.1,0.1-0.2,0.2-0.3l0,0c0.1-0.1,0.1-0.2,0.2-0.3c0,0,0,0,0,0
							c0.1-0.1,0.1-0.2,0.2-0.2c0,0,0,0,0-0.1c0-0.1,0.1-0.1,0.1-0.2c-0.7,0.1-1.3,0.3-1.9,0.7c-0.1,0-0.1,0.1-0.2,0.1c0,0,0,0,0,0
							c0,0,0,0-0.1,0c-0.1,0-0.1,0.1-0.2,0.2c0,0,0,0,0,0c-0.1,0-0.1,0.1-0.2,0.2c0,0,0,0,0,0c0,0,0,0-0.1,0
							c-0.1,0.1-0.1,0.1-0.2,0.2c0,0,0,0,0,0c-0.1,0.1-0.1,0.1-0.2,0.2c0,0,0,0,0,0c-0.1,0.1-0.1,0.1-0.2,0.2c0,0,0,0,0,0
							c-0.1,0.1-0.1,0.1-0.2,0.2c0,0,0,0,0,0.1c-0.1,0.1-0.1,0.2-0.2,0.2c0,0,0,0,0,0c-0.1,0.1-0.1,0.2-0.2,0.3c0,0,0,0,0,0
							c-0.1,0.1-0.1,0.2-0.2,0.3c0,0,0,0,0,0c0,0,0,0,0,0c0,0,0,0,0,0c0,0.1-0.1,0.2-0.1,0.3c0,0,0,0,0,0.1c0,0.1-0.1,0.1-0.1,0.2
							c0,0,0,0.1,0,0.1c0,0,0,0,0,0c0,0.1,0,0.1-0.1,0.2c0,0,0,0,0,0c0,0,0,0.1,0,0.1c0,0.1,0,0.1-0.1,0.2c0,0,0,0,0,0
							c0,0,0,0,0,0.1c0,0,0,0,0,0c0,0.1,0,0.1,0,0.2c0,0,0,0.1,0,0.1c0,0.1,0,0.2-0.1,0.3c0,0,0,0,0,0c0,0.2-0.1,0.3-0.1,0.5
							c0,0,0,0,0,0v0c0,0,0,0,0,0c0,0.2,0,0.3-0.1,0.5l0,0c0,0,0,0,0,0.1l0,0c0,0.1,0,0.3,0,0.4c0,0,0,0.1,0,0.1l0,0
							c0,0.1,0,0.3,0,0.4c0,0,0,0.1,0,0.1c0,0.1,0,0.3,0,0.4v0c0,0,0,0,0,0.1l0,0c0,0.2,0,0.4,0,0.6l0,0c0,0.1,0,0.1,0,0.2
							c0,0.1,0,0.3,0,0.4c0,0.1,0,0.1,0,0.2c0,0.1,0,0.3,0,0.4l0,0c0,0.1,0,0.1,0,0.2l0,0c0,0.2,0.1,0.4,0.1,0.6c0,0,0,0,0,0.1
							c0,0.2,0.1,0.4,0.1,0.5c0,0.1,0,0.1,0,0.2c0,0.1,0.1,0.3,0.1,0.4c0,0.1,0,0.2,0.1,0.2c0,0.1,0.1,0.3,0.1,0.4
							c0,0.1,0,0.2,0.1,0.2c0,0.1,0.1,0.3,0.1,0.4c0,0.1,0,0.1,0.1,0.2c0.1,0.2,0.1,0.4,0.2,0.6c0,0,0,0,0,0
							c0.1,0.2,0.1,0.4,0.2,0.6c0,0.1,0,0.1,0.1,0.2c0.1,0.1,0.1,0.3,0.2,0.4c0,0.1,0.1,0.1,0.1,0.2c0.1,0.1,0.1,0.3,0.2,0.4
							c0,0.1,0,0.1,0.1,0.2c0.1,0.2,0.2,0.4,0.3,0.6c0,0,0,0.1,0.1,0.1c0.1,0.2,0.1,0.3,0.2,0.5c0.1,0.1,0.1,0.2,0.2,0.3
							c0.1,0.1,0.1,0.2,0.2,0.3c0,0,0.1,0.1,0.1,0.1c0.1,0.1,0.2,0.3,0.2,0.4c0,0.1,0.1,0.1,0.1,0.2c0.1,0.1,0.1,0.2,0.2,0.3
							c0.1,0.1,0.1,0.2,0.2,0.3c0.1,0.1,0.1,0.2,0.2,0.3c0.1,0.1,0.1,0.2,0.2,0.3c0.1,0.1,0.2,0.2,0.2,0.4c0,0.1,0.1,0.1,0.1,0.2
							c0.1,0.2,0.3,0.4,0.4,0.6c0.1,0.2,0.3,0.4,0.4,0.6c0.1,0.2,0.2,0.3,0.4,0.5c0,0,0,0,0.1,0.1c0.1,0.2,0.3,0.3,0.4,0.5
							c0,0,0.1,0.1,0.1,0.1c0.1,0.1,0.2,0.2,0.3,0.4c0.1,0.1,0.1,0.1,0.2,0.2c0.1,0.1,0.2,0.2,0.3,0.3c0.1,0.1,0.1,0.1,0.2,0.2
							c0.1,0.1,0.2,0.2,0.3,0.3c0.1,0.1,0.1,0.1,0.2,0.2c0.1,0.1,0.2,0.2,0.3,0.2c0.1,0.1,0.1,0.1,0.2,0.2c0.1,0.1,0.2,0.2,0.3,0.2
							c0.1,0.1,0.1,0.1,0.2,0.2c0.1,0.1,0.2,0.2,0.3,0.2c0.1,0,0.1,0.1,0.2,0.1c0.1,0.1,0.2,0.2,0.3,0.2c0.1,0,0.1,0.1,0.2,0.1
							c0.2,0.1,0.3,0.2,0.5,0.3c0,0,0,0,0,0c0.2,0.1,0.3,0.2,0.5,0.3c0,0,0,0,0,0c0.1,0.1,0.2,0.1,0.3,0.2c0,0,0.1,0,0.1,0
							c0.1,0.1,0.2,0.1,0.3,0.2c0,0,0,0,0.1,0l0,0c0.1,0.1,0.2,0.1,0.4,0.2c0,0,0.1,0,0.1,0c0.3,0.1,0.5,0.2,0.8,0.3
							c0,0,0.1,0,0.1,0l0,0c0.1,0,0.2,0.1,0.4,0.1c0,0,0,0,0.1,0c0.1,0,0.3,0.1,0.4,0.1l0,0c0,0,0,0,0,0c0.1,0,0.3,0.1,0.4,0.1
							c0,0,0,0,0,0c0,0,0,0,0.1,0c0,0,0,0,0,0c0,0,0.1,0,0.1,0c0,0,0,0,0.1,0c0,0,0.1,0,0.1,0c0,0,0.1,0,0.1,0c0,0,0.1,0,0.1,0
							c0,0,0,0,0,0c0,0,0.1,0,0.1,0c0,0,0,0,0.1,0c0,0,0,0,0.1,0c0,0,0.1,0,0.1,0c0,0,0.1,0,0.1,0c0,0,0,0,0,0c0,0,0.1,0,0.1,0
							c0,0,0,0,0.1,0c0,0,0,0,0.1,0c0,0,0.1,0,0.1,0c0,0,0.1,0,0.1,0c0,0,0,0,0,0c0.1,0,0.1,0,0.2,0c0,0,0,0,0.1,0c0,0,0,0,0,0
							c0.1,0,0.1,0,0.2,0c0,0,0,0,0.1,0c0.1,0,0.1,0,0.2,0c0,0,0,0,0,0c0,0,0,0,0,0c0.1,0,0.2,0,0.2,0c0,0,0,0,0,0c0,0,0,0,0,0
							c0.1,0,0.2,0,0.3-0.1c0,0,0,0,0.1,0c0.1,0,0.2-0.1,0.3-0.1c0,0,0,0,0.1,0c0,0,0,0,0,0c0,0,0.1,0,0.1,0c0,0,0,0,0,0
							c0,0,0,0,0.1,0c0,0,0.1,0,0.1-0.1c0,0,0.1,0,0.1,0c0,0,0.1,0,0.1-0.1c0,0,0,0,0.1,0c0,0,0,0,0,0c0,0,0.1-0.1,0.1-0.1
							C391.2,207.1,391.7,206.7,392.1,206.2z"/>
					</g>
				</g>
			</g>
		</g>
	</g>
</g>
</svg>
