<?xml version="1.0" encoding="utf-8"?>
<!-- Generator: Adobe Illustrator 21.0.2, SVG Export Plug-In . SVG Version: 6.00 Build 0)  -->
<svg version="1.1" id="Layer_1" xmlns="http://www.w3.org/2000/svg" xmlns:xlink="http://www.w3.org/1999/xlink" x="0px" y="0px"
	 viewBox="0 0 500 500" style="enable-background:new 0 0 500 500;" xml:space="preserve">
<style type="text/css">
	.st0{display:none;}
	.st1{display:inline;fill:#4AACDD;}
	.st2{fill:#394244;}
	.st3{opacity:0.54;fill:#FCF7E0;stroke:#FCF7E0;stroke-width:10;stroke-miterlimit:10;enable-background:new    ;}
	.st4{clip-path:url(#SVGID_5_);}
	.st5{clip-path:url(#SVGID_6_);fill:url(#SVGID_7_);}
	.st6{fill:url(#SVGID_8_);}
	.st7{opacity:0.34;fill:url(#SVGID_9_);enable-background:new    ;}
	.st8{opacity:0.33;fill:url(#SVGID_10_);enable-background:new    ;}
	.st9{opacity:0.27;fill:url(#SVGID_11_);enable-background:new    ;}
	.st10{opacity:0.27;fill:url(#SVGID_12_);enable-background:new    ;}
	.st11{fill:#DD3636;}
	.st12{fill:#EA5C5C;}
	.st13{opacity:0.12;fill:url(#SVGID_13_);enable-background:new    ;}
</style>
<g id="BACKGROUND" class="st0">
	<rect class="st1" width="500" height="500"/>
</g>
<g id="OBJECT">
	<g>
		<g>
			<g>
				<path class="st2" d="M171.9,31.3c-67.8,7.2-116.8,68-109.5,135.8s68,116.8,135.8,109.5s116.8-68,109.5-135.8
					S239.6,24.1,171.9,31.3z M196.6,261.3c-59.3,6.3-112.4-36.5-118.7-95.7c-6.3-59.3,36.5-112.4,95.7-118.7S286,83.4,292.3,142.6
					C298.7,201.7,255.8,254.9,196.6,261.3z"/>
				<g>
					<g>
						<path class="st3" d="M173.6,45.9c-59.5,6.4-102.5,59.8-96.1,119.2s59.8,102.5,119.2,96.1s102.5-59.8,96.1-119.2
							C286.4,82.6,233,39.5,173.6,45.9z M196.7,259.3c-58.5,6.2-110.9-36-117.2-94.4c-6.2-58.5,36-110.9,94.4-117.2
							c58.5-6.2,110.9,36,117.2,94.4C297.4,200.6,255.2,253,196.7,259.3z"/>
						<g>
							<g>
								<defs>
									<polygon id="SVGID_3_" points="-45.9,53 -44.9,52.8 -45.6,54 									"/>
								</defs>
								<defs>
									<polygon id="SVGID_4_" points="-48.2,51.5 -49.2,51.7 -48.5,50.5 									"/>
								</defs>
								<clipPath id="SVGID_5_">
									<use xlink:href="#SVGID_3_"  style="overflow:visible;"/>
								</clipPath>
								<clipPath id="SVGID_6_" class="st4">
									<use xlink:href="#SVGID_4_"  style="overflow:visible;"/>
								</clipPath>
								
									<linearGradient id="SVGID_7_" gradientUnits="userSpaceOnUse" x1="135.2891" y1="69.0484" x2="323.9228" y2="292.532" gradientTransform="matrix(0.975 -0.2221 0.2221 0.975 -47.0527 52.2659)">
									<stop  offset="0" style="stop-color:#FFFFFF"/>
									<stop  offset="1" style="stop-color:#000000"/>
								</linearGradient>
								<path class="st5" d="M173.6,45.9c-59.5,6.4-102.5,59.8-96.1,119.2s59.8,102.5,119.2,96.1s102.5-59.8,96.1-119.2
									C286.4,82.6,233,39.5,173.6,45.9z M196.7,259.3c-58.5,6.2-110.9-36-117.2-94.4c-6.2-58.5,36-110.9,94.4-117.2
									c58.5-6.2,110.9,36,117.2,94.4C297.4,200.6,255.2,253,196.7,259.3z"/>
							</g>
						</g>
						
							<linearGradient id="SVGID_8_" gradientUnits="userSpaceOnUse" x1="135.2891" y1="69.0484" x2="323.9228" y2="292.532" gradientTransform="matrix(0.975 -0.2221 0.2221 0.975 -47.0527 52.2659)">
							<stop  offset="0" style="stop-color:#FFFFFF"/>
							<stop  offset="1" style="stop-color:#FFFFFF"/>
						</linearGradient>
						<path class="st6" d="M173.6,45.9c-59.5,6.4-102.5,59.8-96.1,119.2s59.8,102.5,119.2,96.1s102.5-59.8,96.1-119.2
							C286.4,82.6,233,39.5,173.6,45.9z M196.7,259.3c-58.5,6.2-110.9-36-117.2-94.4c-6.2-58.5,36-110.9,94.4-117.2
							c58.5-6.2,110.9,36,117.2,94.4C297.4,200.6,255.2,253,196.7,259.3z"/>
						
							<linearGradient id="SVGID_9_" gradientUnits="userSpaceOnUse" x1="233.9114" y1="413.9634" x2="110.4322" y2="538.7703" gradientTransform="matrix(0.9943 -0.1067 -0.1067 -0.9943 11.9043 602.2754)">
							<stop  offset="5.618000e-03" style="stop-color:#FFFFFF"/>
							<stop  offset="0.1487" style="stop-color:#EEE8FE"/>
							<stop  offset="0.3624" style="stop-color:#DACBFD"/>
							<stop  offset="0.5766" style="stop-color:#CBB7FC"/>
							<stop  offset="0.7896" style="stop-color:#C2ABFB"/>
							<stop  offset="1" style="stop-color:#BFA7FB"/>
						</linearGradient>
						<circle class="st7" cx="184.8" cy="153.1" r="106.7"/>
						
							<radialGradient id="SVGID_10_" cx="249.9029" cy="503.253" r="195.111" gradientTransform="matrix(0.9943 -0.1067 -0.1067 -0.9943 11.9043 602.2754)" gradientUnits="userSpaceOnUse">
							<stop  offset="5.618000e-03" style="stop-color:#FFFFFF"/>
							<stop  offset="9.586882e-02" style="stop-color:#FAF8F5"/>
							<stop  offset="0.2503" style="stop-color:#EDE4DA"/>
							<stop  offset="0.4503" style="stop-color:#D8C4AD"/>
							<stop  offset="0.6882" style="stop-color:#BB976F"/>
							<stop  offset="0.9552" style="stop-color:#965F22"/>
							<stop  offset="1" style="stop-color:#8F5514"/>
						</radialGradient>
						<circle class="st8" cx="191.6" cy="159.2" r="97.4"/>
					</g>
					
						<linearGradient id="SVGID_11_" gradientUnits="userSpaceOnUse" x1="158.5246" y1="495.915" x2="154.6617" y2="478.4737" gradientTransform="matrix(0.9943 -0.1067 -0.1067 -0.9943 11.9043 602.2754)">
						<stop  offset="2.424240e-02" style="stop-color:#FFFFFF"/>
						<stop  offset="1" style="stop-color:#FFFFFF"/>
					</linearGradient>
					<path class="st9" d="M117.6,89.7c-3,3-9.2,10-14.7,20.5l10.6,4.7c7.1-12.3,14.5-19.2,14.5-19.2L117.6,89.7z"/>
					
						<linearGradient id="SVGID_12_" gradientUnits="userSpaceOnUse" x1="144.6145" y1="466.6889" x2="132.2505" y2="410.8638" gradientTransform="matrix(0.9943 -0.1067 -0.1067 -0.9943 11.9043 602.2754)">
						<stop  offset="2.424240e-02" style="stop-color:#FFFFFF"/>
						<stop  offset="1" style="stop-color:#FFFFFF"/>
					</linearGradient>
					<path class="st10" d="M101.1,113.7c-0.5,1-1,2.2-1.5,3.3c-7.2,16.6-12.8,43.5-0.4,78.3l9.9-1.7c-13.6-31.5-6.6-57.9,2.5-75.3
						L101.1,113.7z"/>
				</g>
			</g>
			<g>
				
					<rect x="301" y="218.8" transform="matrix(0.7124 -0.7018 0.7018 0.7124 -107.6254 303.7132)" class="st2" width="31.4" height="128.8"/>
				
					<rect x="359.8" y="249.8" transform="matrix(0.7124 -0.7018 0.7018 0.7124 -132.8082 366.3339)" class="st11" width="41.5" height="190.8"/>
				
					<rect x="369.2" y="259.7" transform="matrix(0.7124 -0.7018 0.7018 0.7124 -136.1009 364.8733)" class="st12" width="15.8" height="177.6"/>
			</g>
		</g>
		
			<linearGradient id="SVGID_13_" gradientUnits="userSpaceOnUse" x1="40.8919" y1="176.3881" x2="211.4694" y2="176.3881" gradientTransform="matrix(0.9024 -0.431 -0.431 -0.9024 159.7713 387.6494)">
			<stop  offset="2.424240e-02" style="stop-color:#FFFFFF"/>
			<stop  offset="1" style="stop-color:#FFFFFF"/>
		</linearGradient>
		<path class="st13" d="M230.1,83.2c0.7,1.4,1.4,2.7,2.2,4.1c20.4,42.5,2.3,93.4-40.2,113.8c-25.4,12.2-53.8,10.6-76.9-1.7
			c21.5,39.5,70.5,55.7,111.7,36.1c42.5-20.4,60.5-71.2,40.2-113.8C258.9,104.6,245.8,91.4,230.1,83.2z"/>
	</g>
</g>
<g id="DESIGNED_BY_FREEPIK">
</g>
</svg>
